<svg width="574" height="578" viewBox="0 0 574 578" fill="none" xmlns="http://www.w3.org/2000/svg">
<path d="M400.377 368.59C393.056 368.039 385.735 367.645 378.493 367.173C330.24 364.103 281.2 361.27 232.869 364.654H232.554C205.712 366.779 178.791 368.904 151.948 370.872C177.452 366.071 203.271 362.923 229.248 361.191C231.688 361.034 234.05 360.798 236.49 360.798C291.04 357.571 346.299 360.562 400.298 368.668L400.377 368.59Z" fill="#CEB06E"/>
<path d="M491.215 570.937C409.665 567.946 327.958 568.733 246.408 568.34C192.173 568.025 137.15 566.372 82.5208 567.474C80.3955 559.289 78.1916 551.182 75.8302 543.076C96.9261 545.044 121.407 542.368 141.322 537.882C142.581 537.567 142.188 535.835 141.007 535.757C120.383 533.553 95.1943 533.159 74.0984 537.095C70.7136 525.84 67.1713 514.664 63.4717 503.488C101.728 505.534 140.377 503.96 178.397 499.868C179.893 499.71 179.972 497.428 178.397 497.507C140.535 498.766 99.5236 493.02 61.9761 499.238C60.6379 495.382 59.3784 491.525 58.0403 487.747C57.0169 485.071 56.0723 482.238 55.049 479.483C53.0024 480.821 50.8771 481.844 48.7518 482.474C49.6177 485.307 50.4048 488.062 51.192 490.895C58.7487 516.474 66.0693 542.21 73.3112 567.789C49.3028 568.419 25.373 569.678 1.60071 571.96C0.970986 571.96 0.970986 572.905 1.60071 572.983C82.4421 580.775 165.252 576.997 246.408 576.525C327.958 576.132 409.665 576.919 491.215 573.928C493.104 573.928 493.104 571.095 491.215 570.937Z" fill="#CEB06E"/>
<path d="M534.508 474.919C533.879 479.326 533.249 483.812 532.619 488.219C528.92 514.034 524.669 539.77 520.97 564.877C520.497 568.34 514.672 567.474 514.908 564.011C516.719 540.085 518.686 514.979 521.52 490.03C521.914 486.645 522.307 483.261 522.701 479.877C526.794 480.27 530.73 478.303 534.43 474.84L534.508 474.919Z" fill="#CEB06E"/>
<path d="M572.292 566.215C554.817 563.539 535.532 565.664 518.057 567.474C517.427 567.474 517.427 568.418 518.057 568.497C535.532 570.307 554.817 572.432 572.292 569.756C574.024 569.52 574.024 566.451 572.292 566.215Z" fill="#CEB06E"/>
<path d="M475.393 368.275C462.798 366.779 450.204 365.52 437.609 364.261C370.228 357.728 300.879 352.298 233.184 357.02H232.869C184.38 360.798 135.891 364.339 87.4015 367.881C87.4015 370.4 87.4014 372.918 87.5589 375.515C108.97 374.099 130.381 372.525 151.87 370.793C178.712 368.826 205.633 366.701 232.475 364.576H232.79C281.122 361.191 330.162 364.025 378.415 367.094C385.657 367.566 392.977 368.039 400.298 368.511C425.487 370.164 450.991 371.974 476.18 375.358C475.787 372.918 475.55 370.557 475.314 368.196L475.393 368.275ZM475.393 368.275C462.798 366.779 450.204 365.52 437.609 364.261C370.228 357.728 300.879 352.298 233.184 357.02H232.869C184.38 360.798 135.891 364.339 87.4015 367.881C87.4015 370.4 87.4014 372.918 87.5589 375.515C108.97 374.099 130.381 372.525 151.87 370.793C178.712 368.826 205.633 366.701 232.475 364.576H232.79C281.122 361.191 330.162 364.025 378.415 367.094C385.657 367.566 392.977 368.039 400.298 368.511C425.487 370.164 450.991 371.974 476.18 375.358C475.787 372.918 475.55 370.557 475.314 368.196L475.393 368.275ZM562.217 397.002C555.605 382.52 539.94 379.687 525.614 376.539C511.602 373.39 497.276 371.108 483.029 369.219C480.51 368.826 477.912 368.589 475.393 368.275C462.798 366.779 450.204 365.52 437.609 364.261C370.228 357.728 300.879 352.298 233.184 357.02H232.869C184.38 360.798 135.891 364.339 87.4015 367.881C84.8826 368.039 82.3635 368.275 79.8446 368.432C76.9321 368.668 74.0197 368.826 71.1072 369.062C17.3442 373.076 -22.0926 420.219 13.8019 470.904C23.5627 484.756 36.7869 494.83 51.0345 490.816C53.3173 490.187 55.6002 489.164 57.883 487.747C59.0637 487.039 60.1658 486.251 61.3465 485.307C73.1539 476.099 80.5531 461.932 91.1797 451.464C112.512 430.687 122.981 451.858 141.952 460.358C163.52 470.039 180.68 456.108 195.321 441.627C200.438 436.511 206.578 426.673 213.583 424.312C224.289 420.691 235.703 429.585 244.283 434.228C253.099 439.029 262.545 444.145 272.62 440.525C276.477 439.108 278.445 436.117 281.673 434.15C291.355 428.168 298.912 414.867 307.255 427.539C313.395 436.983 312.057 454.377 316.465 465.002C321.66 477.279 333.783 492.548 349.211 487.983C365.112 483.261 367.946 460.122 373.141 447.136C377.785 435.566 386.916 426.594 398.724 434.858C402.974 437.849 405.729 445.562 408.799 449.654C414.546 457.289 420.764 464.214 430.131 467.127C438.79 469.724 448.945 468.543 456.974 464.765C468.624 459.414 482.32 437.219 493.262 449.89C502.944 461.145 500.661 488.298 521.284 489.872C521.914 489.872 522.544 490.029 523.252 490.029C526.48 490.029 529.549 489.321 532.383 488.062C558.281 476.335 571.269 417.15 561.981 396.923L562.217 397.002ZM534.509 474.918C530.809 478.381 526.873 480.27 522.78 479.955C517.9 479.562 512.862 476.02 507.667 467.914C501.763 458.626 503.416 439.187 490.192 435.566C466.498 429.191 463.114 470.196 432.414 459.965C411.397 452.96 394 394.168 370.464 435.015C365.899 442.886 364.167 452.252 360.861 460.752C359.523 464.214 358.106 470.983 355.272 473.58C335.751 491.603 326.384 469.33 322.054 457.761C317.803 446.427 319.535 421.793 308.83 413.923C298.754 406.446 290.725 416.363 283.09 421.872C260.97 437.927 256.09 429.978 235.624 420.219C228.303 416.756 221.927 413.923 213.741 416.205C190.913 422.816 184.301 456.659 156.829 456.423C135.418 456.265 125.579 427.539 103.459 433.835C84.8037 439.108 71.3433 469.015 55.0491 479.562C53.0025 480.9 50.8772 481.923 48.7519 482.552C41.6675 484.677 33.8745 482.395 24.8222 472.636C-1.94132 443.515 4.11974 399.363 40.7227 383.071C53.396 377.483 66.6991 377.089 80.1595 376.224C81.0254 376.224 81.97 376.066 82.8359 376.066C84.4889 375.909 86.0633 375.83 87.6377 375.673C109.048 374.256 130.459 372.682 151.949 370.951C178.791 368.983 205.712 366.858 232.554 364.733H232.869C281.2 361.349 330.24 364.182 378.493 367.252C385.735 367.724 393.056 368.196 400.377 368.668C425.566 370.321 451.07 372.131 476.259 375.515C478.778 375.83 481.375 376.145 483.894 376.617C497.985 378.585 512.075 381.182 525.85 384.33C545.214 388.816 558.281 394.404 557.494 418.015C557.1 431.159 547.575 462.64 534.351 474.997L534.509 474.918ZM475.393 368.275C462.798 366.779 450.204 365.52 437.609 364.261C370.228 357.728 300.879 352.298 233.184 357.02H232.869C184.38 360.798 135.891 364.339 87.4015 367.881C87.4015 370.4 87.4014 372.918 87.5589 375.515C108.97 374.099 130.381 372.525 151.87 370.793C178.712 368.826 205.633 366.701 232.475 364.576H232.79C281.122 361.191 330.162 364.025 378.415 367.094C385.657 367.566 392.977 368.039 400.298 368.511C425.487 370.164 450.991 371.974 476.18 375.358C475.787 372.918 475.55 370.557 475.314 368.196L475.393 368.275Z" fill="#CEB06E"/>
<path d="M164.228 300.275C149.193 298.622 132.663 298.544 117.471 298.937C107.474 299.173 97.1621 300.511 87.7161 303.895C87.7161 300.59 87.7163 297.363 87.8737 294.057C88.0312 289.493 88.1099 284.928 88.346 280.442C87.1653 280.599 85.9056 280.599 84.4887 280.442C83.1506 280.284 81.8911 280.048 80.7891 279.733C80.6317 284.22 80.3955 288.863 80.3168 293.349C79.6084 318.377 79.451 343.405 79.9233 368.432C79.9233 370.951 79.9232 373.469 80.0807 376.067C80.9465 376.067 81.8911 375.909 82.757 375.909C84.41 375.752 85.9845 375.673 87.5588 375.516C87.4014 372.997 87.4014 370.479 87.4014 367.882C87.244 359.224 87.1653 350.567 87.1653 341.831C96.8474 342.224 106.766 340.571 116.369 339.784C125.894 338.997 135.576 338.682 144.864 336.4C146.596 336.007 146.045 333.724 144.471 333.567C133.686 332.307 122.43 333.882 111.646 335.062C103.459 335.928 95.1156 336.479 87.1653 338.682C87.1653 329.553 87.3226 320.423 87.48 311.294C98.8151 311.136 110.465 309.09 121.643 307.28C135.89 304.919 150.217 304.604 164.464 302.479C165.802 302.243 165.252 300.432 164.15 300.354L164.228 300.275Z" fill="#CEB06E"/>
<path d="M483.973 376.539C481.454 376.145 478.856 375.752 476.337 375.437C475.944 372.997 475.708 370.636 475.472 368.275C472.717 345.215 470.119 322.233 467.836 299.094C467.443 295.631 467.128 292.247 466.734 288.706C469.332 289.571 471.929 289.886 474.369 289.571C474.684 293.113 474.999 296.655 475.472 300.275C477.754 323.256 480.273 346.238 483.107 369.219C483.343 371.659 483.658 374.099 483.973 376.539Z" fill="#CEB06E"/>
<path d="M497.276 259.034C490.743 216.377 457.839 212.599 421.394 205.909C374.951 197.409 326.541 188.752 279.154 186.941C278.288 186.941 277.343 186.941 276.477 186.941C276.241 186.941 275.926 186.941 275.611 186.941H275.218C226.807 187.099 172.887 191.428 125.342 201.265C88.9755 208.821 48.2007 232.826 65.7544 277.372C68.5882 284.613 73.6259 291.066 80.3955 293.349C82.6782 294.136 85.1971 294.451 87.9522 294.057C88.8968 293.9 89.9202 293.664 91.0222 293.428C97.5556 291.46 101.413 284.534 105.506 279.654C119.439 262.733 125.342 269.423 141.007 276.664C156.75 283.983 173.595 282.252 185.088 268.951C194.691 257.775 201.776 228.418 226.571 254.39C233.734 261.867 233.97 276.506 239.638 285.557C245.699 295.238 255.696 303.659 267.818 298.858C283.955 292.326 294.897 238.886 314.812 275.168C325.124 293.978 328.902 339.941 364.324 320.58C378.415 312.867 380.933 294.608 387.782 281.701C396.991 264.701 413.522 254.863 432.571 265.803C443.828 272.414 447.055 285.872 457.288 293.349C461.066 296.103 464.609 297.914 467.836 299.015C470.513 299.96 473.11 300.353 475.471 300.196C492.002 299.803 500.189 278.002 497.355 258.955L497.276 259.034ZM474.291 289.65C471.85 289.965 469.253 289.65 466.655 288.784C463.349 287.603 459.886 285.321 456.579 281.937C447.37 272.492 443.827 261.867 430.524 256.752C403.053 246.363 387.703 262.969 377.627 286.187C373.377 296.182 369.205 311.451 357.161 315.465C340.473 320.974 331.578 304.997 327.328 292.326C324.1 282.252 323.156 268.321 314.969 260.608C308.436 254.548 299.62 252.895 291.433 256.909C280.334 262.497 281.279 277.057 272.778 283.511C243.18 305.863 240.347 257.932 229.956 245.89C222.793 237.548 214.055 234.164 203.193 238.02C189.811 242.664 188.237 254.941 179.027 263.756C149.351 292.09 143.919 256.988 120.226 258.168C103.617 259.034 102.829 278.867 88.1883 280.441C87.0076 280.599 85.7482 280.599 84.3313 280.441C82.9931 280.284 81.7336 280.048 80.6316 279.733C59.2996 273.673 73.2324 235.108 85.1185 224.798C96.8472 214.645 116.054 210.552 131.167 207.798C177.295 199.455 228.461 194.576 275.375 194.497C309.932 195.599 344.803 201.423 379.044 206.617C405.729 210.71 456.973 210.867 477.439 231.33C485.547 239.437 489.483 253.682 490.27 264.858C491.215 278.159 483.973 288.548 474.133 289.728L474.291 289.65Z" fill="#CEB06E"/>
<path d="M382.429 34.3351C356.925 -28.3131 285.923 4.50637 269.865 55.2703C258.058 31.3443 238.222 11.1175 210.12 8.59896C186.741 6.39526 162.89 18.4369 154.231 41.0249C126.681 113.196 223.344 163.488 273.329 186.076C273.722 186.233 274.037 186.233 274.431 186.312C274.588 186.548 274.824 186.784 275.139 186.942C275.769 187.414 276.556 187.65 277.501 187.492C277.658 187.492 277.737 187.492 277.895 187.492C278.288 187.335 278.681 187.335 279.075 187.099C307.806 179.229 345.511 146.881 364.088 124.608C385.42 98.9508 395.339 66.2888 382.35 34.4138L382.429 34.3351ZM376.998 89.5064C369.048 112.724 350.156 130.59 331.343 145.307C316.229 157.034 295.763 175.136 276.871 180.252C276.478 179.858 276.084 179.465 275.533 179.15C231.924 159.553 183.356 137.043 164.464 89.5851C151.004 55.5851 164.307 15.3675 205.554 16.548C237.67 17.4138 256.641 39.8443 267.661 67.7841C269.157 71.4832 273.959 69.2795 274.352 66.2888C278.918 35.9091 313.002 -3.6001 347.479 7.18231C379.91 17.4138 386.365 61.9601 376.919 89.4277L376.998 89.5064Z" fill="#CEB06E"/>
<path d="M341.418 73.0571C334.412 59.9136 320.086 56.3719 306.625 60.9367C283.719 68.6497 270.731 95.4877 271.44 95.409C271.991 95.409 264.119 84.3904 262.466 82.7377C256.877 77.2284 249.792 73.2145 242.157 71.4043C229.405 68.4136 215.866 71.4043 209.726 83.6821C190.362 122.64 275.06 172.775 277.737 172.853C281.279 173.011 364.718 116.974 341.497 73.1358L341.418 73.0571ZM311.034 138.696C300.013 149.164 280.334 166.714 278.13 166.636C278.13 166.636 244.361 146.252 231.924 131.534C225.312 123.742 210.277 107.451 213.819 91.0015C218.779 67.9414 241.134 73.1358 253.413 82.7377C261.128 88.7978 268.527 96.5895 271.282 105.562C272.227 107.923 273.801 107.372 274.588 104.932C276.477 97.4553 281.909 87.7747 286.632 81.6358C301.194 60.071 340.08 56.2145 339.372 91.7886C339.057 107.844 319.535 130.511 310.955 138.617L311.034 138.696Z" fill="#CEB06E"/>
<path d="M190.519 30.5572C161.158 41.0248 166.196 91.4739 183.986 109.812C185.482 111.386 188.237 109.812 187.607 107.687C180.129 82.8165 171.155 54.3257 191.779 32.6822C192.566 31.8165 191.779 30.085 190.519 30.5572Z" fill="#CEB06E"/>
<path d="M202.248 24.9692C197.604 24.9692 197.604 32.1313 202.248 32.1313C206.892 32.1313 206.892 24.9692 202.248 24.9692Z" fill="#CEB06E"/>
<path d="M190.126 299.409C185.009 298.78 179.42 299.409 174.304 299.96C173.123 300.118 173.044 301.77 174.304 301.849C179.499 302.164 185.246 302.636 190.441 301.692C191.858 301.456 191.307 299.567 190.126 299.409Z" fill="#CEB06E"/>
<path d="M165.567 314.52C144.864 314.442 124.083 316.882 103.853 320.895C103.617 320.895 103.617 321.368 103.853 321.368C124.398 320.659 145.1 319.557 165.567 317.354C167.298 317.196 167.456 314.52 165.567 314.52Z" fill="#CEB06E"/>
<path d="M146.517 345.766C138.409 346.159 130.302 347.025 122.194 347.812C121.8 347.812 121.8 348.363 122.194 348.363C130.302 347.812 138.409 347.497 146.517 346.631C147.068 346.631 147.068 345.766 146.517 345.766Z" fill="#CEB06E"/>
<path d="M205.79 511.279C186.662 509.784 164.622 511.201 145.888 515.372C145.337 515.529 145.494 516.238 146.045 516.316C165.33 517.576 186.662 516.789 205.869 514.427C207.837 514.191 207.916 511.515 205.869 511.279H205.79Z" fill="#CEB06E"/>
<path d="M302.611 552.599C271.754 547.798 231.845 547.877 201.304 554.409C200.044 554.645 200.438 556.456 201.618 556.534C218.227 558.266 235.23 556.534 251.918 556.456C268.606 556.298 285.608 557.557 302.217 555.905C303.871 555.747 304.658 552.993 302.69 552.678L302.611 552.599Z" fill="#CEB06E"/>
<path d="M51.2705 465.631C29.23 452.252 25.7667 428.09 33.0086 404.478C33.4021 403.219 31.5128 402.432 30.8831 403.534C22.6179 417.307 17.5015 431.08 23.169 447.057C27.2623 458.705 36.472 468.937 49.1453 470.826C52.1365 471.298 54.2618 467.441 51.3493 465.631H51.2705Z" fill="#CEB06E"/>
<path d="M166.354 440.997C162.575 440.21 158.954 440.053 155.333 438.557C151.161 436.826 147.934 434.071 144.234 431.474C138.803 427.618 133.765 425.414 127.074 424.784C126.759 424.784 126.759 425.178 127.074 425.256C138.331 429.742 152.578 453.117 166.747 444.381C168.007 443.594 167.928 441.391 166.275 440.997H166.354Z" fill="#CEB06E"/>
<path d="M167.928 212.284C134.867 214.331 73.6259 218.895 82.3634 267.456C82.5208 268.479 84.0164 268.164 84.0951 267.219C87.5586 224.405 136.677 222.594 168.243 214.724C169.581 214.409 169.345 212.206 167.928 212.284Z" fill="#CEB06E"/>
<path d="M190.913 208.821C186.899 208.192 182.726 209.372 178.791 210.081C178.004 210.238 178.24 211.419 178.948 211.497C182.805 211.733 187.056 212.52 190.834 211.497C192.015 211.183 192.251 209.058 190.834 208.821H190.913Z" fill="#CEB06E"/>
</svg>
