<svg width="577" height="709" viewBox="0 0 577 709" fill="none" xmlns="http://www.w3.org/2000/svg">
<path d="M574.104 507.473C495.702 464.501 432.336 407.913 373.456 341.881C371.331 327.95 369.284 313.941 367.395 299.931C362.436 262.075 360.94 222.408 354.328 184.473C367.71 202.575 383.06 218.867 400.456 229.57C405.021 232.404 411.004 226.658 407.934 222.094C397.071 205.723 382.509 192.265 370.465 176.839C357.241 159.918 345.433 141.816 334.964 123.006C314.183 85.8574 303.084 46.2694 288.443 6.83887C288.6 5.65831 288.758 4.39906 288.836 3.2185C289.23 -0.874093 283.484 -0.952797 282.224 2.35276C266.402 43.5935 252.706 85.4639 232.476 124.973C223.109 143.154 212.875 160.862 201.934 178.177C190.599 196.2 175.643 213.279 166.354 232.404C164.859 235.552 168.243 240.274 171.707 237.756C186.191 227.131 198.943 212.649 210.199 196.594C206.499 246.413 201.698 296.468 198.943 346.524C176.115 378.399 153.209 409.881 124.95 437.348C94.4077 467.098 59.9301 489.607 23.7207 511.723C19.7062 514.163 22.3038 521.719 27.1055 519.751C39.8575 514.478 52.6095 508.181 65.0466 501.019C75.5159 532.894 88.4253 563.825 97.8712 596.093C108.026 630.802 113.772 666.376 122.273 701.399C111.647 701.793 101.099 702.501 90.7081 703.681C90.0783 703.681 90.0783 704.547 90.7081 704.626C101.886 705.885 113.221 706.515 124.556 706.908C125.658 707.617 127.154 707.617 128.334 707.066C153.287 707.774 178.477 707.066 203.193 707.538C240.662 708.246 278.21 707.931 315.757 708.01C390.616 708.089 466.105 708.797 540.807 705.177C542.066 705.177 542.066 703.288 540.807 703.288C527.818 702.658 514.752 702.186 501.685 701.793C506.959 667.084 509.084 632.14 515.46 597.589C521.442 565.163 530.888 533.681 537.894 501.57C547.891 507.237 558.045 512.589 568.279 517.547C574.812 520.695 580.558 511.251 574.025 507.631L574.104 507.473ZM215.945 188.33C228.619 168.969 239.324 148.191 248.534 129.695C264.513 97.5842 278.052 63.9778 285.058 28.8759C290.017 63.3481 304.265 97.6629 319.851 127.649C326.935 141.344 335.358 156.219 344.882 170.7C342.836 215.168 351.494 261.996 357.477 305.756C358.736 315.043 360.074 324.33 361.413 333.617C361.177 334.246 361.177 334.955 361.57 335.584C361.57 335.663 361.649 335.742 361.728 335.82C366.687 370.056 372.118 404.293 379.045 438.214C349.605 411.061 325.046 379.029 294.819 352.978C293.245 351.64 291.355 352.033 290.253 353.214C289.86 353.371 289.466 353.607 289.151 354.001C264.277 385.482 234.129 413.422 205.24 441.126C215.552 357.621 213.82 272.306 215.945 188.251V188.33ZM129.987 701.006C127.862 664.723 118.337 627.89 108.262 593.181C98.8158 560.598 87.953 527.07 71.4226 497.163C123.533 465.524 170.369 418.144 198.234 365.177C197.919 372.103 197.762 379.029 197.526 386.033C169.424 429.006 133.923 464.501 93.6993 496.455C93.1483 496.927 93.8567 497.871 94.4865 497.478C135.97 471.82 170.054 436.246 197.29 396.029C197.132 403.033 197.053 410.038 197.053 417.043C195.951 427.904 195.637 438.844 196.66 449.469C185.482 459.936 174.147 470.246 162.182 479.769C146.439 492.283 128.098 501.492 113.063 514.714C110.623 516.839 113.3 520.223 115.976 519.751C125.737 518.019 135.419 514.32 144.865 509.519C151.005 539.506 159.742 568.941 165.646 599.006C172.179 632.455 173.675 667.084 181.232 700.14C181.232 700.376 181.389 700.533 181.468 700.769C164.386 700.769 147.148 700.612 129.987 701.084V701.006ZM338.821 700.14C331.186 700.14 323.472 700.14 315.836 700.14C310.72 700.14 305.603 700.14 300.486 700.14C300.486 700.14 300.486 700.14 300.486 700.061C304.344 639.695 306.154 574.922 298.912 514.871C298.755 513.612 297.023 513.533 296.865 514.871C291.985 575.552 294.347 639.302 296.708 700.061C296.708 700.061 296.708 700.061 296.708 700.14C283.877 700.14 271.047 700.14 258.216 700.14C260.656 651.107 226.021 519.043 296.629 511.33C342.285 506.293 340.71 568.862 341.576 599.399C342.521 633.084 339.608 666.533 338.664 700.061L338.821 700.14ZM507.195 595.07C500.504 629.306 494.049 665.668 494.679 700.691C494.679 700.927 494.758 701.163 494.836 701.399C445.796 700.061 396.52 700.061 347.401 700.219C352.36 652.524 354.328 602.705 347.952 555.168C344.095 526.205 329.848 498.029 296.078 501.57C264.592 504.876 249.872 533.131 246.251 561.621C240.82 604.357 241.764 658.348 254.752 700.297C239.088 700.297 223.502 700.376 207.838 700.691C200.989 700.769 194.141 700.848 187.293 700.848C187.529 700.376 187.765 699.904 187.765 699.353C189.103 665.746 180.917 629.543 174.541 596.644C168.637 566.343 162.182 535.256 151.005 506.371C175.643 492.283 198.549 470.718 216.969 453.325C245.149 426.723 276.635 398.783 292.851 362.894C312.766 399.806 348.11 430.973 379.281 457.811C399.511 475.205 421.237 492.834 444.537 507.316C429.896 567.603 426.904 632.691 421.158 694.08C420.765 698.251 427.219 698.172 427.692 694.08C434.54 633.478 447.292 572.404 451.385 511.408C462.799 518.098 474.606 523.922 486.729 528.487C490.035 529.746 493.105 524.631 490.271 522.427C458.155 496.927 423.047 475.834 391.482 449.469C388.727 432.862 385.893 416.334 383.06 399.728C394.946 418.066 411.161 433.885 427.377 447.973C448.236 466.154 471.222 486.223 497.828 494.959C499.638 495.589 500.504 492.992 499.087 492.047C453.353 460.881 415.097 428.061 380.698 385.404C379.203 376.274 377.628 367.144 376.133 358.015C416.435 415.626 472.402 463.635 533.486 498.894C520.97 529.353 513.492 563.038 507.195 595.228V595.07Z" fill="#CEB06E"/>
<path d="M73.0754 702.265C69.6906 701.242 65.7548 701.635 62.2126 701.793C58.513 701.95 55.2069 702.343 51.7434 703.524C51.2711 703.681 51.2711 704.39 51.7434 704.547C55.2069 705.728 58.5917 706.121 62.2126 706.279C65.6761 706.436 69.6906 706.83 73.0754 705.806C74.8072 705.256 74.8072 702.816 73.0754 702.265Z" fill="#CEB06E"/>
<path d="M308.043 203.834C304.895 191.95 297.889 181.797 284.35 182.978C244.52 186.52 258.295 294.58 261.05 294.816C277.895 296.39 297.417 296.862 314.183 294.58C316.072 294.344 315.443 231.932 308.043 203.756V203.834ZM307.729 289.307C297.889 291.983 274.746 290.645 265.222 289.307C264.75 289.307 261.837 258.14 263.884 233.112C264.828 221.621 268.685 191.242 283.799 190.455C301.195 189.589 303.557 210.76 305.052 222.015C308.752 250.112 307.807 289.307 307.807 289.307H307.729Z" fill="#CEB06E"/>
<path d="M320.166 428.691C310.798 418.774 299.07 428.769 294.347 442.07C290.017 431.996 277.108 420.584 271.283 435.695C265.064 451.672 296.787 485.436 298.361 483.626C307.335 473.473 331.973 441.283 320.166 428.691ZM313.553 454.899C309.381 463.084 303.635 471.033 297.495 477.723C296 476.779 286.239 466.468 281.673 459.621C274.982 449.468 271.676 438.371 276.321 434.279C284.665 426.959 293.245 445.376 293.323 445.848C294.032 448.839 295.685 448.524 296.236 446.635C298.361 439.08 308.437 423.89 316.623 429.635C323.393 434.436 315.521 450.885 313.553 454.742V454.899Z" fill="#CEB06E"/>
<path d="M178.87 539.27C178.712 538.719 177.925 538.955 178.083 539.506C184.301 575.237 192.645 610.496 200.359 645.992C200.517 646.779 201.934 646.622 201.855 645.756C197.211 609.395 190.599 574.057 178.87 539.27Z" fill="#CEB06E"/>
<path d="M203.981 661.339C203.666 659.844 201.462 660.473 201.698 661.969C202.091 664.33 202.17 667.084 203.272 669.209C203.823 670.154 205.083 669.603 205.161 668.658C205.398 666.297 204.453 663.621 203.981 661.339Z" fill="#CEB06E"/>
<path d="M231.295 229.019C231.295 228.626 230.665 228.626 230.665 229.019C226.965 276.163 227.202 323.779 227.91 371.001C227.91 373.677 232.003 373.677 232.082 371.001C234.129 323.779 234.916 276.084 231.295 229.019Z" fill="#CEB06E"/>
<path d="M231.059 387.056C230.823 386.427 230.036 386.427 229.799 387.056C229.091 389.181 227.989 391.149 229.091 393.274C229.642 394.297 231.216 394.297 231.767 393.274C232.869 391.149 231.767 389.181 231.059 387.056Z" fill="#CEB06E"/>
<path d="M288.128 622.144C287.892 619.311 287.734 616.556 287.734 613.723C287.734 611.598 284.586 611.598 284.428 613.723C284.035 619.154 283.09 626.394 285.294 631.51C286.16 633.478 288.679 632.14 288.915 630.566C289.309 627.811 288.443 624.978 288.128 622.223V622.144Z" fill="#CEB06E"/>
<path d="M314.34 614.117C314.34 612.464 311.9 612.464 311.743 614.117C311.192 620.019 310.955 626.316 312.215 632.14C312.608 633.95 315.678 633.556 315.442 631.667C314.891 625.765 314.104 620.019 314.34 614.117Z" fill="#CEB06E"/>
<path d="M162 311.978C162 356.704 125.754 392.965 81.0135 392.965C36.2727 392.965 0 356.704 0 311.978C0 267.252 36.2727 230.992 81.0135 230.992C83.7643 230.992 86.4342 231.126 89.131 231.396C58.3329 234.82 34.3579 260.971 34.3579 292.675C34.3579 326.725 62.0007 354.332 96.0619 354.332C130.123 354.332 157.739 326.698 157.739 292.675C157.739 289.898 157.55 287.148 157.2 284.479C160.301 293.053 161.973 302.3 161.973 311.978H162Z" fill="#CEB06E"/>
<path d="M111.111 250.942L116.747 265.204L131.418 260.728L123.759 274.019L136.434 282.7L121.251 285.019L122.384 300.305L111.111 289.898L99.8378 300.305L100.944 285.019L85.7603 282.7L98.4355 274.019L90.7764 260.728L105.474 265.204L111.111 250.942Z" fill="#CEB06E"/>
</svg>
