<svg width="491" height="594" viewBox="0 0 491 594" fill="none" xmlns="http://www.w3.org/2000/svg">
<path d="M424.244 508.023C415.191 479.69 362.845 327.241 363.081 327.083C394.253 303.866 388.585 282.144 378.352 247.75C365.128 203.44 334.901 106.005 331.988 106.556C314.513 109.94 218.322 138.903 218.48 139.454C228.083 189.352 243.275 240.588 261.459 289.542C271.613 316.773 291.214 340.148 319.394 338.731C326.636 352.977 376.463 489.921 385.909 518.019C370.166 534.153 342.3 558.866 343.245 569.806C345.528 595.463 407.399 574.606 421.646 570.986C444.001 565.241 495.403 551.782 490.444 533.444C487.059 521.009 430.935 509.676 424.322 508.023H424.244ZM473.599 542.338C464.783 551.231 433.139 558.708 422.355 562.171C387.562 573.268 337.341 580.509 362.53 553.829C373.551 542.102 391.026 528.171 397.559 523.292C401.337 520.458 328.682 331.963 327.58 331.806C313.175 329.759 296.881 327.634 283.263 306.699C266.576 281.199 229.736 153.856 232.491 146.144C234.774 139.769 322.621 114.819 325.849 118.519C329.391 122.611 352.297 197.852 365.128 242.241C348.125 229.412 324.196 232.639 305.225 218.079C278.934 197.931 280.744 158.657 247.29 145.986C245.558 145.356 244.378 148.19 246.031 148.977C275.864 164.245 274.447 205.25 299.636 225.398C320.653 242.162 347.574 237.046 368.434 253.574C371.346 263.806 373.315 271.125 373.787 273.486C378.825 299.38 367.883 310.162 353.872 324.88C353.163 325.667 419.836 520.694 418.419 516.287C422.669 518.333 448.803 521.009 466.908 526.833C477.22 530.218 481.156 534.782 473.835 542.259L473.599 542.338Z" fill="#CEB06E"/>
<path d="M328.053 256.722C316.009 249.245 301.84 248.222 290.82 238.384C277.832 226.815 270.511 209.028 265.316 192.815C264.923 191.634 263.348 192.106 263.506 193.287C268.465 230.75 288.537 254.518 326.4 260.579C328.682 260.972 330.178 258.06 327.974 256.722H328.053Z" fill="#CEB06E"/>
<path d="M329.942 287.495C329.942 290.171 326.793 290.25 325.061 288.833C322.936 287.181 323.015 284.347 324.432 282.301C325.061 281.356 323.723 280.491 322.936 281.199C319.236 284.741 320.024 290.722 324.274 293.477C328.919 296.546 335.688 293.477 335.216 287.495C334.901 284.19 329.942 284.032 329.942 287.495Z" fill="#CEB06E"/>
<path d="M348.204 267.033C347.653 267.033 347.102 267.347 346.787 267.662L346.472 267.977C345.607 268.843 345.37 270.417 346.079 271.44C348.204 274.588 353.636 273.722 353.085 269.394C352.848 267.19 349.857 265.459 348.204 267.033Z" fill="#CEB06E"/>
<path d="M287.357 264.278C286.254 264.829 285.231 265.616 283.893 265.143C281.059 264.199 281.846 260.5 284.286 259.477C285.467 259.005 285.074 257.037 283.736 257.509C280.193 258.611 278.147 263.018 280.508 266.245C282.634 269.079 287.514 269.472 289.561 266.481C290.505 265.143 288.695 263.727 287.435 264.356L287.357 264.278Z" fill="#CEB06E"/>
<path d="M102.925 528.25C110.009 499.366 145.274 342.037 145.51 342.037C184.239 338.574 190.772 317.088 199.982 282.38C211.868 237.676 237.136 138.824 234.381 137.801C226.037 134.653 197.62 126.704 171.25 119.621C171.408 118.676 171.565 117.653 171.723 116.709C181.169 74.5233 229.894 79.0881 236.191 118.991C236.506 120.88 239.104 120.25 239.261 118.676C243.59 78.3798 189.67 61.9307 169.361 96.7178C165.583 103.25 164.166 110.334 163.694 117.574C140.394 111.278 120.479 106.162 120.321 106.477C102.374 154.014 88.52 205.644 78.3656 256.88C72.7768 285.371 77.2636 315.514 101.98 329.13C100.721 345.107 71.5173 487.797 64.8264 516.759C42.9434 522.269 6.26145 528.722 1.38105 538.56C-10.1115 561.621 53.4911 576.181 67.5813 580.588C89.7005 587.435 140.472 602.783 145.825 584.602C149.446 572.246 107.569 533.209 102.767 528.329L102.925 528.25ZM127.091 583.343C114.89 586.255 84.033 576.102 73.0127 573.426C37.5905 564.611 -9.08808 544.542 26.3342 535.019C41.8412 530.847 64.0392 528.093 72.147 527.306C76.7912 526.834 113.552 328.185 112.686 327.477C101.508 318.19 88.756 307.88 88.0475 282.931C87.1817 252.472 122.368 124.658 128.822 119.542C130.948 117.889 146.061 120.722 163.536 125.13C163.536 130.324 163.694 135.597 163.536 140.634C162.985 165.977 156.609 188.408 136.301 205.959C112.45 226.579 93.7938 241.533 93.2428 275.533C93.2428 276.477 94.6596 276.713 94.8958 275.769C102.216 249.246 114.103 233.584 135.671 217.134C146.061 209.185 154.484 201.866 160.388 189.982C167.236 176.209 170.385 161.019 171.014 145.829C171.25 139.533 170.621 133.236 170.621 127.019C195.495 133.551 222.18 142.209 222.652 144.884C223.912 152.125 186.6 290.722 182.271 302.056C172.982 326.769 158.026 330.232 138.426 335.426C137.402 335.662 92.1409 536.829 93.3216 532.264C95.9192 536.278 116.779 552.176 129.059 566.658C136.064 574.921 137.009 580.903 126.855 583.343H127.091Z" fill="#CEB06E"/>
<path d="M157.711 231.222C156.216 231.931 155.35 229.727 157.711 229.727C159.286 229.727 159.836 227.759 158.577 226.815C155.035 224.375 150.391 227.366 150.863 231.616C151.335 236.338 156.53 238.384 160.388 236.023C163.457 234.213 160.939 229.648 157.711 231.144V231.222Z" fill="#CEB06E"/>
<path d="M196.597 202.968C196.125 202.181 195.101 201.787 194.235 202.26C191.795 203.519 190.457 209.973 187.072 206.116C184.396 203.125 186.364 196.514 191.008 198.482C192.74 199.19 193.527 196.908 192.661 195.806C190.221 192.422 185.577 193.366 183.058 196.2C180.303 199.269 179.909 204.306 181.641 208.005C183.451 211.704 187.702 213.829 191.717 212.491C195.259 211.311 198.565 206.51 196.518 202.889L196.597 202.968Z" fill="#CEB06E"/>
<path d="M150.154 287.102C149.367 286.237 147.636 286.787 147.714 288.047C147.872 291.431 145.274 295.996 141.417 294.815C139.37 294.186 137.56 292.297 137.875 290.014C138.19 287.811 140.394 285.607 141.968 284.19C142.676 283.561 141.968 282.223 141.023 282.537C136.694 283.954 132.128 285.686 132.364 291.116C132.522 295.209 135.671 298.829 139.449 300.088C147.163 302.686 156.373 294.186 150.154 287.102Z" fill="#CEB06E"/>
<path d="M112.528 126.861C111.82 126.861 111.19 127.097 110.56 127.176C110.324 127.019 110.088 126.861 109.852 126.861C100.564 126.31 94.5024 122.769 90.6453 114.032C87.8115 107.657 87.8902 99.7084 83.4821 94.2778C83.0098 93.6482 81.6714 93.963 81.5927 94.75C81.2779 97.1111 81.3566 99.551 81.5927 102.069C81.2779 108.366 80.8056 114.977 77.9719 120.25C74.2722 127.255 67.8174 128.357 61.6776 132.056C60.3394 132.843 60.9692 134.889 62.4648 134.968C62.7796 134.968 63.0159 134.968 63.3308 134.968C66.4794 135.991 69.7854 136.227 72.7766 137.644C78.1293 140.083 80.6483 144.569 82.5375 149.921C85.2139 157.713 85.6861 165.819 87.3391 173.847C87.4965 174.634 87.9688 174.949 88.5198 175.107C88.5198 175.343 88.5987 175.5 88.6774 175.736C88.9135 176.838 90.5666 176.523 90.6453 175.5C90.6453 175.264 90.6453 174.949 90.6453 174.713C91.0388 174.398 91.2749 173.926 91.2749 173.375C91.4323 171.014 91.2748 168.417 91.1961 165.741C91.6684 159.995 92.2983 154.329 93.7939 148.741C96.6276 138.037 103.318 134.968 113.079 131.662C115.362 130.875 115.205 126.861 112.45 127.097L112.528 126.861ZM88.1263 149.292C86.8668 145.593 85.2137 142.13 83.0884 139.375C80.7269 136.306 77.2634 133.787 73.485 132.449C77.1846 130.56 80.3333 127.727 82.3799 124.028C83.5607 121.903 84.4267 119.778 84.9777 117.653C86.0797 120.644 87.4966 123.556 89.6219 125.995C91.9047 128.671 95.2895 130.875 98.753 131.898C93.0855 135.991 89.7005 142.287 88.0475 149.37L88.1263 149.292Z" fill="#CEB06E"/>
<path d="M183.766 18.6435C183.766 18.6435 183.53 18.6435 183.373 18.6435C183.137 18.5648 183.058 18.4074 182.743 18.4074C177.705 18.3287 171.329 18.9583 167.866 14.2361C166.291 12.0324 163.457 3.6111 162.592 2.03702C162.592 1.4861 162.513 0.935172 162.434 0.384246C162.434 -0.166679 161.647 -0.0879757 161.568 0.384246C161.568 0.777765 161.568 1.17128 161.568 1.5648C161.568 1.6435 161.411 1.7222 161.411 1.80091C161.411 2.35183 161.411 2.90276 161.411 3.45369C161.017 9.27776 160.151 15.5741 156.137 19.9815C152.595 23.9166 146.848 26.6713 141.653 27.2222C139.685 27.4583 139.843 30.5278 141.653 30.4491C144.88 30.4491 148.738 30.7639 151.886 31.4722C156.137 32.4167 157.475 35.25 158.577 39.0278C160.309 45.2453 164.402 59.4907 164.402 60.0416C164.402 61.7731 166.921 61.537 167 59.8843C167.393 52.3287 168.181 42.412 171.093 35.3287C173.769 28.6389 178.729 25.1759 184.632 21.6342C186.128 20.6898 185.105 18.8009 183.609 18.7222L183.766 18.6435ZM167.393 30.6065C165.898 33.5972 165.111 36.5092 164.638 39.5C163.851 36.4305 162.749 33.5972 161.254 31.3148C159.601 28.7963 157.239 27.3796 154.641 26.6713C156.294 25.6481 157.79 24.3889 159.05 22.5787C161.254 19.5092 162.277 15.9676 162.67 12.2685C163.458 14.7083 164.717 16.9907 166.842 18.7222C168.968 20.4537 171.644 21.3981 174.478 21.7917C171.487 24.0741 169.046 27.3796 167.393 30.6852V30.6065Z" fill="#CEB06E"/>
<path d="M313.018 60.5926C307.272 59.963 300.581 59.1759 297.983 53.2731C296.173 49.1805 295.228 44.537 294.047 40.1296C293.89 38.8704 293.732 37.6898 293.496 36.5092C293.339 35.9583 292.473 36.037 292.473 36.5879C292.552 49.0231 289.482 60.1204 276.257 63.2685C274.526 63.662 274.841 66.1805 276.572 66.338C277.438 66.4167 278.304 66.338 279.091 66.338C280.981 66.8889 282.948 67.4398 284.68 68.5416C287.829 70.5092 289.797 73.5787 291.371 76.963C293.182 80.9768 294.126 85.2268 294.756 89.5555C294.756 92.3889 294.834 95.0648 295.149 97.3472C295.385 99.2361 298.377 98.8426 298.377 97.0324C298.613 89.9491 298.377 82.5509 300.581 75.7037C303.021 68.2268 308.059 65.5509 313.726 62.875C314.041 62.7176 314.041 62.2454 313.963 61.8518C314.041 61.3009 313.805 60.6713 313.018 60.5926ZM295.937 78.9305C295.071 76.3333 294.047 73.8148 292.473 71.4537C290.584 68.6204 287.986 66.1018 285.074 64.6852C289.009 62.4028 291.528 58.1528 292.945 53.3518C293.496 55.0833 294.284 56.6574 295.464 58.1528C297.747 61.1435 301.368 62.875 305.225 63.5046C300.266 66.6528 297.432 72.5555 296.015 79.0092L295.937 78.9305Z" fill="#CEB06E"/>
</svg>
