<svg width="590" height="517" viewBox="0 0 590 517" fill="none" xmlns="http://www.w3.org/2000/svg">
<path d="M365.816 255.989C354.166 214.04 339.919 172.641 326.773 131.086C313.549 89.5303 302.371 46.322 285.919 5.86826C288.753 3.34974 284.896 -1.60858 281.669 0.516422C255.063 18.3822 227.355 31.7618 196.026 39.0812C165.405 46.322 134.391 45.8497 103.534 50.572C102.983 49.7849 101.802 50.0998 101.409 50.8868C99.3622 51.359 100.15 54.3497 102.039 54.5072C119.435 117.234 142.027 179.253 164.776 240.248C127.937 217.266 58.1941 235.762 82.1238 289.123C101.094 331.387 175.796 329.183 200.355 288.493C211.611 269.762 202.795 250.637 195.632 230.41C181.148 189.405 165.72 149.03 149.898 108.577C150.056 108.577 150.213 108.734 150.37 108.734C192.484 112.197 238.769 102.91 270.098 73.947C279.465 123.294 298.672 172.248 315.674 219.313C291.036 211.993 260.809 209.317 241.602 229.544C226.567 245.442 225.623 270.942 237.273 288.965C249.553 307.933 272.617 316.827 294.578 314.78C326.931 311.711 350.152 287.706 364.163 260.16C365.423 259.373 366.289 257.878 365.659 255.831L365.816 255.989ZM252.623 293.766C232.786 275.979 232.629 242.058 257.503 228.285C277.025 217.503 299.852 223.405 320.24 227.262C323.31 227.813 324.884 224.665 323.546 222.618C323.861 221.91 324.018 221.123 323.625 220.178C305.205 169.415 292.374 116.211 272.538 66.1553C271.83 64.2664 269.547 64.5025 268.917 65.9979C268.13 65.9979 267.264 66.3127 266.477 67.021C233.337 98.5025 192.326 96.9285 149.819 104.563C149.19 104.641 148.718 105.035 148.481 105.428C147.616 104.248 145.49 104.799 146.041 106.373C154.7 134.077 162.886 161.702 172.411 189.169C179.417 209.396 204.763 261.104 193.979 283.299C188.784 293.924 172.49 304.785 155.093 309.586C136.28 314.859 113.452 311.475 99.0474 297.465C79.8407 278.813 85.0359 246.702 112.272 239.067C130.927 233.794 149.741 239.067 167.452 245.364C168.003 245.757 168.632 245.993 169.341 245.993C169.577 246.072 169.892 245.993 170.05 245.915C172.017 245.678 173.749 244.026 172.962 241.507C152.811 178.78 131.557 115.345 105.345 54.9007C163.28 60.9609 233.416 44.984 280.567 9.80345C289.934 51.5951 305.048 92.6785 317.8 133.526C330.552 174.373 342.674 215.771 357.158 256.067C338.66 292.114 290.8 327.845 252.544 293.688L252.623 293.766Z" fill="#CEB06E"/>
<path d="M234.518 49.2339C199.489 60.5673 166.507 67.8867 129.668 70.8775C128.723 70.8775 128.723 72.2154 129.668 72.2941C165.169 76.5441 204.448 69.8543 236.17 53.0117C238.296 51.9099 236.8 48.4469 234.518 49.1552V49.2339Z" fill="#CEB06E"/>
<path d="M249.631 58.5997C238.217 62.4562 227.827 69.146 216.413 73.0812C215.547 73.396 215.862 74.734 216.806 74.4979C228.378 71.1923 240.815 68.4377 250.654 61.0395C251.756 60.2525 251.205 58.1275 249.631 58.6784V58.5997Z" fill="#CEB06E"/>
<path d="M126.676 245.993C107.785 244.734 86.5311 266.771 99.047 284.873C100.543 287.077 103.849 285.739 103.298 283.063C101.566 274.484 102.589 266.693 109.123 260.396C114.476 255.281 121.638 253.077 127.542 248.906C128.802 248.04 128.33 246.072 126.755 245.993H126.676Z" fill="#CEB06E"/>
<path d="M138.799 248.433L138.563 248.118C137.461 246.544 135.335 246.544 134.233 248.118L133.997 248.433C132.816 250.164 134.39 252.525 136.358 252.525C138.326 252.525 139.901 250.164 138.72 248.433H138.799Z" fill="#CEB06E"/>
<path d="M582.758 274.326C524.114 321.627 448.862 286.132 400.609 241.428C399.585 240.484 397.932 241.271 397.539 242.451C396.909 242.766 396.437 243.238 396.279 244.026C381.323 309.664 369.201 377.271 364.242 444.484C345.586 427.877 314.021 407.021 289.383 417.252C268.444 425.988 260.337 452.433 266.004 472.896C281.118 527.516 374.869 531.845 396.437 480.688C396.516 480.451 396.515 480.215 396.594 479.979C397.066 479.507 397.539 478.799 397.696 477.933C403.994 436.928 411 383.331 415.723 341.854C445.556 357.674 476.964 360.035 505.223 349.488C542.219 335.715 566.857 307.697 588.819 275.822C590.866 272.831 584.096 273.225 582.758 274.248V274.326ZM506.167 340.359C454.293 362.396 408.953 330.914 409.268 331.701C401.317 373.493 396.201 435.118 390.061 476.989C389.904 478.012 390.218 478.799 390.612 479.507C365.029 509.887 307.015 520.433 281.511 483.836C274.427 473.604 272.144 460.776 275.686 448.813C281.354 429.451 296.94 423.942 315.989 427.248C332.913 430.238 350.152 444.169 363.297 454.243C365.501 455.896 367.784 454.951 368.808 453.141C370.224 452.826 371.484 451.803 371.799 449.836C383.449 383.252 391.635 315.567 400.136 248.512C416.982 276.766 455.395 293.688 485.701 301.086C511.913 307.461 540.172 306.28 563.866 294.396C547.335 312.813 530.884 329.813 506.088 340.359H506.167Z" fill="#CEB06E"/>
<path d="M332.047 442.595C325.199 435.748 308.668 436.298 299.852 439.053C289.147 442.437 284.502 452.59 282.692 462.9C282.377 464.711 285.132 465.498 285.841 463.766C289.698 454.322 294.499 445.428 305.598 443.854C314.414 442.595 322.601 446.136 331.181 445.664C332.834 445.586 332.992 443.539 332.047 442.595Z" fill="#CEB06E"/>
<path d="M341.492 445.585C341.492 445.585 341.178 445.585 341.02 445.585C338.265 445.585 335.825 447.868 336.927 450.78C338.108 453.692 341.414 453.692 343.46 451.803C343.539 451.724 343.697 451.567 343.776 451.488C345.665 449.678 344.09 445.743 341.492 445.664V445.585Z" fill="#CEB06E"/>
<path d="M495.855 312.183C480.82 308.327 465.943 306.044 451.459 299.905C437.211 293.845 424.223 285.424 411.314 277.003C410.133 276.216 408.244 277.632 409.346 278.891C429.969 301.873 464.447 318.479 495.697 316.984C498.61 316.827 498.216 312.813 495.697 312.183H495.855Z" fill="#CEB06E"/>
<path d="M504.986 323.595C494.753 323.044 485.465 326.664 475.153 323.595C474.523 323.437 473.814 324.224 474.523 324.697C483.182 330.442 496.012 330.757 505.38 326.113C506.403 325.562 506.482 323.674 505.065 323.595H504.986Z" fill="#CEB06E"/>
<path d="M460.118 38.4518C459.96 37.7435 459.645 37.2712 459.094 36.9564C458.937 36.5629 458.78 36.1694 458.465 35.9333C453.978 32.2342 447.444 34.2805 442.013 34.8314C434.85 35.5398 427.215 35.8546 420.524 38.7666C419.658 39.1601 419.422 40.1046 419.579 40.9703C419.579 41.049 419.5 41.1277 419.5 41.2064C418.556 51.0444 419.107 62.5351 413.36 71.1138C406.355 81.5814 396.436 82.3685 386.361 87.0907C379.04 90.5536 372.743 94.5675 367.312 100.706C355.583 114.165 354.323 131.873 359.046 148.48C359.361 149.581 360.227 150.054 361.093 150.132C369.516 154.068 378.489 156.271 387.463 158.79C395.334 160.993 403.285 164.22 411.471 163.197C412.888 164.22 415.25 162.882 414.699 160.915C408.953 139.665 402.812 114.401 424.302 99.6046C432.882 93.7018 443.666 92.2064 450.987 84.4148C462.322 72.3731 462.637 53.8777 459.961 38.5305L460.118 38.4518ZM452.797 69.0676C446.028 84.4148 436.818 84.9657 425.089 91.0259C418.319 94.5675 413.046 98.1879 408.716 104.563C397.932 120.304 400.372 139.901 407.929 156.429C402.34 153.674 395.807 152.493 389.745 150.841C381.165 148.48 372.743 146.04 363.927 144.938C365.108 125.892 365.344 108.105 383.999 96.8499C392.737 91.5768 403.6 90.2388 411.708 83.8638C424.145 74.1046 427.687 57.4981 424.144 42.7805C429.654 43.174 435.244 42.387 440.754 41.8361C445.398 41.3638 450.121 41.049 454.844 40.5768C455.946 50.0212 456.812 60.0166 452.797 69.0676Z" fill="#CEB06E"/>
<path d="M54.8087 237.336C57.8786 227.025 53.7856 216.951 54.5728 206.563C56.5407 180.512 81.4937 173.113 102.747 167.447C104.715 166.896 104.715 164.22 103.062 163.512C99.8343 155.956 93.0646 150.683 87.1609 145.016C80.47 138.563 74.0944 131.873 66.3802 126.6C65.9079 125.891 65.0421 125.34 63.94 125.655C47.1735 129.905 32.4534 139.979 26.7858 156.822C24.1882 164.535 23.8736 172.012 24.582 180.118C25.5266 191.215 29.8557 200.188 24.3456 211.442C19.7801 220.729 9.6256 226.002 1.59656 231.748C1.59656 231.748 1.59689 231.905 1.43946 231.984C0.573579 232.299 -0.135288 233.007 0.0221438 233.951C0.888021 241.192 4.43026 247.961 7.42147 254.493C9.70424 259.373 11.2002 266.141 16.6316 268.109C17.0252 268.266 17.4185 268.188 17.8121 268.109C18.3631 268.345 18.9144 268.424 19.6229 268.188C34.264 262.757 50.0069 253.155 54.7299 237.336H54.8087ZM18.9142 262.521C17.025 258.192 14.8996 254.021 12.9317 249.692C10.6489 244.655 8.5239 239.461 5.37526 234.896C19.859 230.567 32.4534 219.155 34.6574 203.493C36.0743 193.262 31.8239 183.188 31.9813 173.035C32.3749 151.234 47.5671 142.104 63.4678 131.558C68.8205 138.641 75.1963 144.701 81.4936 150.919C85.9804 155.326 90.2312 160.363 95.4265 163.826C77.3218 165.558 59.217 173.35 51.0305 190.586C47.7244 197.59 47.2521 203.965 47.567 211.521C48.1967 224.743 52.3685 232.928 42.529 246.544C36.7827 254.493 27.6517 258.9 18.9142 262.6V262.521Z" fill="#CEB06E"/>
<path d="M579.136 214.276C578.664 213.725 547.178 208.294 546.154 208.924C524.035 222.461 501.759 182.637 480.427 180.355C462.952 178.466 445.713 187.674 433.59 199.48C432.095 200.975 444.926 217.896 449.964 225.373C454.844 232.535 459.331 241.193 466.1 246.702C466.494 247.017 466.966 247.174 467.438 247.253C467.911 247.725 468.619 247.961 469.328 247.253C484.284 232.299 497.665 215.299 520.808 227.026C528.522 230.882 533.087 235.447 542.219 236.628C569.297 240.248 580.632 215.614 579.294 214.276H579.136ZM521.989 220.257C514.904 216.637 508.843 214.905 500.657 216.165C486.488 218.368 475.232 229.308 468.856 241.586C465.707 233.873 459.645 226.868 454.686 220.336C449.57 213.568 443.903 207.035 437.841 201.054C452.01 193.341 468.856 181.299 485.543 187.517C499.397 192.632 506.56 206.169 518.604 213.567C528.758 219.864 539.306 220.73 548.359 212.859C555.758 216.558 564.338 216.165 572.288 217.896C557.883 236.313 540.015 229.466 521.91 220.179L521.989 220.257Z" fill="#CEB06E"/>
<path d="M125.496 359.642C125.496 360.35 144.231 386.243 145.411 386.48C170.679 392.225 158.872 436.299 172.568 452.827C183.746 466.364 202.559 471.794 219.483 471.794C221.608 471.794 224.206 450.702 225.781 441.887C227.276 433.387 230.031 424.021 229.087 415.364C229.087 414.892 228.85 414.419 228.535 414.026C228.535 413.318 228.142 412.688 227.197 412.688C206.023 413.003 184.612 415.836 176.189 391.28C173.434 383.174 173.277 376.72 167.609 369.48C150.764 347.993 125.417 357.753 125.496 359.642ZM170.679 395.137C173.198 402.693 176.425 408.123 183.116 412.924C194.766 421.267 210.431 421.267 223.655 416.859C220.585 424.572 219.955 433.859 219.011 441.966C217.987 450.387 217.436 458.966 217.594 467.466C202.008 463.137 181.621 459.989 173.985 443.933C167.688 430.632 171.939 415.915 168.475 402.22C165.563 390.651 158.635 382.623 146.671 381.993C143.915 374.123 137.54 368.456 133.053 361.609C156.274 358.461 164.303 375.776 170.758 395.137H170.679Z" fill="#CEB06E"/>
<path d="M241.759 342.641C230.267 339.1 217.436 349.804 215.074 360.901C212.241 374.674 222.159 387.896 236.013 389.47C249.946 391.044 262.226 379.868 262.068 365.859C261.911 354.447 252.701 343.822 241.759 342.641ZM235.226 382.466C225.937 380.341 220.348 371.604 221.923 362.317C223.418 353.188 229.716 349.882 237.115 348.308C247.112 349.016 256.637 353.817 256.4 365.938C256.164 376.327 245.301 384.827 235.226 382.466Z" fill="#CEB06E"/>
<path d="M508.528 108.262C497.036 104.72 484.205 115.424 481.843 126.521C479.01 140.294 488.928 153.517 502.782 155.091C516.715 156.665 528.995 145.489 528.837 131.48C528.68 120.068 519.47 109.443 508.528 108.262ZM501.995 148.086C492.706 145.961 487.117 137.225 488.692 127.938C490.187 118.808 496.485 115.581 503.884 113.929C513.881 114.637 523.406 119.438 523.169 131.558C522.933 141.947 512.07 150.447 501.995 148.086Z" fill="#CEB06E"/>
<path d="M315.281 350.512C311.975 343.979 305.284 341.461 299.065 342.641C290.879 341.539 284.109 350.826 284.818 359.248C285.683 370.109 296.782 377.35 306.937 373.1C315.91 369.4 319.767 359.09 315.281 350.433V350.512ZM305.677 368.535C299.616 370.738 292.61 367.118 290.8 360.9C289.383 356.021 290.957 351.377 294.185 348.465C299.774 345.553 307.487 346.498 311.03 352.086C314.808 358.067 312.368 366.016 305.598 368.456L305.677 368.535Z" fill="#CEB06E"/>
<path d="M75.4325 58.5999C72.1264 52.0675 65.4356 49.549 59.217 50.7296C51.0305 49.6277 44.261 58.9147 44.9694 67.336C45.8353 78.1972 56.9342 85.4379 67.0886 81.1879C76.0622 77.4888 79.9193 67.1786 75.4325 58.5212V58.5999ZM65.7506 76.7018C59.6894 78.9055 52.6836 75.2851 50.8731 69.0675C49.4562 64.1879 51.0305 59.5444 54.2578 56.6323C59.8467 53.7203 67.561 54.6647 71.1032 60.2527C74.8816 66.2342 72.4413 74.1833 65.6718 76.6231L65.7506 76.7018Z" fill="#CEB06E"/>
<path d="M512.15 422.762C508.844 416.229 502.152 413.711 495.934 414.891C487.747 413.789 480.978 423.076 481.686 431.498C482.552 442.359 493.651 449.6 503.805 445.35C512.779 441.65 516.636 431.34 512.15 422.683V422.762ZM502.546 440.863C496.485 443.067 489.479 439.447 487.669 433.229C486.252 428.35 487.826 423.706 491.053 420.794C496.642 417.882 504.356 418.826 507.899 424.414C511.677 430.396 509.237 438.345 502.467 440.785L502.546 440.863Z" fill="#CEB06E"/>
</svg>
