<svg width="474" height="553" viewBox="0 0 474 553" fill="none" xmlns="http://www.w3.org/2000/svg">
<path d="M233.495 451.663C235.542 455.913 237.509 460.163 239.477 464.334C234.991 464.334 230.504 464.256 226.017 464.019C224.521 464.019 223.026 463.941 221.53 463.783C73.78 455.126 -14.3032 325.107 1.9123 204.455C14.743 109.223 83.4621 19.4222 184.14 6.43612C186.659 6.12131 186.974 9.26946 184.691 9.89909C71.4973 43.1908 6.32039 134.094 13.9558 247.112C21.0403 352.182 102.511 434.427 209.644 449.538C213.029 450.01 216.492 450.404 219.956 450.64C224.364 451.112 228.851 451.348 233.416 451.506L233.495 451.663Z" fill="#CEB06E"/>
<path d="M308.984 455.047C309.299 455.519 309.85 455.834 310.322 456.149C306.386 457.094 302.45 457.959 298.515 458.746C293.005 459.848 287.416 460.793 281.827 461.501C277.734 462.131 273.483 462.603 269.39 462.996C267.265 458.904 265.06 454.811 262.935 450.561C267.107 450.246 271.2 449.695 275.451 449.066C281.827 448.121 288.282 446.941 294.658 445.445C296.389 445.052 298.121 444.658 299.853 444.186C301.427 443.793 303.002 443.399 304.576 442.927C304.733 442.927 304.891 442.927 305.048 442.848C305.993 448.751 307.252 452.922 308.984 454.89V455.047Z" fill="#CEB06E"/>
<path d="M473.264 249.001C470.194 355.172 413.283 420.182 336.613 448.2C333.622 449.302 330.709 450.325 327.718 451.27C328.19 448.436 328.427 442.927 328.584 435.293C331.418 434.27 334.252 433.089 337.007 431.908C404.466 403.024 461.929 341.084 461.929 235.621C461.929 103.478 348.342 -11.7443 207.125 9.50574C203.898 9.97796 202.481 5.25573 205.708 4.5474C315.675 -20.4804 478.774 57.3576 473.264 249.08V249.001Z" fill="#CEB06E"/>
<path d="M302.608 386.182C298.83 387.598 294.894 388.936 290.879 389.959C278.599 393.344 265.69 395.154 252.387 395.075C250.183 395.075 248.058 395.075 245.932 394.918C241.524 394.76 237.195 394.445 232.865 393.895C234.676 397.279 236.565 400.821 238.454 404.441C242.783 404.756 247.192 404.913 251.442 404.756C264.982 404.677 278.363 402.946 291.194 399.64C295.13 398.617 298.908 397.594 302.686 396.256C302.686 392.871 302.686 389.487 302.686 386.024L302.608 386.182ZM408.402 195.797C392.423 135.274 356.135 102.297 319.846 84.7464C315.36 82.5427 310.873 80.5751 306.386 78.9224C306.937 82.464 307.488 86.2418 308.039 90.3344C312.762 92.6168 317.249 95.1353 321.578 97.8113C367.785 126.223 393.053 175.098 398.878 203.274C412.495 269.7 384.866 333.45 336.456 368.237C333.543 370.284 330.631 372.251 327.561 374.061C327.718 377.996 327.797 381.853 327.876 385.552C330.867 383.978 333.779 382.246 336.692 380.436C343.304 376.265 349.523 371.7 355.426 366.584C414.621 315.191 422.099 247.506 408.481 195.797H408.402ZM252.387 395.075C250.183 395.075 248.058 395.075 245.932 394.918C241.524 394.76 237.195 394.445 232.865 393.895C234.676 397.279 236.565 400.821 238.454 404.441C242.783 404.756 247.192 404.913 251.442 404.756C264.982 404.677 278.363 402.946 291.194 399.64C291.115 396.413 290.958 393.186 290.879 389.881C278.599 393.265 265.69 395.075 252.387 394.996V395.075ZM191.067 384.057C128.409 360.839 83.7771 302.362 85.8237 226.256C86.0599 219.094 86.847 211.853 88.1851 204.533C89.4446 197.608 91.2551 190.682 93.6166 183.834C112.587 127.404 165.17 75.3807 241.603 75.3807C254.198 75.3807 266.005 76.7974 277.104 79.3946C280.252 80.1029 283.322 80.89 286.314 81.8344C287.022 78.6863 287.73 75.6955 288.36 72.9409C285.369 72.0751 282.378 71.3668 279.544 70.7372C263.801 67.1955 249.711 66.015 239.714 66.1724C184.534 66.5659 116.208 91.7511 85.745 173.209C59.5325 243.571 78.818 321.251 140.61 367.765C158.085 380.908 176.977 390.432 196.341 396.571C200.671 397.987 205.078 399.168 209.408 400.112C207.519 395.941 205.63 391.927 203.898 388.228C199.568 387.047 195.318 385.631 191.067 384.057ZM290.879 389.959C278.599 393.344 265.69 395.154 252.387 395.075C250.183 395.075 248.058 395.075 245.932 394.918C241.524 394.76 237.195 394.445 232.865 393.895C234.676 397.279 236.565 400.821 238.454 404.441C242.783 404.756 247.192 404.913 251.442 404.756C264.982 404.677 278.363 402.946 291.194 399.64C291.115 396.413 290.958 393.186 290.879 389.881V389.959Z" fill="#CEB06E"/>
<path d="M302.686 396.413C302.686 393.029 302.686 389.645 302.686 386.182C298.908 387.598 294.972 388.936 290.958 389.959C291.037 393.265 291.194 396.57 291.273 399.719C291.824 417.899 292.768 434.191 294.736 445.524C296.468 445.131 298.2 444.737 299.931 444.265C301.506 443.871 303.08 443.478 304.654 443.006C304.812 443.006 304.969 443.006 305.127 442.927C303.395 431.987 302.844 415.223 302.765 396.334L302.686 396.413ZM321.578 97.8112C317.249 95.1352 312.762 92.6167 308.039 90.3343C316.54 154.871 324.648 288.038 327.482 373.982C330.552 372.172 333.464 370.205 336.377 368.158C334.724 285.52 329.686 164.788 321.578 97.8112ZM302.608 386.182C302.687 337.07 304.733 278.515 297.176 267.732C291.981 260.334 284.346 258.603 275.766 246.246C268.917 236.33 275.293 133.464 286.314 81.913C283.322 80.9686 280.252 80.1028 277.104 79.4732C272.932 95.3713 269.704 113.867 267.815 130.08C256.087 228.853 252.623 249.709 286.471 271.589C291.588 274.973 289.777 337.543 290.958 390.038C291.037 393.344 291.194 396.649 291.273 399.797C291.824 417.978 292.768 434.269 294.736 445.603C296.468 445.209 298.2 444.816 299.931 444.344C301.506 443.95 303.08 443.557 304.654 443.084C304.812 443.084 304.969 443.084 305.127 443.006C303.395 432.066 302.844 415.302 302.765 396.413C302.765 393.029 302.765 389.645 302.765 386.182H302.608ZM336.613 380.436C336.613 376.501 336.456 372.408 336.377 368.158C334.724 285.52 329.686 164.788 321.578 97.8112C321.027 93.2464 320.476 88.8389 319.925 84.7463C319.453 81.4408 318.902 78.2926 318.43 75.3806C316.54 64.2834 314.651 40.0426 298.042 41.7741C290.958 42.4824 284.739 54.4454 279.623 70.8158C278.757 73.5704 277.97 76.4825 277.183 79.3945C273.011 95.2927 269.783 113.788 267.894 130.001C256.165 228.774 252.702 249.631 286.55 271.51C291.666 274.895 289.856 337.464 291.037 389.959C291.115 393.265 291.273 396.57 291.351 399.719C291.902 417.899 292.847 434.191 294.815 445.524C295.838 451.427 297.098 455.992 298.672 458.746C298.987 459.219 299.223 459.612 299.538 460.006C311.503 475.117 332.441 470.001 336.062 455.441C336.377 454.339 336.535 451.82 336.771 448.2C337.007 444.107 337.085 438.598 337.164 431.908C337.243 418.844 337.164 401.135 336.849 380.436H336.613ZM327.718 451.269C327.482 452.293 327.325 452.922 327.088 453.316C323.468 459.77 314.651 459.297 310.322 456.228C309.85 455.913 309.299 455.52 308.984 455.126C307.252 453.158 305.993 448.987 305.048 443.084C303.316 432.144 302.765 415.381 302.686 396.492C302.686 393.107 302.686 389.723 302.686 386.26C302.765 337.149 304.812 278.594 297.255 267.811C292.06 260.413 284.424 258.682 275.844 246.325C268.996 236.408 275.372 133.543 286.392 81.9917C287.101 78.8436 287.809 75.8528 288.439 73.0982C291.666 60.5843 295.287 52.7926 298.987 52.9501C301.427 53.0288 303.946 62.7093 306.386 79.0797C306.937 82.6214 307.488 86.3991 308.039 90.4917C316.54 155.029 324.648 288.195 327.482 374.14C327.639 378.075 327.718 381.932 327.797 385.631C328.427 406.251 328.663 423.408 328.505 435.371C328.427 443.006 328.112 448.436 327.64 451.348L327.718 451.269ZM302.686 396.413C302.686 393.029 302.686 389.645 302.686 386.182C298.908 387.598 294.972 388.936 290.958 389.959C291.037 393.265 291.194 396.57 291.273 399.719C291.824 417.899 292.768 434.191 294.736 445.524C296.468 445.131 298.2 444.737 299.931 444.265C301.506 443.871 303.08 443.478 304.654 443.006C304.812 443.006 304.969 443.006 305.127 442.927C303.395 431.987 302.844 415.223 302.765 396.334L302.686 396.413ZM302.686 396.413C302.686 393.029 302.686 389.645 302.686 386.182C298.908 387.598 294.972 388.936 290.958 389.959C291.037 393.265 291.194 396.57 291.273 399.719C291.824 417.899 292.768 434.191 294.736 445.524C296.468 445.131 298.2 444.737 299.931 444.265C301.506 443.871 303.08 443.478 304.654 443.006C304.812 443.006 304.969 443.006 305.127 442.927C303.395 431.987 302.844 415.223 302.765 396.334L302.686 396.413Z" fill="#CEB06E"/>
<path d="M251.442 404.834C247.113 404.913 242.783 404.834 238.454 404.52C246.247 419.237 254.748 435.135 262.935 450.719C267.107 450.404 271.2 449.853 275.451 449.223C267.658 434.27 259.314 419.001 251.442 404.913V404.834ZM251.442 404.834C247.113 404.913 242.783 404.834 238.454 404.52C246.247 419.237 254.748 435.135 262.935 450.719C267.107 450.404 271.2 449.853 275.451 449.223C267.658 434.27 259.314 419.001 251.442 404.913V404.834ZM310.243 531.862C309.141 518.955 297.098 491.566 281.827 461.58C279.78 457.487 277.655 453.316 275.451 449.145C267.658 434.191 259.314 418.922 251.442 404.834C249.553 401.45 247.664 398.145 245.932 394.918C229.953 366.584 216.886 344.705 215.548 342.265C210.431 332.82 205.787 326.367 218.303 315.348C235.699 300.158 172.254 189.265 162.021 170.455C153.283 154.32 135.887 161.64 142.578 178.64C147.773 191.941 172.018 247.27 174.379 251.677C176.741 256.163 172.884 260.02 169.814 254.668C158.951 235.779 145.805 203.195 133.919 178.325C128.33 166.677 110.226 171.793 115.027 186.353C123.056 210.436 136.596 239.32 145.018 260.885C148.875 270.802 142.972 270.881 139.744 264.427C136.517 257.816 113.217 206.186 106.369 192.885C102.826 185.959 97.8673 183.441 93.6953 183.913C88.7362 184.228 84.8791 188.871 85.9811 195.246C86.2959 197.45 87.0832 200.598 88.2639 204.612C98.2609 239.871 135.572 337.7 155.881 340.927C171.86 343.524 173.199 345.807 180.283 359.737C182.408 363.908 186.187 372.645 191.146 384.135C192.799 387.992 194.531 392.163 196.42 396.649C203.189 412.547 211.297 431.672 220.035 450.955C221.924 455.362 223.97 459.77 226.017 464.177C244.122 503.529 263.643 540.52 276.71 548.705C292.69 558.7 311.739 548.39 310.322 532.02L310.243 531.862ZM280.646 538.158C272.696 531.469 256.323 499.594 239.399 464.413C237.431 460.242 235.463 455.992 233.416 451.742C224.994 433.876 216.571 415.695 209.408 400.191C207.519 396.02 205.63 392.006 203.898 388.307C198.939 377.603 194.688 368.945 191.776 363.358C186.265 352.89 182.487 343.445 172.805 336.441C167.295 332.506 155.33 337.936 138.642 308.58C128.252 290.242 97.3162 213.663 93.0655 198.395C90.7827 190.052 96.8439 188.635 100.465 194.381C113.689 216.024 132.187 268.362 141.161 274.029C147.301 277.885 153.756 274.186 153.441 269.307C152.732 257.58 125.969 200.52 121.325 189.501C116.759 178.64 125.418 172.658 131.322 183.756C137.383 195.168 160.998 253.566 169.184 262.302C173.199 266.631 182.881 261.121 180.991 255.219C175.954 239.084 152.496 193.279 146.829 175.57C143.995 166.677 152.417 163.529 156.353 170.455C169.735 193.908 201.379 262.774 212.006 294.885C217.437 311.492 208.07 315.27 204.213 320.07C197.994 327.705 206.259 341.635 210.903 351.552C214.918 359.973 223.026 375.557 232.865 394.052C234.676 397.436 236.565 400.978 238.454 404.598C246.247 419.316 254.748 435.214 262.935 450.797C265.06 454.969 267.264 459.14 269.39 463.233C285.448 494.478 298.593 521.867 299.459 530.367C300.404 539.575 289.541 545.714 280.646 538.316V538.158ZM251.442 404.834C247.113 404.913 242.783 404.834 238.454 404.52C246.247 419.237 254.748 435.135 262.935 450.719C267.107 450.404 271.2 449.853 275.451 449.223C267.658 434.27 259.314 419.001 251.442 404.913V404.834ZM251.442 404.834C247.113 404.913 242.783 404.834 238.454 404.52C246.247 419.237 254.748 435.135 262.935 450.719C267.107 450.404 271.2 449.853 275.451 449.223C267.658 434.27 259.314 419.001 251.442 404.913V404.834Z" fill="#CEB06E"/>
<path d="M138.878 43.7416C81.6516 71.4453 41.585 124.256 30.3286 186.589C30.0925 187.848 31.8243 188.399 32.2966 187.14C51.2671 128.427 88.5787 79.5518 140.216 45.9453C141.555 45.0796 140.374 43.112 138.957 43.8203L138.878 43.7416Z" fill="#CEB06E"/>
<path d="M54.1012 156.524C33.3988 192.02 31.7457 233.339 38.9876 272.848C39.2237 274.186 41.5852 273.872 41.4277 272.534C36.7835 232.631 45.4423 195.64 57.171 157.862C57.722 156.052 55.0458 154.95 54.1012 156.603V156.524Z" fill="#CEB06E"/>
<path d="M450.909 235.149C450.909 233.339 448.232 233.418 448.154 235.149C444.69 280.325 429.183 318.418 409.347 358.556C408.481 360.367 410.842 362.649 412.338 360.839C441.069 325.816 451.853 279.459 450.909 235.149Z" fill="#CEB06E"/>
</svg>
