<svg width="559" height="378" viewBox="0 0 559 378" fill="none" xmlns="http://www.w3.org/2000/svg">
<path d="M317.166 160.634C314.175 144.421 310.082 122.069 305.831 99.2454C304.021 110.185 302.132 121.204 299.928 132.144C301.423 140.25 302.919 148.356 304.414 156.306C312.522 200.38 320.945 244.296 330.548 288.056C334.799 289.157 339.05 290.259 343.379 291.44C334.012 247.917 325.195 204.394 317.166 160.634ZM317.166 160.634C314.175 144.421 310.082 122.069 305.831 99.2454C304.021 110.185 302.132 121.204 299.928 132.144C301.423 140.25 302.919 148.356 304.414 156.306C312.522 200.38 320.945 244.296 330.548 288.056C334.799 289.157 339.05 290.259 343.379 291.44C334.012 247.917 325.195 204.394 317.166 160.634ZM332.516 239.889C330.469 230.917 328.58 221.944 326.691 212.972C325.589 208.329 324.566 203.685 323.7 199.12C314.333 155.597 325.195 204.315 317.166 160.556C314.175 144.343 310.082 121.991 305.831 99.1667C305.044 95.4676 304.336 91.6898 303.706 87.9907C302.289 80.5926 300.951 73.1944 299.534 66.1111C298.904 63.1991 298.353 60.3657 297.802 57.5324C291.426 25.5 285.837 0 283.87 0C191.85 9.60185 88.3388 26.4444 0.0980642 54.5417C-1.94855 55.25 28.4358 184.324 54.176 291.597C54.4908 292.778 55.1206 293.565 55.9077 294.037C55.9077 294.509 113.764 287.505 180.201 277.037C183.428 276.486 186.655 275.935 189.961 275.384C239.789 267.435 293.001 257.676 329.131 247.917C331.729 247.208 332.674 245.083 332.437 242.958C332.752 242.014 332.91 240.991 332.595 239.889H332.516ZM192.402 264.995C189.174 265.546 185.947 266.097 182.641 266.569C118.251 276.644 61.5753 283.648 61.4966 283.412C35.8352 176.218 37.6457 164.333 6.78898 58.5555C50.6338 52.6528 93.849 41.5555 137.3 33.3704C185.238 24.3981 229.477 17.787 277.257 8.10647C279.776 23.6111 282.61 39.5093 285.523 55.4074C285.916 57.5324 286.31 59.7361 286.703 61.8611C289.458 76.8935 292.371 92.162 295.205 107.194C296.779 115.537 298.275 123.801 299.928 132.065C301.423 140.171 302.919 148.278 304.414 156.227C312.522 200.301 301.266 151.977 310.869 195.736C311.892 200.222 312.837 204.708 313.86 209.273C316.064 219.583 318.505 229.894 320.945 240.204C287.018 248.94 238.45 257.676 192.323 264.995H192.402ZM317.166 160.634C314.175 144.421 310.082 122.069 305.831 99.2454C304.021 110.185 302.132 121.204 299.928 132.144C301.423 140.25 302.919 148.356 304.414 156.306C312.522 200.38 320.945 244.296 330.548 288.056C334.799 289.157 339.05 290.259 343.379 291.44C334.012 247.917 325.195 204.394 317.166 160.634Z" fill="#CEB06E"/>
<path d="M289.616 179.838C288.041 171.653 286.388 162.523 284.421 153.079C281.508 138.204 278.123 122.463 274.896 107.509C273.4 100.82 272.062 94.2872 270.567 88.0696C263.954 58.477 258.208 35.5742 257.106 35.5742C186.104 46.1205 103.295 58.0048 33.395 74.3751C30.7973 75.0048 79.1291 263.5 82.4352 263.028C135.254 255.787 183.9 246.815 232.704 235.482C236.482 234.695 240.34 233.75 244.197 232.884C252.147 230.917 260.176 229.028 268.205 226.982L278.832 224.227C283.87 222.889 289.065 221.63 294.103 220.213C295.913 219.741 293.552 202.977 289.38 179.917L289.616 179.838ZM281.744 212.894C278.123 213.759 274.502 214.546 270.803 215.176C263.167 216.908 255.532 218.482 247.739 220.056C243.882 220.921 239.946 221.708 236.089 222.417C230.972 223.44 225.777 224.463 220.661 225.565C232.862 211.398 242.622 193.769 251.124 177.871C252.462 175.431 248.92 172.283 247.03 174.722C233.885 191.486 218.535 209.116 208.46 228.005C167.842 236.19 127.303 244.454 87.5517 254.764C87.5517 254.764 87.5517 254.607 87.5517 254.528C85.0328 244.375 82.5139 234.144 80.0737 223.912C92.2747 210.769 101.799 194.871 111.56 180.074C122.108 164.097 133.522 147.963 140.685 130.097C141.866 127.107 137.458 124.824 135.411 127.028C123.21 140.329 114 156.463 104.161 171.653C95.2658 185.347 85.2689 199.042 77.5547 213.602C66.8493 168.347 56.3014 122.935 41.8176 78.8613C111.954 68.0788 182.168 54.7779 251.99 42.0279C253.721 53.8335 258.917 80.514 264.978 109.634C266.473 116.796 267.969 124.195 269.543 131.514C272.849 147.176 276.234 162.681 279.304 176.139C281.351 185.426 283.161 193.69 284.735 200.458C285.759 204.866 286.625 208.644 287.254 211.556C285.365 211.949 283.633 212.343 281.744 212.736V212.894Z" fill="#CEB06E"/>
<path d="M221.605 179.995C238.686 163.31 254.98 145.444 268.205 125.454C268.598 127.5 269.071 129.546 269.464 131.592C270.409 127.579 271.275 123.486 272.219 119.393C272.613 118.764 273.085 118.134 273.479 117.426C274.187 116.324 273.951 115.065 273.4 114.12C273.872 111.917 274.423 109.713 274.896 107.509C273.4 100.819 272.062 94.2869 270.566 88.0693C268.835 94.523 266.945 101.842 264.899 109.713C265.292 111.838 265.765 113.963 266.237 116.088C249.392 135.842 234.987 157.722 220.66 179.287C220.267 179.838 221.133 180.467 221.605 179.995Z" fill="#CEB06E"/>
<path d="M558.038 134.347C477.117 103.259 384.311 73.3516 297.802 57.5322C293.709 56.7452 289.616 55.9582 285.601 55.4072C285.995 57.5322 286.388 59.7359 286.782 61.8609C290.954 63.3563 295.205 64.6942 299.534 66.1109C336.609 77.9952 374.865 86.8887 412.255 97.8285C459.091 111.523 501.519 125.611 548.513 138.597C533.714 185.583 519.545 235.796 505.534 283.018C488.531 340.472 498.922 308.44 484.91 366.68C400.133 347.87 234.042 288.134 234.042 287.662C234.829 284.435 235.616 281.208 236.404 277.903C237.191 274.44 238.057 270.977 238.922 267.435C235.695 267.986 232.468 268.537 229.162 269.009C228.217 272.629 227.351 276.092 226.643 279.555C225.619 283.727 224.596 287.819 223.73 291.676C223.415 292.856 223.73 293.801 224.124 294.588C224.124 295.532 400.212 358.81 488.531 377.227C491.129 377.856 492.939 376.204 493.726 374.315C494.435 373.606 494.986 372.819 495.301 371.717C509.863 315.129 498.292 348.736 514.901 292.699C529.463 243.352 561.658 135.764 558.038 134.347Z" fill="#CEB06E"/>
<path d="M244.275 232.884C245.456 228.634 246.479 224.305 247.66 220.055C243.803 220.921 239.867 221.708 236.01 222.416C234.987 226.745 233.884 231.152 232.782 235.481C236.561 234.694 240.418 233.75 244.275 232.884Z" fill="#CEB06E"/>
<path d="M518.128 154.023C450.826 131.514 372.819 105.148 303.706 88.0692C302.761 87.8331 301.895 87.597 301.029 87.3608C300.478 87.3608 298.353 94.9951 295.283 107.273C296.858 115.615 298.353 123.879 300.006 132.143C302.132 121.203 304.099 110.185 305.91 99.2451C306.146 97.8284 306.304 96.5692 306.54 95.1525C342.198 106.879 378.171 117.898 414.302 128.759C396.355 133.481 379.037 140.014 362.507 148.671C361.877 148.986 362.349 149.93 362.979 149.773C383.76 143.634 404.62 137.653 425.558 132.143C431.619 133.953 437.759 135.842 443.82 137.653C406.588 150.403 368.883 162.602 333.224 179.444C332.673 179.68 333.067 180.546 333.618 180.467C375.416 170.865 415.798 155.44 456.258 141.43C474.362 146.782 492.467 152.134 510.493 157.565C506.793 168.426 499.788 193.06 492.31 220.528C452.4 238.078 412.177 254.842 372.976 273.81C372.189 274.203 372.74 275.463 373.606 275.227C413.908 263.106 452.243 246.736 490.184 228.713C479.951 266.727 469.246 307.967 465.153 324.81C435.24 317.097 405.407 308.676 375.495 300.412C396.984 293.486 419.104 284.356 438.232 274.282C440.121 273.259 438.783 270.268 436.815 270.898C413.515 277.981 388.877 287.504 366.206 297.893C358.65 295.768 351.093 293.722 343.536 291.676C339.207 290.495 334.956 289.393 330.705 288.291C331.729 292.778 332.673 297.264 333.697 301.828C338.026 303.166 342.277 304.347 346.527 305.527C386.437 317.097 426.031 326.856 467.593 335.671C473.654 337.009 521.041 155.282 518.207 154.259L518.128 154.023Z" fill="#CEB06E"/>
<path d="M279.225 176.217C281.272 185.504 283.082 193.768 284.657 200.537C286.388 193.69 287.963 186.764 289.616 179.838C288.041 171.653 286.388 162.523 284.42 153.079C282.689 160.555 280.957 168.347 279.225 176.217Z" fill="#CEB06E"/>
<path d="M268.362 226.981L278.989 224.226C279.855 220.449 280.799 216.671 281.665 212.893C278.044 213.759 274.423 214.546 270.724 215.175C269.858 219.189 269.071 223.125 268.362 226.981Z" fill="#CEB06E"/>
<path d="M187.678 83.0322C167.685 114.592 144.778 147.727 129.271 181.727C128.878 182.671 129.98 183.773 130.767 182.907C155.72 155.361 175.635 118.842 192.716 86.023C194.448 82.6387 189.646 79.8054 187.6 83.0322H187.678Z" fill="#CEB06E"/>
<path d="M205.311 235.639C185.868 236.269 166.504 240.204 147.455 243.588C146.589 243.746 146.746 245.241 147.691 245.162C166.976 243.509 186.734 242.25 205.626 237.764C206.806 237.449 206.57 235.56 205.311 235.639Z" fill="#CEB06E"/>
<path d="M163.906 256.495C134.466 260.903 103.531 263.815 74.7995 271.37C73.5401 271.685 73.7762 273.653 75.1143 273.653C104.869 272.944 135.883 266.097 164.929 260.037C167.212 259.565 166.189 256.18 163.985 256.574L163.906 256.495Z" fill="#CEB06E"/>
<path d="M228.847 245.319C220.975 246.264 187.285 251.537 178.784 254.685C177.367 255.236 177.524 257.518 179.177 257.44C195.944 256.023 213.97 252.245 229.162 247.523C230.264 247.208 230.106 245.241 228.847 245.398V245.319Z" fill="#CEB06E"/>
</svg>
