<svg width="553" height="465" viewBox="0 0 553 465" fill="none" xmlns="http://www.w3.org/2000/svg">
<path d="M272.549 391.401C270.66 393.841 268.534 396.359 266.33 398.641C257.829 407.771 247.832 415.405 236.103 421.308C175.02 451.845 90.3998 440.197 54.584 378.808C18.8469 317.655 23.9634 244.146 81.2688 198.813C82.6856 197.711 84.4961 199.442 83.2367 200.78C38.8408 249.891 27.8992 310.336 60.96 369.285C93.5484 427.447 173.445 442.558 231.695 413.753C242.952 408.165 252.634 400.609 260.663 391.794C262.946 389.354 265.071 386.757 266.96 384.16C271.211 378.493 274.832 372.433 277.98 366.058C278.531 365.035 279.004 363.854 279.555 362.831C296.4 325.604 295.298 278.618 278.138 242.179C275.776 237.22 273.179 232.655 270.423 228.327C268.692 225.572 266.724 222.896 264.756 220.456C260.269 214.632 255.31 209.438 249.957 204.952C247.596 202.984 245.234 201.095 242.794 199.364C207.451 174.1 158.096 171.739 110.945 182.678C108.19 183.308 108.347 180.711 111.102 179.924C157.781 166.859 209.34 167.331 247.124 192.438C249.642 194.091 252.24 195.822 254.602 197.79C259.954 202.04 265.071 206.841 269.636 212.271C271.683 214.632 273.572 216.993 275.383 219.591C279.397 225.1 283.018 231.081 286.167 237.692C309.23 285.623 305.373 349.766 272.628 391.401H272.549Z" fill="#CEB06E"/>
<path d="M324.58 250.993C318.126 230.294 307.892 211.877 294.747 196.294C292.858 193.933 290.811 191.651 288.764 189.368C283.805 184.252 278.689 179.452 273.257 174.965C270.817 172.998 268.298 171.109 265.779 169.22C227.445 141.516 177.539 131.049 130.309 143.877C49.2315 160.72 -10.4353 233.127 1.52951 320.646C7.59065 365.428 28.9227 410.762 68.1233 435.553C118.265 467.35 165.653 467.901 211.701 459.558C242.873 453.813 268.613 439.252 288.292 419.026C290.418 416.822 292.464 414.618 294.432 412.336C299.155 406.827 303.484 401.002 307.341 394.864C307.971 393.919 308.522 393.053 309.073 392.109C333.475 351.655 339.772 299.396 324.659 250.836L324.58 250.993ZM287.505 406.827C285.458 409.188 283.333 411.313 281.129 413.438C262.237 432.169 237.835 445.627 209.261 450.743C166.361 458.456 122.437 456.331 77.7267 430.202C37.8963 406.984 16.9578 362.831 11.2116 318.836C2.08049 249.577 40.2578 187.715 100.239 163.553C164.629 137.502 219.258 147.104 259.167 176.461C261.686 178.35 264.126 180.239 266.488 182.285C271.762 186.692 276.878 191.493 281.523 196.688C283.569 198.97 285.616 201.252 287.505 203.614C299.47 218.252 309.231 235.095 316.473 253.276C336.781 304.984 324.029 365.979 287.505 406.827Z" fill="#CEB06E"/>
<path d="M282.152 367.16C281.601 366.137 280.971 365.192 280.499 364.091C255.782 319.151 245.234 265.239 267.59 221.952C269.006 219.197 270.581 216.521 272.313 213.924C274.28 216.206 276.17 218.567 277.98 221.086C276.17 223.919 274.595 226.753 273.178 229.665C253.578 268.938 261.135 317.34 282.073 360.942C282.939 362.91 283.962 364.799 284.907 366.688C286.167 369.206 283.569 369.678 282.231 367.16H282.152Z" fill="#CEB06E"/>
<path d="M483.98 373.692C435.097 421.387 365.276 434.215 309.231 392.424C308.522 391.951 307.892 391.4 307.263 390.928C305.924 389.905 307.026 387.78 308.679 388.567C309.467 388.961 310.175 389.433 310.962 389.748C367.244 418.947 426.124 414.461 473.511 369.914C520.898 325.368 516.49 246.113 475.4 197.711C432.657 147.498 349.927 154.975 301.91 194.326C300.257 195.743 298.682 197.081 297.108 198.419C294.589 200.701 292.228 203.141 290.024 205.502C288.135 203.22 286.167 200.937 284.199 198.734C286.403 196.215 288.764 193.933 291.283 191.65C292.7 190.234 294.274 188.974 295.849 187.637C347.486 144.743 435.806 138.132 481.619 191.65C524.913 242.257 533.807 325.211 484.138 373.613L483.98 373.692Z" fill="#CEB06E"/>
<path d="M530.344 205.03C486.42 120.109 385.192 96.4977 299.155 147.97C287.741 154.817 277.508 162.924 268.613 171.975C266.33 174.257 264.205 176.618 262.158 178.979C264.598 180.868 266.96 182.678 269.321 184.646C271.368 182.206 273.572 179.845 275.934 177.563C284.041 169.299 293.251 161.822 303.248 155.211C382.987 102.951 485.082 134.59 524.598 216.127C584.422 339.692 477.762 412.887 437.459 428.706C387.396 448.303 334.813 439.174 296.636 409.266C294.274 407.535 292.07 405.646 289.866 403.678C287.898 405.961 285.773 408.086 283.648 410.132C285.931 412.1 288.213 413.988 290.575 415.799C331.665 447.988 387.159 459.086 441.473 437.442C482.406 421.151 601.818 342.919 530.265 204.873L530.344 205.03ZM269.321 381.248C223.509 318.127 224.453 254.692 253.185 206.84C254.601 204.401 256.097 202.118 257.671 199.836C255.31 197.868 252.87 196.215 250.351 194.563C248.934 196.845 247.438 199.127 246.179 201.41C218.313 248.396 216.267 308.447 243.66 357.401C249.249 368.891 256.018 379.595 263.733 389.276C265.543 391.558 267.432 393.762 269.321 395.965C271.447 393.683 273.493 391.243 275.383 388.882C273.493 386.6 271.604 384.239 269.872 381.877C269.636 381.641 269.557 381.484 269.4 381.248H269.321Z" fill="#CEB06E"/>
<path d="M244.054 87.6043C238.307 75.0117 231.617 63.9145 221.226 54.9423C220.754 54.5488 218.943 55.6506 219.258 56.2803C224.217 67.2988 230.593 77.3728 236.261 87.9978C223.902 97.521 176.279 134.354 166.046 141.359C155.97 131.442 110.945 96.1043 98.7439 87.7617C107.009 76.5071 114.172 66.9053 122.201 54.8636C122.595 54.3127 196.667 55.9654 213.118 54.8636C216.11 54.6275 216.424 50.3775 213.354 50.0627C196.982 48.5673 134.638 46.5997 121.099 51.4793C120.863 51.4793 99.6097 74.2247 89.7702 86.9747C87.6449 89.7293 165.574 147.104 166.046 147.026C178.956 144.114 245.471 90.6738 244.054 87.6043Z" fill="#CEB06E"/>
<path d="M203.122 86.424C188.795 83.512 173.603 84.8499 159.041 84.6925C141.959 84.4564 124.957 83.9842 107.875 85.4796C106.537 85.637 106.38 87.4472 107.796 87.6046C124.72 90.0444 141.723 90.2805 158.804 90.5166C173.446 90.674 188.638 92.1694 203.043 89.1786C204.302 88.9425 204.539 86.7388 203.122 86.5027V86.424Z" fill="#CEB06E"/>
<path d="M226.894 86.0302C223.115 84.8496 218.629 86.0302 214.85 86.8173C214.142 86.9747 214.378 87.8404 214.929 87.9978C218.629 88.6274 223.116 89.808 226.736 88.6274C227.917 88.2339 228.153 86.5024 226.815 86.1089L226.894 86.0302Z" fill="#CEB06E"/>
<path d="M145.344 57.7756C140.779 65.095 137.63 70.4468 134.088 78.3959C133.143 80.5996 135.505 80.8358 136.764 78.9469C141.644 71.3913 144.557 66.9052 146.918 58.3265C147.155 57.382 145.816 57.0672 145.344 57.8543V57.7756Z" fill="#CEB06E"/>
<path d="M195.801 67.4563C194.227 63.836 192.416 60.0582 189.267 57.6184C188.953 57.3823 188.559 57.6184 188.559 57.9332C188.638 62.0258 190.606 65.8036 192.259 69.4239C193.912 73.123 195.092 77.5304 197.611 80.7573C198.399 81.7017 200.13 81.3869 200.052 79.9702C199.815 75.7202 197.533 71.3128 195.801 67.4563Z" fill="#CEB06E"/>
<path d="M161.402 127.743C158.175 121.211 153.215 115.151 149.122 109.169C145.265 103.502 141.093 98.308 136.134 93.507C135.504 92.9561 134.56 93.5071 134.953 94.3728C138.023 100.512 141.723 106.021 145.895 111.451C150.382 117.276 154.711 123.729 159.985 128.845C160.693 129.553 161.953 128.766 161.481 127.822L161.402 127.743Z" fill="#CEB06E"/>
<path d="M195.88 94.294C190.999 98.1505 188.008 104.604 184.702 109.799C180.766 115.859 177.067 122.076 173.367 128.294C173.052 128.845 173.761 129.317 174.154 128.845C178.877 123.257 183.285 117.669 187.457 111.688C190.921 106.572 195.565 101.063 196.824 95.0024C196.982 94.4514 196.352 93.9792 195.88 94.3728V94.294Z" fill="#CEB06E"/>
<path d="M116.77 32.984C110.866 21.4933 102.916 9.53032 92.2894 2.8405C91.0299 2.05347 89.3769 3.86366 89.9279 5.04421C94.8083 16.1414 103.782 27.947 113.07 36.3683C115.826 38.8868 118.659 36.5257 116.77 32.984Z" fill="#CEB06E"/>
<path d="M252.24 2.52559C245.707 6.933 241.535 13.9376 236.969 20.2339C231.931 27.2385 227.523 33.8497 224.06 41.7987C222.958 44.2386 226.343 45.5765 228.074 44.2386C234.608 39.0441 239.488 33.22 244.447 26.5302C249.092 20.2339 254.759 13.7802 256.648 5.98854C257.199 3.62743 254.68 0.872811 252.319 2.44689L252.24 2.52559Z" fill="#CEB06E"/>
<path d="M217.054 1.18777C212.882 9.13685 210.049 21.4933 212.174 30.3868C212.41 31.2526 213.591 31.4887 214.063 30.7017C216.503 26.5304 217.527 21.8081 218.629 17.0859C219.809 12.3637 221.305 7.40537 221.62 2.52574C221.777 0.164624 218.156 -1.01593 217.054 1.10907V1.18777Z" fill="#CEB06E"/>
<path d="M90.7937 102.716C83.3944 103.267 76.7035 105.706 69.8552 108.225C63.7941 110.429 56.8671 112.632 52.0654 116.961C50.5698 118.299 51.5931 120.817 53.561 120.896C60.1731 121.132 67.0214 118.142 73.1613 115.938C79.6947 113.577 86.2281 111.294 91.8957 107.202C93.5487 106.021 93.47 102.48 90.7937 102.637V102.716Z" fill="#CEB06E"/>
<path d="M99.6098 119.873C97.6419 121.447 95.2805 122.549 93.2339 124.202C91.266 125.776 89.298 127.429 87.4876 129.16C84.2602 132.23 80.4818 135.22 78.7501 139.47C78.0416 141.28 80.0095 143.248 81.82 142.776C86.3855 141.438 89.9277 137.503 93.3125 134.276C95.123 132.544 96.7761 130.577 98.4291 128.609C100.082 126.642 101.105 124.359 102.68 122.392C104.175 120.503 101.263 118.614 99.6098 119.873Z" fill="#CEB06E"/>
<path d="M90.951 64.7016C86.3068 61.16 81.1902 58.8775 75.9162 56.5164C70.721 54.1553 65.7618 51.1646 60.0943 50.2988C57.9689 49.984 56.6308 53.2109 58.2051 54.5488C62.1409 58.0118 67.1 59.7433 71.823 61.8683C77.5693 64.4655 83.1581 66.984 89.4554 68.0859C91.502 68.4007 92.7614 66.0396 91.0297 64.7016H90.951Z" fill="#CEB06E"/>
<path d="M258.617 138.132C255.783 132.859 250.824 129.081 246.337 125.225C241.693 121.289 236.891 117.748 231.46 114.915C228.626 113.419 226.028 116.646 227.996 119.164C231.932 124.202 236.419 128.53 241.299 132.702C245.628 136.401 249.643 140.336 254.996 142.461C257.515 143.484 259.719 140.336 258.538 138.132H258.617Z" fill="#CEB06E"/>
<path d="M267.039 122.942C265.15 119.873 261.45 118.614 258.223 117.04C254.838 115.387 251.217 114.206 247.596 113.026C246.337 112.632 245.628 114.364 246.651 115.151C249.8 117.354 252.87 119.637 256.097 121.762C258.931 123.572 261.529 126.012 264.992 126.248C266.645 126.405 267.826 124.359 266.96 123.021L267.039 122.942Z" fill="#CEB06E"/>
<path d="M291.441 77.0583C285.616 75.0907 278.689 76.5861 272.628 77.137C266.96 77.6092 261.765 78.2389 256.412 80.4426C255.625 80.7574 255.861 81.938 256.57 82.1741C262.709 83.9843 268.613 83.6694 274.989 83.4333C280.578 83.1972 286.639 83.6694 291.834 81.2296C293.724 80.3639 293.172 77.6093 291.441 76.9796V77.0583Z" fill="#CEB06E"/>
<path d="M62.6134 407.771C53.01 396.516 44.8236 385.577 38.605 372.118C32.5438 358.975 27.8996 345.28 21.3661 332.373C20.8938 331.507 19.6344 332.137 19.7918 333.003C25.302 360.313 38.7624 391.558 61.0391 409.345C62.1411 410.211 63.4793 408.873 62.5347 407.85L62.6134 407.771Z" fill="#CEB06E"/>
<path d="M19.0829 303.803C18.6893 299.081 18.2171 294.28 17.9022 289.558C17.8235 288.22 15.6195 287.748 15.3833 289.243C14.0451 298.373 12.9431 310.257 17.666 318.6C18.3745 319.859 19.9488 319.151 20.1063 317.97C20.6573 313.169 19.4765 308.604 19.0042 303.882L19.0829 303.803Z" fill="#CEB06E"/>
<path d="M453.124 151.748C422.897 133.41 380.547 129.475 348.038 143.642C347.723 143.799 348.038 144.193 348.274 144.193C386.294 137.739 416.206 140.1 451.943 154.818C453.753 155.526 454.698 152.693 453.202 151.827L453.124 151.748Z" fill="#CEB06E"/>
<path d="M182.813 76.9795C171.635 75.3267 157.938 74.697 146.839 76.7433C145.973 76.9007 145.973 78.3174 146.839 78.4748C157.938 80.5211 171.399 80.285 182.498 79.1044C183.6 79.0257 184.072 77.1369 182.813 76.9795Z" fill="#CEB06E"/>
</svg>
