<svg width="290" height="662" viewBox="0 0 290 662" fill="none" xmlns="http://www.w3.org/2000/svg">
<path d="M41.2981 289.388L41.2981 248.09L62.0223 248.09L62.0224 206.716L82.6714 206.716L82.6714 165.418L103.32 165.418L103.32 124.045L124.045 124.045L124.045 82.6719L165.343 82.6719L165.343 124.045L185.992 124.045L185.992 165.418L206.716 165.418L206.716 206.716L227.365 206.716L227.365 248.09L248.014 248.09L248.014 289.388L289.388 289.388L289.388 248.09L268.738 248.09L268.738 206.716L248.014 206.716L248.014 165.418L227.365 165.418L227.365 124.045L206.716 124.045L206.716 82.6719L185.992 82.6719L185.992 41.3737L165.343 41.3737L165.343 0.000454064L124.045 0.000450453L124.045 41.3737L103.32 41.3737L103.32 82.6719L82.6714 82.6719L82.6714 124.045L62.0224 124.045L62.0224 165.418L41.2981 165.418L41.2981 206.716L20.6491 206.716L20.6491 248.09L-1.02294e-06 248.09L-4.63333e-06 289.388L41.2981 289.388Z" fill="#231F20"/>
<path d="M248.013 310.112L227.364 310.112L227.364 268.739L206.715 268.739L206.715 227.441L185.991 227.441L185.991 186.067L165.342 186.067L165.342 144.694L124.043 144.694L124.043 186.067L103.319 186.067L103.319 227.441L82.6701 227.441L82.6701 268.739L62.021 268.739L62.021 310.112L41.2968 310.112L41.2968 351.41L20.6477 351.41L20.6477 392.783L62.021 392.783L62.021 351.41L82.6701 351.41L82.6701 310.112L103.319 310.112L103.319 268.739L124.043 268.739L124.043 227.441L165.342 227.441L165.341 268.739L185.991 268.739L185.991 310.112L206.715 310.112L206.715 351.41L227.364 351.41L227.364 392.783L268.737 392.783L268.737 351.41L248.013 351.41L248.013 310.112Z" fill="#231F20"/>
<path d="M227.365 413.432L206.716 413.432L206.716 372.134L185.992 372.134L185.992 330.761L165.343 330.761L165.343 289.388L124.045 289.388L124.045 330.761L103.321 330.761L103.321 372.134L82.6717 372.134L82.6717 413.432L62.0226 413.432L62.0226 454.805L41.2984 454.805L41.2984 496.103L82.6716 496.104L82.6716 454.805L103.321 454.805L103.321 413.432L124.045 413.432L124.045 372.134L165.343 372.134L165.343 413.432L185.992 413.432L185.992 454.805L206.716 454.805L206.716 496.104L248.014 496.104L248.014 454.805L227.365 454.805L227.365 413.432Z" fill="#231F20"/>
<path d="M185.991 475.455L165.342 475.455L165.342 434.081L124.044 434.081L124.044 475.455L103.32 475.455L103.32 516.828L82.6709 516.828L82.6709 558.126L124.044 558.126L124.044 516.828L165.342 516.828L165.342 558.126L206.716 558.126L206.716 516.828L185.991 516.828L185.991 475.455Z" fill="#231F20"/>
<path d="M165.342 578.85L124.044 578.85L124.044 620.148L103.32 620.148L103.32 661.521L185.991 661.521L185.991 620.148L165.342 620.148L165.342 578.85Z" fill="#231F20"/>
</svg>
