<svg width="1127" height="877" viewBox="0 0 1127 877" fill="none" xmlns="http://www.w3.org/2000/svg">
<path d="M41.7486 0H0V41.7486H41.7486V0Z" fill="#231F20"/>
<path d="M208.593 0H166.844V41.7486H208.593V0Z" fill="#231F20"/>
<path d="M83.4967 41.6738H41.748V83.4225H83.4967V41.6738Z" fill="#231F20"/>
<path d="M166.919 41.6738H125.17V83.4225H166.919V41.6738Z" fill="#231F20"/>
<path d="M125.171 83.4219H83.4219V125.171H125.171V83.4219Z" fill="#231F20"/>
<path d="M208.593 125.096H166.844V166.844H208.593V125.096Z" fill="#231F20"/>
<path d="M250.34 83.4219H208.592V125.171H250.34V83.4219Z" fill="#231F20"/>
<path d="M458.934 83.4219H417.186V125.171H458.934V83.4219Z" fill="#231F20"/>
<path d="M500.608 125.096H458.859V166.844H500.608V125.096Z" fill="#231F20"/>
<path d="M166.919 166.844H125.17V250.266H166.919V166.844Z" fill="#231F20"/>
<path d="M542.356 166.844H500.607V250.266H542.356V166.844Z" fill="#231F20"/>
<path d="M292.09 41.6738H250.342V83.4225H292.09V41.6738Z" fill="#231F20"/>
<path d="M417.186 41.6738H375.438V83.4225H417.186V41.6738Z" fill="#231F20"/>
<path d="M375.436 0H292.014V41.7486H375.436V0Z" fill="#231F20"/>
<path d="M458.934 292.016H417.186V333.764H458.934V292.016Z" fill="#231F20"/>
<path d="M250.34 292.016H208.592V333.764H250.34V292.016Z" fill="#231F20"/>
<path d="M500.608 250.267H458.859V292.015H500.608V250.267Z" fill="#231F20"/>
<path d="M208.593 250.267H166.844V292.015H208.593V250.267Z" fill="#231F20"/>
<path d="M417.186 333.688H375.438V375.437H417.186V333.688Z" fill="#231F20"/>
<path d="M292.09 333.688H250.342V375.437H292.09V333.688Z" fill="#231F20"/>
<path d="M375.436 375.438H292.014V417.186H375.436V375.438Z" fill="#231F20"/>
<path d="M667.528 125.096H625.779V166.844H667.528V125.096Z" fill="#231F20"/>
<path d="M709.202 83.4219H667.453V125.171H709.202V83.4219Z" fill="#231F20"/>
<path d="M917.796 83.4219H876.047V125.171H917.796V83.4219Z" fill="#231F20"/>
<path d="M959.468 125.096H917.719V166.844H959.468V125.096Z" fill="#231F20"/>
<path d="M625.78 166.844H584.031V250.266H625.78V166.844Z" fill="#231F20"/>
<path d="M1001.22 166.844H959.469V250.266H1001.22V166.844Z" fill="#231F20"/>
<path d="M750.95 41.6738H709.201V83.4225H750.95V41.6738Z" fill="#231F20"/>
<path d="M876.046 41.6738H834.297V83.4225H876.046V41.6738Z" fill="#231F20"/>
<path d="M834.297 0H750.875V41.7486H834.297V0Z" fill="#231F20"/>
<path d="M917.796 292.016H876.047V333.764H917.796V292.016Z" fill="#231F20"/>
<path d="M709.202 292.016H667.453V333.764H709.202V292.016Z" fill="#231F20"/>
<path d="M959.468 250.267H917.719V292.015H959.468V250.267Z" fill="#231F20"/>
<path d="M667.528 250.267H625.779V292.015H667.528V250.267Z" fill="#231F20"/>
<path d="M876.046 333.688H834.297V375.437H876.046V333.688Z" fill="#231F20"/>
<path d="M750.95 333.688H709.201V375.437H750.95V333.688Z" fill="#231F20"/>
<path d="M834.297 375.438H750.875V417.186H834.297V375.438Z" fill="#231F20"/>
<path d="M208.593 583.955H166.844V625.704H208.593V583.955Z" fill="#231F20"/>
<path d="M250.34 542.281H208.592V584.03H250.34V542.281Z" fill="#231F20"/>
<path d="M458.934 542.281H417.186V584.03H458.934V542.281Z" fill="#231F20"/>
<path d="M500.608 583.955H458.859V625.704H500.608V583.955Z" fill="#231F20"/>
<path d="M166.919 625.704H125.17V709.126H166.919V625.704Z" fill="#231F20"/>
<path d="M542.356 625.704H500.607V709.126H542.356V625.704Z" fill="#231F20"/>
<path d="M292.09 500.533H250.342V542.282H292.09V500.533Z" fill="#231F20"/>
<path d="M417.186 500.533H375.438V542.282H417.186V500.533Z" fill="#231F20"/>
<path d="M375.436 458.859H292.014V500.608H375.436V458.859Z" fill="#231F20"/>
<path d="M458.934 750.875H417.186V792.624H458.934V750.875Z" fill="#231F20"/>
<path d="M250.34 750.875H208.592V792.624H250.34V750.875Z" fill="#231F20"/>
<path d="M500.608 709.126H458.859V750.875H500.608V709.126Z" fill="#231F20"/>
<path d="M208.593 709.126H166.844V750.875H208.593V709.126Z" fill="#231F20"/>
<path d="M417.186 792.548H375.438V834.296H417.186V792.548Z" fill="#231F20"/>
<path d="M292.09 792.548H250.342V834.296H292.09V792.548Z" fill="#231F20"/>
<path d="M375.436 834.297H292.014V876.046H375.436V834.297Z" fill="#231F20"/>
<path d="M667.528 583.955H625.779V625.704H667.528V583.955Z" fill="#231F20"/>
<path d="M709.202 542.281H667.453V584.03H709.202V542.281Z" fill="#231F20"/>
<path d="M917.796 542.281H876.047V584.03H917.796V542.281Z" fill="#231F20"/>
<path d="M959.468 583.955H917.719V625.704H959.468V583.955Z" fill="#231F20"/>
<path d="M625.78 625.704H584.031V709.126H625.78V625.704Z" fill="#231F20"/>
<path d="M1001.22 625.704H959.469V709.126H1001.22V625.704Z" fill="#231F20"/>
<path d="M750.95 500.533H709.201V542.282H750.95V500.533Z" fill="#231F20"/>
<path d="M876.046 500.533H834.297V542.282H876.046V500.533Z" fill="#231F20"/>
<path d="M834.297 458.859H750.875V500.608H834.297V458.859Z" fill="#231F20"/>
<path d="M917.796 750.875H876.047V792.624H917.796V750.875Z" fill="#231F20"/>
<path d="M709.202 750.875H667.453V792.624H709.202V750.875Z" fill="#231F20"/>
<path d="M959.468 709.126H917.719V750.875H959.468V709.126Z" fill="#231F20"/>
<path d="M667.528 709.126H625.779V750.875H667.528V709.126Z" fill="#231F20"/>
<path d="M876.046 792.548H834.297V834.296H876.046V792.548Z" fill="#231F20"/>
<path d="M750.95 792.548H709.201V834.296H750.95V792.548Z" fill="#231F20"/>
<path d="M834.297 834.297H750.875V876.046H834.297V834.297Z" fill="#231F20"/>
<path d="M375.437 166.844V125.096H292.015V166.844H250.342V208.518V250.267H292.015V292.015H375.437V250.267H417.186V208.518V166.844H375.437Z" fill="#231F20"/>
<path d="M208.593 375.438H166.844V417.186H208.593V375.438Z" fill="#231F20"/>
<path d="M41.7486 375.438H0V417.186H41.7486V375.438Z" fill="#231F20"/>
<path d="M166.919 333.689H125.17V375.438H166.919V333.689Z" fill="#231F20"/>
<path d="M83.4967 333.689H41.748V375.438H83.4967V333.689Z" fill="#231F20"/>
<path d="M125.171 292.016H83.4219V333.764H125.171V292.016Z" fill="#231F20"/>
<path d="M500.608 0H458.859V41.7486H500.608V0Z" fill="#231F20"/>
<path d="M667.528 0H625.779V41.7486H667.528V0Z" fill="#231F20"/>
<path d="M542.356 41.6738H500.607V83.4225H542.356V41.6738Z" fill="#231F20"/>
<path d="M625.78 41.6738H584.031V83.4225H625.78V41.6738Z" fill="#231F20"/>
<path d="M584.03 83.4219H542.281V125.171H584.03V83.4219Z" fill="#231F20"/>
<path d="M834.297 166.844V125.096H750.875V166.844H709.201V208.518V250.267H750.875V292.015H834.297V250.267H876.045V208.518V166.844H834.297Z" fill="#231F20"/>
<path d="M375.437 625.704V583.955H292.015V625.704H250.342V667.452V709.126H292.015V750.875H375.437V709.126H417.186V667.452V625.704H375.437Z" fill="#231F20"/>
<path d="M834.297 625.704V583.955H750.875V625.704H709.201V667.452V709.126H750.875V750.875H834.297V709.126H876.045V667.452V625.704H834.297Z" fill="#231F20"/>
<path d="M667.528 375.438H625.779V417.186H667.528V375.438Z" fill="#231F20"/>
<path d="M500.608 375.438H458.859V417.186H500.608V375.438Z" fill="#231F20"/>
<path d="M625.78 333.689H584.031V375.438H625.78V333.689Z" fill="#231F20"/>
<path d="M542.356 333.689H500.607V375.438H542.356V333.689Z" fill="#231F20"/>
<path d="M584.03 292.016H542.281V333.764H584.03V292.016Z" fill="#231F20"/>
<path d="M959.468 0H917.719V41.7486H959.468V0Z" fill="#231F20"/>
<path d="M1126.39 0H1084.64V41.7486H1126.39V0Z" fill="#231F20"/>
<path d="M1001.22 41.6738H959.469V83.4225H1001.22V41.6738Z" fill="#231F20"/>
<path d="M1084.64 41.6738H1042.89V83.4225H1084.64V41.6738Z" fill="#231F20"/>
<path d="M1042.97 83.4219H1001.22V125.171H1042.97V83.4219Z" fill="#231F20"/>
<path d="M1126.39 375.438H1084.64V417.186H1126.39V375.438Z" fill="#231F20"/>
<path d="M959.468 375.438H917.719V417.186H959.468V375.438Z" fill="#231F20"/>
<path d="M1084.64 333.689H1042.89V375.438H1084.64V333.689Z" fill="#231F20"/>
<path d="M1001.22 333.689H959.469V375.438H1001.22V333.689Z" fill="#231F20"/>
<path d="M1042.97 292.016H1001.22V333.764H1042.97V292.016Z" fill="#231F20"/>
<path d="M41.7486 458.859H0V500.608H41.7486V458.859Z" fill="#231F20"/>
<path d="M208.593 458.859H166.844V500.608H208.593V458.859Z" fill="#231F20"/>
<path d="M83.4967 500.533H41.748V542.282H83.4967V500.533Z" fill="#231F20"/>
<path d="M166.919 500.533H125.17V542.282H166.919V500.533Z" fill="#231F20"/>
<path d="M125.171 542.281H83.4219V584.03H125.171V542.281Z" fill="#231F20"/>
<path d="M208.593 834.297H166.844V876.046H208.593V834.297Z" fill="#231F20"/>
<path d="M41.7486 834.297H0V876.046H41.7486V834.297Z" fill="#231F20"/>
<path d="M166.919 792.549H125.17V834.297H166.919V792.549Z" fill="#231F20"/>
<path d="M83.4967 792.549H41.748V834.297H83.4967V792.549Z" fill="#231F20"/>
<path d="M125.171 750.875H83.4219V792.624H125.171V750.875Z" fill="#231F20"/>
<path d="M500.608 458.859H458.859V500.608H500.608V458.859Z" fill="#231F20"/>
<path d="M667.528 458.859H625.779V500.608H667.528V458.859Z" fill="#231F20"/>
<path d="M542.356 500.533H500.607V542.282H542.356V500.533Z" fill="#231F20"/>
<path d="M625.78 500.533H584.031V542.282H625.78V500.533Z" fill="#231F20"/>
<path d="M584.03 542.281H542.281V584.03H584.03V542.281Z" fill="#231F20"/>
<path d="M667.528 834.297H625.779V876.046H667.528V834.297Z" fill="#231F20"/>
<path d="M500.608 834.297H458.859V876.046H500.608V834.297Z" fill="#231F20"/>
<path d="M625.78 792.549H584.031V834.297H625.78V792.549Z" fill="#231F20"/>
<path d="M542.356 792.549H500.607V834.297H542.356V792.549Z" fill="#231F20"/>
<path d="M584.03 750.875H542.281V792.624H584.03V750.875Z" fill="#231F20"/>
<path d="M959.468 458.859H917.719V500.608H959.468V458.859Z" fill="#231F20"/>
<path d="M1126.39 458.859H1084.64V500.608H1126.39V458.859Z" fill="#231F20"/>
<path d="M1001.22 500.533H959.469V542.282H1001.22V500.533Z" fill="#231F20"/>
<path d="M1084.64 500.533H1042.89V542.282H1084.64V500.533Z" fill="#231F20"/>
<path d="M1042.97 542.281H1001.22V584.03H1042.97V542.281Z" fill="#231F20"/>
<path d="M1126.39 834.297H1084.64V876.046H1126.39V834.297Z" fill="#231F20"/>
<path d="M959.468 834.297H917.719V876.046H959.468V834.297Z" fill="#231F20"/>
<path d="M1084.64 792.549H1042.89V834.297H1084.64V792.549Z" fill="#231F20"/>
<path d="M1001.22 792.549H959.469V834.297H1001.22V792.549Z" fill="#231F20"/>
<path d="M1042.97 750.875H1001.22V792.624H1042.97V750.875Z" fill="#231F20"/>
</svg>
