<svg width="845" height="845" viewBox="0 0 845 845" fill="none" xmlns="http://www.w3.org/2000/svg">
<path d="M50.6924 7.5H7.5V50.6958H50.6924V93.8911H7.5V137.086H50.6924V180.282H7.5V223.478H50.6924V266.672H7.5V309.868H50.6924V361.692H7.5V404.888H50.6924V448.083H7.5V491.278H50.6924V534.474H7.5V577.669H50.6924V620.864H7.5V664.06H50.6924V707.255H7.5V750.451H50.6924V793.646H93.8848V836.841H137.077V793.646H180.27V836.841H223.462V793.646H266.654V836.841H309.847V793.646H353.039V836.841H396.232V793.646H439.424V836.841H482.616V793.646H534.437V836.841H577.629V793.646H620.822V836.841H664.014V793.646H707.206V836.841H750.399V793.646H793.591V836.841H836.784V793.646" stroke="#982025" stroke-width="15"/>
<path d="M51.7822 792.66H8.58984V835.856H51.7822V792.66Z" fill="#982025"/>
<path d="M354.076 93.0332H310.884V136.229H267.691V179.424H310.884V222.593H354.076V179.424H397.243V136.229H354.076V93.0332Z" fill="#982025"/>
<path d="M354.076 447.174H310.884V490.369H267.691V533.539H310.884V576.734H354.076V533.539H397.243V490.369H354.076V447.174Z" fill="#982025"/>
<path d="M708.165 447.174H664.999V490.369H621.807V533.539H664.999V576.734H708.165V533.539H751.358V490.369H708.165V447.174Z" fill="#982025"/>
<path d="M310.884 6.66992H267.691V49.8654H310.884V6.66992Z" fill="black"/>
<path d="M354.077 49.8652H310.885V93.0604H354.077V49.8652Z" fill="black"/>
<path d="M354.077 222.594H310.885V265.789H354.077V222.594Z" fill="black"/>
<path d="M397.27 6.66992H354.078V49.8654H397.27V6.66992Z" fill="black"/>
<path d="M310.884 265.789H267.691V308.985H310.884V265.789Z" fill="black"/>
<path d="M397.27 265.789H354.078V308.985H397.27V265.789Z" fill="black"/>
<path d="M397.27 93.0332H354.078V136.229H397.27V93.0332Z" fill="black"/>
<path d="M397.27 179.424H354.078V222.619H397.27V179.424Z" fill="black"/>
<path d="M310.884 93.0332H267.691V136.229H310.884V93.0332Z" fill="black"/>
<path d="M310.884 179.424H267.691V222.619H310.884V179.424Z" fill="black"/>
<path d="M440.435 136.229H397.242V179.424H440.435V136.229Z" fill="black"/>
<path d="M267.718 136.229H224.525V179.424H267.718V136.229Z" fill="black"/>
<path d="M483.628 93.0332H440.436V136.229H483.628V93.0332Z" fill="black"/>
<path d="M483.628 179.424H440.436V222.619H483.628V179.424Z" fill="black"/>
<path d="M224.524 93.0332H181.332V136.229H224.524V93.0332Z" fill="black"/>
<path d="M224.524 179.424H181.332V222.619H224.524V179.424Z" fill="black"/>
<path d="M310.884 360.809H267.691V404.004H310.884V360.809Z" fill="black"/>
<path d="M354.077 403.979H310.885V447.174H354.077V403.979Z" fill="black"/>
<path d="M354.077 576.734H310.885V619.93H354.077V576.734Z" fill="black"/>
<path d="M397.27 360.809H354.078V404.004H397.27V360.809Z" fill="black"/>
<path d="M310.884 619.93H267.691V663.125H310.884V619.93Z" fill="black"/>
<path d="M397.27 619.93H354.078V663.125H397.27V619.93Z" fill="black"/>
<path d="M397.27 447.174H354.078V490.369H397.27V447.174Z" fill="black"/>
<path d="M397.27 533.537H354.078V576.733H397.27V533.537Z" fill="black"/>
<path d="M310.884 447.174H267.691V490.369H310.884V447.174Z" fill="black"/>
<path d="M310.884 533.537H267.691V576.733H310.884V533.537Z" fill="black"/>
<path d="M440.435 490.369H397.242V533.564H440.435V490.369Z" fill="black"/>
<path d="M267.718 490.369H224.525V533.564H267.718V490.369Z" fill="black"/>
<path d="M483.628 447.174H440.436V490.369H483.628V447.174Z" fill="black"/>
<path d="M483.628 533.537H440.436V576.733H483.628V533.537Z" fill="black"/>
<path d="M224.524 447.174H181.332V490.369H224.524V447.174Z" fill="black"/>
<path d="M224.524 533.537H181.332V576.733H224.524V533.537Z" fill="black"/>
<path d="M578.642 533.537H535.449V576.733H578.642V533.537Z" fill="black"/>
<path d="M621.808 490.369H578.615V533.564H621.808V490.369Z" fill="black"/>
<path d="M794.552 490.369H751.359V533.564H794.552V490.369Z" fill="black"/>
<path d="M578.642 447.174H535.449V490.369H578.642V447.174Z" fill="black"/>
<path d="M837.743 533.537H794.551V576.733H837.743V533.537Z" fill="black"/>
<path d="M837.743 447.174H794.551V490.369H837.743V447.174Z" fill="black"/>
<path d="M665.001 447.174H621.809V490.369H665.001V447.174Z" fill="black"/>
<path d="M751.358 447.174H708.166V490.369H751.358V447.174Z" fill="black"/>
<path d="M665.001 533.537H621.809V576.733H665.001V533.537Z" fill="black"/>
<path d="M751.358 533.537H708.166V576.733H751.358V533.537Z" fill="black"/>
<path d="M708.192 403.979H665V447.174H708.192V403.979Z" fill="black"/>
<path d="M708.192 576.734H665V619.93H708.192V576.734Z" fill="black"/>
<path d="M665.001 360.809H621.809V404.004H665.001V360.809Z" fill="black"/>
<path d="M751.358 360.809H708.166V404.004H751.358V360.809Z" fill="black"/>
<path d="M665.001 619.93H621.809V663.125H665.001V619.93Z" fill="black"/>
<path d="M751.358 619.93H708.166V663.125H751.358V619.93Z" fill="black"/>
</svg>
