<svg width="1250" height="1798" viewBox="0 0 1250 1798" fill="none" xmlns="http://www.w3.org/2000/svg">
<path d="M669.156 183.062C668.095 183.951 667.053 184.861 666.02 185.781C666.106 185.89 666.202 185.989 666.286 186.1C667.244 185.087 668.2 184.074 669.156 183.062Z" fill="white"/>
<path d="M1248.61 266.551C1247.1 261.596 1243.6 257.939 1240.22 254.402C1237.29 251.336 1234.52 248.44 1233.17 244.892C1231.82 241.372 1231.95 237.437 1232.08 233.272C1232.21 229.515 1232.33 225.629 1231.36 221.81C1229.08 212.886 1221.28 205.701 1208.17 200.456C1206.33 199.719 1204.44 199.013 1202.61 198.33C1195.45 195.662 1188.67 193.122 1183.42 188.498C1183.47 188.454 1183.52 188.405 1183.58 188.361L1183.7 188.267C1187.37 185.366 1192.4 181.392 1191.5 175.708C1190.52 169.588 1183.64 167.5 1179.52 166.253C1168.76 162.991 1158.84 157.215 1149.25 151.397C1150.87 149.989 1152.28 148.267 1153.27 146.134C1155.73 140.809 1154.77 134.921 1153.36 129.35C1149.08 112.427 1141.91 96.54 1132.06 82.131C1131.09 80.713 1129.29 78.073 1126.27 77.499C1123.5 76.973 1121.22 78.39 1119.4 79.531C1118.27 80.235 1117.2 80.9 1116.25 81.028C1114.47 81.265 1112.68 79.59 1111.82 77.813C1111.05 76.209 1110.69 74.349 1110.32 72.38C1110.16 71.514 1109.99 70.648 1109.8 69.794C1107.48 59.863 1100.18 51.294 1090.74 47.432C1088.94 46.696 1087.08 46.125 1085.28 45.574C1081.79 44.5 1078.48 43.487 1075.94 41.403C1074.08 39.879 1072.66 37.802 1071.15 35.604C1070.4 34.502 1069.62 33.363 1068.77 32.271C1062.01 23.637 1050.47 18.196 1037.1 17.342C1025.98 16.633 1015.09 18.864 1004.53 21.184C1004.38 20.626 1004.19 20.096 1003.96 19.594C1003.74 18.995 1003.46 18.411 1003.14 17.854L1003.06 17.317C1002.91 16.344 1002.18 15.562 1001.22 15.35C1000.35 14.454 999.357 13.692 998.304 13.112C994.169 10.836 989.302 10.708 985.391 10.605C975.542 10.346 962.061 9.99304 952.098 17.169C948.527 19.741 945.789 22.945 943.642 26.545C935.922 28.204 930.533 35.709 928.136 42.191C926.96 45.37 926.159 48.664 925.385 51.85C924.341 56.142 923.355 60.197 921.538 63.935C918.212 70.783 912.471 75.898 906.392 81.313C902.562 84.726 898.601 88.255 895.253 92.287C887.268 101.904 883.151 115.167 883.962 128.675C884.732 141.526 889.91 153.618 898.229 162.165C884.225 193.444 871.685 223.499 869.514 255.196C861.445 250.84 853.221 246.752 845.603 241.659C842.286 250.906 843.996 261.42 848.451 270.175C852.906 278.93 859.877 286.151 867.283 292.605C879.25 303.036 892.544 311.776 902.716 316.217C891.696 333.682 875.93 347.804 859.271 360.093C841.494 373.206 822.452 384.555 804.909 397.979C770.221 424.525 743.685 454.859 724.398 493.849C721.464 490.582 718.226 487.59 714.717 484.966C713.381 483.968 711.996 483.007 710.657 482.078C706.761 479.374 703.079 476.82 700.403 473.337C699.454 472.103 698.594 470.722 697.683 469.26C695.26 465.371 692.514 460.964 687.585 459.387C682.454 457.746 676.584 459.729 670.614 465.124C669.907 465.763 669.206 466.424 668.502 467.087C665.286 470.12 662.248 472.984 658.481 473.916C654.492 474.903 650.371 473.571 646.045 471.92C659.18 452.319 675.367 430.682 692.477 414.453C693.931 415.598 695.521 416.614 697.229 417.468C702.434 420.07 707.898 420.959 712.935 420.959C717.139 420.959 721.047 420.339 724.259 419.578C730.702 418.052 735.979 415.562 739.968 412.188C749.109 411.324 758.319 406.002 766.007 397.089C770.683 391.67 774.439 385.537 778.07 379.606C779.612 377.088 781.207 374.484 782.839 371.993C789.576 361.707 795.775 355.554 802.938 352.043C803.912 351.565 804.438 350.488 804.216 349.426C803.993 348.364 803.079 347.588 801.995 347.541C793.558 347.177 785.087 348.114 776.938 350.278C785.801 344.787 794.615 339.136 803.246 333.399C804.293 332.703 804.616 331.311 803.982 330.226C803.349 329.141 801.978 328.737 800.856 329.308C794.284 332.652 786.31 332.617 778.602 332.577L777.291 332.572C770.173 332.545 762.244 332.853 755.432 336.148C753.528 333.47 750.617 331.494 747.387 330.859C745.849 330.557 744.263 330.568 742.723 330.846C742.903 330.505 743.078 330.163 743.259 329.823C745.619 325.363 748.059 320.753 749.728 315.811C752.666 307.115 753.092 297.413 750.928 288.492C750.675 287.449 749.753 286.705 748.68 286.679C748.66 286.679 748.641 286.679 748.62 286.679C747.571 286.679 746.643 287.369 746.345 288.38C743.111 299.33 733.748 307.271 726.464 312.005C721.314 315.352 715.684 318.211 710.24 320.975C705.992 323.132 701.599 325.363 697.397 327.838C685.296 334.965 677.43 342.883 673.347 352.045C666.917 366.478 670.575 385.108 682.241 397.35C682.434 397.553 682.659 397.704 682.896 397.823C683.128 400.062 683.724 402.268 684.634 404.375C669.135 425.351 650.814 448.12 636.756 468.724C627.66 466.53 618.359 468.333 610.317 470.222C604.392 471.614 598.512 473.234 592.679 475.027C584.21 447.047 575.253 422.241 572.842 392.947C572.27 385.997 572.034 379.016 571.932 372.024C582.649 353.256 603.519 340.087 612.209 319.856C618.272 305.739 617.709 289.813 619.543 274.559C623.621 240.658 640.52 208.477 666.015 185.78C657.762 175.279 643.097 171.915 629.716 172.446C603.292 173.494 578.194 188.083 562.794 209.447C555.097 193.288 547.4 177.129 539.703 160.97C539.229 159.974 538.722 158.949 538.098 158.034C546.127 155.177 553.365 149.066 557.39 140.789C563.361 128.511 562.764 112.893 555.753 97.94C555.364 97.111 554.959 96.291 554.54 95.478C554.568 95.307 554.581 95.132 554.571 94.953C553.954 84.655 549.93 74.182 541.908 61.996C539.21 57.898 536.276 53.896 533.439 50.026C529.606 44.797 525.642 39.39 522.295 33.778C515.598 22.549 512.556 12.041 513.256 2.54804C513.33 1.54404 512.763 0.603038 511.84 0.199038C510.92 -0.203962 509.842 0.0170387 509.154 0.753039C500.461 10.059 493.769 21.242 489.634 33.288C488.016 32.346 486.281 31.68 484.47 31.412C484.415 31.157 484.327 30.905 484.183 30.67C479.077 22.323 473.015 14.55 466.165 7.56704C465.585 6.97704 464.738 6.73104 463.936 6.91704C463.13 7.10404 462.48 7.69604 462.219 8.48004C457.063 23.998 454.998 40.668 456.158 57.002C451.615 52.736 446.481 49.081 440.875 46.212C439.88 45.703 438.665 45.957 437.957 46.821C437.249 47.686 437.241 48.927 437.936 49.802C445.615 59.456 446.739 72.98 446.81 86.156L446.82 89.088C446.851 101.693 446.883 114.727 452.739 126.151C458.005 136.424 467.831 144.243 479.025 147.066C479.22 147.115 479.415 147.139 479.608 147.139C479.713 147.139 479.816 147.127 479.919 147.113C486.829 157.101 498.271 163.024 510.624 163.024C513.569 163.024 516.568 162.687 519.566 161.989C520.31 161.816 520.924 161.296 521.218 160.591C521.425 160.095 521.621 159.593 521.811 159.089C522.078 159.154 522.348 159.2 522.616 159.257C535.222 178.029 546.973 197.374 557.811 217.218C554.268 223.439 551.505 230.096 549.714 237.067C543.777 260.17 547.65 284.591 552.809 307.88C555.733 321.082 559.074 334.32 561.993 348.262C560.786 354.598 559.688 360.965 559.024 367.362C557.067 362.569 554.263 358.021 551.05 354.068C542.479 343.521 531.166 335.427 522.819 324.702C509.377 307.43 504.851 285.118 497.997 264.333C482.869 218.455 452.056 175.037 406.958 157.721C382.277 148.244 353.877 146.599 333.066 130.295C355.668 168.559 402.431 185.913 429.958 220.801C449.78 245.924 458.1 278.167 474.812 305.458C495.029 338.472 526.501 362.737 559.186 391.323C560.602 401.895 563.683 412.231 566.753 422.475C572.305 440.999 577.857 459.523 583.409 478.047C555.518 487.713 529.066 501.884 505.711 519.769C498.656 512.105 490.775 504.516 481.525 499.076C470.69 492.703 458.538 489.472 446.786 486.347C436.121 483.512 423.963 481.031 414.646 487.556C410.722 490.304 407.986 494.251 405.341 498.069C402.181 502.628 399.196 506.935 394.591 508.587C388.887 510.633 382.517 508.073 375.775 505.359C367.796 502.148 359.546 498.827 352.011 503.567C346.87 506.801 344.741 512.408 342.682 517.832C340.805 522.774 339.033 527.443 335.18 529.793C331.737 531.894 327.353 531.695 322.71 531.481C320.871 531.397 318.97 531.311 317.095 531.371C304.864 531.772 293.059 539.439 287.721 550.452C282.384 561.464 283.677 575.481 290.939 585.33C298.835 596.038 311.475 600.522 323.699 604.858C330.247 607.181 337.019 609.583 342.908 612.905C368.672 627.44 378.477 659.257 384.141 685.353C384.667 687.776 385.18 690.221 385.695 692.669C382.532 690.387 378.501 688.869 374.501 688.309C372.712 688.059 370.876 687.899 369.1 687.744C363.464 687.253 358.141 686.788 354.254 683.669C348.696 679.208 348.117 670.837 348.61 664.601C348.765 662.642 349.013 660.617 349.254 658.658C349.961 652.888 350.692 646.922 349.353 641.003C345.767 625.161 329.202 616.813 316.104 614.477C308.2 613.068 300.125 613.022 292.317 612.978C286.185 612.944 279.844 612.908 273.73 612.199C268.918 611.64 263.87 610.661 258.987 609.714C244.025 606.811 228.553 603.809 215.234 611.519C209.13 615.052 204.509 620.395 200.04 625.563C195.306 631.037 190.833 636.207 184.837 639.229C183.826 639.738 182.767 640.19 181.646 640.668C178.597 641.969 175.443 643.315 173.018 645.958C169.595 649.688 168.787 654.771 168.138 658.856C165.437 675.856 162.644 693.436 164.317 711.064C166.211 731.02 174.002 747.924 186.254 758.664C197.329 768.371 211.534 772.867 225.272 777.216C237.243 781.005 249.622 784.924 259.578 792.271C265.44 796.597 270.56 802.196 275.512 807.612C281.873 814.568 288.45 821.762 296.85 826.643C308.856 833.621 322.845 834.957 336.372 836.249C340.623 836.655 345.018 837.075 349.241 837.665C363.044 839.593 376.8 843.663 390.104 847.598C397.559 849.803 405.121 852.035 412.785 853.926C400.87 852.165 389.029 850.29 377.308 848.432C351.357 844.317 324.523 840.062 297.952 837.232C291.016 836.494 283.124 836.086 277.267 840.621C272.12 844.607 270.278 850.926 268.702 857.598L262.717 882.924C261.919 886.299 260.434 892.58 264.032 897.014C269.578 903.849 279.507 899.349 286.076 896.372L286.343 896.251C299.433 890.322 315.709 891.501 327.809 899.249C335.91 904.437 342.363 912.382 348.603 920.065C356.889 930.265 365.455 940.813 378.133 945.397C391.182 950.119 404.884 947.197 418.135 944.371C428.47 942.168 439.157 939.886 449.299 941.346C454.103 942.035 458.698 943.525 463.564 945.101C468.728 946.775 474.067 948.505 479.646 949.173C481.315 949.373 482.991 949.471 484.667 949.471C497.019 949.471 509.274 944.132 517.559 934.911C520.012 932.182 522.122 929.144 524.163 926.207C527.627 921.221 530.899 916.512 535.593 913.414C536.53 912.796 537.516 912.25 538.54 911.73C530.424 981.447 522.616 1060.66 523.727 1130.59C524.64 1188.07 530.566 1245.73 544.209 1301.51C524.785 1254.93 492.005 1214.1 465.018 1170.9C445.31 1139.35 428.229 1105.73 403.095 1078.31C387.946 1061.78 370.178 1047.86 354.439 1031.9C349.522 1026.91 344.772 1021.65 340.411 1016.12C328.971 981.855 310.187 950.057 285.657 923.541C270.661 907.331 253.029 892.783 232.092 885.759C224 883.044 215.594 881.512 207.121 880.363C196.299 869.323 186.893 856.894 179.218 843.474C179.344 842.276 179.377 841.03 179.312 839.742C186.781 836.166 192.085 827.907 192.68 818.685C193.343 808.429 188.684 799.525 184.659 793.862C179.654 786.817 173.199 781.091 166.957 775.554L160.81 770.101C160.806 770.082 160.807 770.063 160.803 770.044C159.131 762.714 154.665 755.527 147.888 749.26C141.962 743.778 135.062 739.582 128.389 735.523C127.626 735.059 126.669 735.063 125.91 735.531C125.151 735.999 124.718 736.853 124.79 737.742L126.746 761.921C117.322 759.859 108.258 755.52 98.674 753.902C96.489 753.533 93.809 753.508 92.568 755.344C92.282 755.767 92.115 756.247 91.997 756.745C88.177 755.327 83.847 755.147 79.945 756.297C78.691 756.667 77.972 757.98 78.337 759.235C80.84 767.858 84.337 776.198 88.731 784.024C89.167 784.8 89.972 785.236 90.802 785.236C90.966 785.236 91.131 785.209 91.294 785.174C91.706 789.553 92.356 793.909 93.241 798.217C88.179 796.847 83.203 795.139 78.35 793.055C77.458 792.671 76.419 792.871 75.732 793.56C75.046 794.249 74.849 795.287 75.236 796.18C81.749 811.199 89.069 826.885 100.55 839.102C112.177 851.473 127.037 858.478 141.195 858.478C142.844 858.478 144.483 858.376 146.106 858.183C150.099 859.036 154.195 859.827 158.41 859.827C159.255 859.827 160.105 859.795 160.959 859.726C165.726 859.339 169.957 857.715 173.123 855.144C180.227 862.529 186.829 870.394 192.886 878.66C175.659 876.712 158.341 874.879 141.04 875.874C107.866 877.781 75.391 890.393 49.626 911.376C86.259 910.542 124.974 910.207 156.776 928.407C180.349 941.897 197.824 964.431 221.691 977.394C240.106 987.396 261.156 991.08 281.456 996.281C296.335 1000.09 311.459 1005.1 326.442 1013.23C329.828 1017.44 333.664 1021.33 337.449 1025.2C422.247 1111.82 493.793 1211.39 548.868 1319.38C550.617 1325.7 552.471 1331.99 554.433 1338.24C500.815 1259.06 425.306 1197.13 351.019 1136.58C329.775 1119.26 307.934 1101.61 282.001 1092.74C261.02 1085.57 238.425 1084.55 217.06 1078.62C176.31 1067.3 142.726 1039.11 110.542 1011.67C113.824 1042.57 117.227 1073.95 129.053 1102.68C140.879 1131.41 162.505 1157.64 191.934 1167.59C222.228 1177.85 258.333 1170.46 284.665 1188.61C304.681 1202.41 313.67 1227.64 331.819 1243.81C346.938 1257.29 367.253 1263.41 387.274 1266.46C407.295 1269.52 427.693 1269.89 447.568 1273.78C489.253 1281.94 527.552 1306.14 552.98 1340.14C549.31 1338.15 545.644 1336.34 541.966 1334.66C507.924 1306.84 470.813 1281 427.588 1277.41C409.19 1275.88 390.215 1278.5 372.535 1273.19C349.909 1266.4 333.081 1247.81 312.94 1235.46C280.23 1215.41 239.081 1212.52 201.614 1220.79C164.147 1229.05 129.745 1247.57 97.323 1268.08C64.901 1288.6 33.832 1311.37 0 1329.47C61.095 1347.28 126.928 1302.13 188.516 1318.16C212.053 1324.29 232.33 1338.8 253.407 1350.94C274.484 1363.07 298.479 1373.27 322.493 1369.42C341.878 1366.3 358.563 1354.47 376.608 1346.74C405.699 1334.27 438.095 1332.56 469.708 1331.02C480.338 1330.5 491.488 1330.19 502.501 1330.78C546.664 1363.36 589.982 1398.37 617.722 1445.37C655.319 1509.07 659.534 1586.57 659.035 1660.53C658.727 1706.27 656.99 1752.01 653.828 1797.64C662.786 1797.94 666.458 1786.39 667.339 1777.47C672.977 1720.39 678.469 1662.03 674.18 1605.13C682.07 1538.86 685.771 1463.89 685.715 1386.83C701.937 1332.62 745.546 1285.98 799.196 1272.85C830.137 1265.27 862.546 1268.07 894.329 1265.92C926.112 1263.77 959.879 1255.24 980.478 1230.94C1006.79 1199.9 1003.41 1154.62 1005.55 1113.98C1009.07 1047.16 1031.89 981.461 1070.55 926.84C1002.62 961.4 947.51 1019.43 913.347 1087.55C892.362 1129.4 876.546 1177.93 837.053 1203.07C814.053 1217.71 785.859 1222.2 762.339 1235.99C735.475 1251.74 716.619 1278.68 704.911 1307.54C695.376 1331.03 690.119 1355.95 685.698 1380.97C685.211 1228 670.023 1067.52 643.538 951.139C643.079 949.122 642.612 947.096 642.114 945.076C644.483 949.111 647.117 953.004 650.251 956.55C652.306 958.873 654.574 961.056 656.768 963.167C661.717 967.932 666.392 972.432 668.702 978.33C669.827 981.203 670.35 984.327 670.905 987.636C671.724 992.524 672.572 997.578 675.513 1001.93C680.786 1009.73 690.409 1012.14 699.812 1013.95L748.147 1023.23C754.638 1024.47 761.019 1025.53 767.118 1025.53C772.933 1025.53 778.493 1024.57 783.647 1021.88C791.639 1017.71 796.813 1010.28 801.816 1003.1C802.581 1002 803.343 1000.9 804.112 999.824C811.337 989.699 818.053 984.664 825.25 983.978C826.894 983.821 828.597 983.896 830.401 983.975C833.59 984.113 836.893 984.259 840.151 983.101C846.679 980.779 850.191 974.295 852.765 968.26C863.802 942.389 868.367 915.844 865.965 891.493C865.559 887.371 864.917 883.298 864.1 879.282C874.417 877.517 885.832 881.895 892.203 890.202C893.371 891.725 894.443 893.399 895.579 895.171C898.998 900.504 902.532 906.02 908.994 907.69C910.217 908.006 911.419 908.151 912.601 908.151C919.617 908.151 925.914 903.014 931.273 897.762C936.03 893.099 941.42 887.814 944.103 880.905C946.666 874.303 946.378 864.805 939.691 859.549C938.018 858.234 936.059 857.242 934.164 856.283C930.25 854.302 927.861 852.924 927.689 850.495C927.521 848.125 929.589 846.412 933.015 843.871C934.616 842.684 936.271 841.457 937.635 839.993C945.246 831.83 941.148 818.532 933.428 810.162C931.272 807.825 928.887 805.649 926.581 803.545C921.537 798.943 916.772 794.597 914.349 788.792C910.517 779.617 913.514 769.728 916.687 759.259C919.082 751.358 921.557 743.188 921.137 734.915C920.356 719.551 909.481 706.45 901.539 696.884C890.643 683.758 877.518 669.772 860.191 670.228C856.017 670.334 852.008 671.323 848.132 672.28C844.575 673.158 841.216 673.987 837.786 674.17C831.475 674.507 825.257 672.663 818.674 670.71C810.647 668.33 802.347 665.868 793.856 667.731C783.033 670.107 775.536 678.527 768.285 686.671C767.622 687.416 766.962 688.158 766.303 688.891C758.503 697.558 751.361 702.315 744.624 703.327C750.403 696.5 752.403 687.402 754.34 678.56C755.1 675.087 755.887 671.496 756.888 668.176C762.13 650.79 775.901 635.907 792.827 629.334C796.9 627.752 801.337 626.533 805.628 625.354C815.524 622.635 825.759 619.823 833.19 612.291C843.638 601.7 845.544 583.353 837.823 567.673C830.578 552.958 816.898 542.575 805.79 535.174C793.074 526.701 776.184 517.34 758.307 520.164C752.013 521.158 746.268 523.581 740.824 526.626C740.227 523.509 739.404 520.425 738.351 517.407C744.47 496.844 757.009 478.479 772.13 463.181C788.394 446.726 807.611 433.517 827.071 421.002C857.066 401.712 888.536 383.586 922.874 374.341C924.341 377.465 926.12 380.397 928.54 382.848C935.594 389.991 946.367 391.564 955.438 395.865C968.573 402.092 978.164 414.267 983.998 427.582C989.832 440.896 992.297 455.41 994.376 469.796C999.573 454.654 998.461 438.357 994.14 422.751C1023.62 438.044 1052.62 454.873 1080.46 472.89C1120.32 498.69 1151.25 522.586 1177.79 548.092C1178.24 548.528 1178.84 548.755 1179.44 548.755C1179.83 548.755 1180.22 548.659 1180.58 548.464C1189.08 543.814 1193.02 532.792 1191.67 517.426C1191.59 516.505 1191.5 515.575 1191.42 514.639C1190.65 506.416 1189.85 497.955 1192.9 491.205C1194 490.015 1194.8 488.615 1195.26 487.061C1195.58 485.957 1195.07 484.78 1194.04 484.266C1193.58 484.037 1193.08 483.978 1192.6 484.056C1190.97 481.401 1189.83 478.981 1189.78 476.405C1189.75 475.082 1190.02 473.676 1190.31 472.187C1190.76 469.851 1191.27 467.203 1190.58 464.511C1189.95 462.054 1188.46 460.101 1187.14 458.379C1186.39 457.396 1185.68 456.468 1185.16 455.508C1183.78 452.986 1183.48 449.933 1183.17 446.7C1183.04 445.4 1182.91 444.056 1182.71 442.725C1182.33 440.291 1181.5 437.691 1180.15 435.471C1192.17 438.625 1203.84 443.17 1214.86 449.072L1215.24 449.28C1217.91 450.71 1220.93 452.331 1224.34 452.585C1224.58 452.603 1224.83 452.612 1225.07 452.612C1228.76 452.612 1233 450.6 1234.15 446.592C1235.21 442.894 1233.19 439.318 1230.95 437.205C1229.53 435.872 1227.95 434.893 1226.42 433.947C1225.65 433.471 1224.92 433.023 1224.23 432.54C1219.54 429.254 1216.22 423.913 1215.36 418.252C1215.19 417.145 1215.09 415.977 1214.97 414.741C1214.55 410.101 1214.07 404.842 1209.82 401.73C1208.83 401.002 1207.73 400.5 1206.77 400.056C1205.54 399.493 1204.48 399.007 1203.93 398.258C1203.02 397.019 1203.41 395.099 1204.12 392.313C1204.34 391.408 1204.58 390.473 1204.75 389.534C1205.6 384.637 1204.21 379.202 1200.83 374.233C1198.16 370.318 1194.72 367.197 1191.31 364.22C1194.17 361.792 1196.79 358.816 1199.04 355.365C1203.65 348.267 1206.25 340.283 1208.59 332.431C1212.37 333.373 1216.26 334.265 1220.31 334.35C1227.71 334.515 1236.63 330.997 1238.88 322.934C1239.9 319.245 1239.22 315.658 1238.56 312.189C1238.2 310.28 1237.86 308.477 1237.81 306.716C1237.64 300.98 1240.47 295.472 1243.46 289.64C1247.22 282.326 1251.11 274.761 1248.61 266.551ZM462.5 26.678C463.063 23.533 463.746 20.412 464.554 17.326C465.37 19.759 466.167 22.198 466.938 24.596C468.296 28.824 469.695 33.16 471.253 37.424C469.647 39.339 468.326 41.499 467.128 43.7C466.441 44.961 465.791 46.261 465.196 47.588C463.405 40.787 462.498 33.724 462.5 26.678ZM505.022 43.156C510.803 50.895 517.561 57.888 524.153 64.711L526.48 67.122C529.096 69.839 531.671 72.555 534.157 75.31C541.581 89.746 545.7 105.695 546.156 122.023C546.314 127.675 544.116 134.658 539.437 143.37C536.702 148.461 531.195 153.315 524.67 153.618C528.252 150.97 530.859 146.652 531.936 141.467C533.045 136.121 532.494 130.574 531.732 125.376C527.529 96.689 516.132 69.643 505.068 43.485C505.052 43.376 505.038 43.266 505.022 43.156ZM523.689 152.845C527.439 136.571 523.439 117.344 512.501 100.824C511.187 98.84 509.796 96.924 508.353 95.055C508.375 94.946 508.398 94.837 508.404 94.722C509.249 79.046 507.737 63.373 505.682 47.989C516.162 72.822 526.592 98.483 530.558 125.549C531.304 130.639 531.846 136.062 530.773 141.227C529.73 146.254 527.176 150.392 523.689 152.845ZM508.544 103.443C518.585 118.609 522.394 136.11 519.246 150.948C513.408 123.074 500.942 97.557 482.806 76.24C492.529 84.149 501.601 92.957 508.544 103.443ZM474.962 70.12C475.779 70.733 476.594 71.352 477.406 71.975C482.241 78.241 485.72 86.697 487.962 97.597C488.791 101.629 489.444 105.781 490.076 109.797C491.293 117.53 492.551 125.527 495.124 133.072C496.653 137.557 500.176 145.861 506.515 150.938C493.703 145.658 487.003 133.956 484.317 127.998C481.454 121.649 479.254 114.225 477.832 106.517C477.868 106.003 477.904 105.489 477.94 104.976C478.079 103.019 478.217 101.068 478.33 99.129C478.821 90.753 478.809 79.758 474.962 70.12ZM496.247 132.69C493.707 125.241 492.456 117.296 491.247 109.613C490.613 105.584 489.958 101.418 489.123 97.359C487.524 89.584 485.299 83.018 482.405 77.578C500.664 99.24 513.063 125.225 518.586 153.587C515.985 153.461 513.558 153.084 511.287 152.512C502.607 148.533 498.03 137.918 496.247 132.69ZM553.125 138.715C548.298 148.641 536.153 156.758 524.523 154.815C531.606 154.586 537.554 149.382 540.482 143.931C545.263 135.031 547.507 127.854 547.343 121.989C546.922 106.934 543.415 92.201 537.109 78.654C542.781 85.253 547.81 92.171 551.46 99.956C557.764 113.405 558.387 127.894 553.125 138.715ZM518.222 36.211C521.684 42.016 525.716 47.516 529.614 52.834C532.417 56.657 535.314 60.61 537.947 64.608C542.738 71.885 546.004 78.463 547.9 84.712C542.52 77.179 536.155 70.326 529.899 63.83L527.567 61.413C522.257 55.918 516.843 50.307 511.968 44.325C508.353 33.567 507.267 22.135 508.791 10.924C509.815 18.93 512.966 27.399 518.222 36.211ZM507.777 9.70304C506.164 20.414 506.895 31.349 509.918 41.75C507.488 38.604 505.228 35.349 503.228 31.948C502.652 30.969 501.464 30.536 500.395 30.912C499.324 31.289 498.67 32.371 498.835 33.494C499.462 37.785 500.091 42.109 500.686 46.454C499.4 43.762 497.842 41.21 495.962 38.879C495.252 37.998 494.473 37.148 493.641 36.35C496.739 26.732 501.553 17.668 507.777 9.70304ZM479.292 31.803C476.974 32.5 474.833 33.838 473.056 35.505C472.742 35.8 472.438 36.105 472.143 36.418C470.68 32.368 469.356 28.251 468.066 24.234C467.117 21.279 466.142 18.254 465.116 15.263C465.254 14.772 465.386 14.279 465.531 13.79C470.653 19.357 475.262 25.4 479.292 31.803ZM461.548 32.936C461.965 38.498 462.93 44.02 464.444 49.366C462.596 54.008 461.586 58.935 462.46 63.78C462.069 63.299 461.671 62.824 461.268 62.353C461.334 62.087 461.363 61.807 461.33 61.518C460.265 52.058 460.355 42.425 461.548 32.936ZM472.686 99.492C472.754 100.086 473.042 100.594 473.451 100.967C473.37 102.19 473.293 103.411 473.206 104.641C472.374 116.389 471.513 128.536 475.96 139.718C476.144 140.181 476.36 140.622 476.56 141.073C466.804 130.363 463.827 114.467 461.842 100.17L461.814 99.968C459.592 83.96 457.271 67.436 446.81 55.569C446.785 55.511 446.764 55.452 446.739 55.394C460.839 65.719 470.711 82.184 472.686 99.492ZM456.966 123.988C451.63 113.578 451.6 101.123 451.571 89.078L451.561 86.132C451.512 76.932 450.954 67.546 448.159 59.131C456.501 70.486 458.612 85.525 460.64 100.131L460.668 100.333C462.592 114.188 465.424 129.545 474.407 140.44C466.98 137.103 460.684 131.242 456.966 123.988ZM480.37 137.964C477.045 129.602 477.008 120.279 477.542 110.996C478.952 117.26 480.868 123.237 483.235 128.487C489.208 141.73 498.875 150.41 510.634 153.522C512.856 154.565 515.339 155.2 518.107 155.245C517.853 156.046 517.595 156.846 517.296 157.626C499.583 161.149 485.373 150.545 480.37 137.964ZM111.636 782.755C110.876 778.993 110.172 775.228 109.5 771.477C109.791 772.031 110.08 772.586 110.375 773.138L110.067 773.539C110.365 773.768 110.657 774.007 110.954 774.238C126.334 802.74 147.065 828.967 171.218 850.46C169.038 852.718 165.821 854.246 162.035 854.813C139.557 835.789 121.813 810.407 111.636 782.755ZM127.738 838.966C129.241 841.221 130.813 843.384 132.446 845.458C122.318 842.86 112.323 836.599 103.422 827.252C95.675 819.117 89.457 809.573 83.54 800.163C83.683 800.214 83.826 800.264 83.97 800.314C95.241 816.451 110.31 829.796 127.719 839.001L127.738 838.966ZM85.896 800.988C88.862 801.968 91.865 802.814 94.895 803.55C100.871 809.864 108.294 814.66 116.531 817.506C119.328 824.484 122.653 830.991 126.425 836.937C110.449 828.132 96.538 815.794 85.896 800.988ZM97.08 804.062C102.19 805.199 107.381 805.983 112.629 806.422C113.463 809.113 114.358 811.786 115.341 814.431C115.539 814.965 115.751 815.488 115.955 816.017C108.875 813.414 102.441 809.338 97.08 804.062ZM177.478 830.674C177.467 830.641 177.458 830.608 177.446 830.575C176.43 827.615 175.15 824.807 173.699 822.125C173.791 812.64 171.371 802.532 166.48 792.015C163.255 785.081 159.239 778.532 155.013 772.2C161.701 780.569 168.206 789.313 172.672 799.142C177.617 810.026 179.252 820.997 177.478 830.674ZM111.628 772.972C117.864 778.227 124.553 782.918 131.089 787.494C135.073 790.284 139.193 793.168 143.12 796.121C159.201 808.216 168.682 819.653 172.957 832.114C173.918 834.914 175.057 839.416 174.418 843.704C158.175 816.892 136.629 792.679 111.886 773.46C111.798 773.299 111.715 773.135 111.628 772.972ZM159.094 802.743L149.22 766.164L149.833 766.708C155.522 774.905 161.162 783.392 165.405 792.514C169.857 802.087 172.228 811.3 172.49 819.991C168.746 813.678 164.024 808.166 159.164 803.455C159.173 803.221 159.159 802.982 159.094 802.743ZM113.351 776.126C137.389 795.232 158.293 819.077 174.056 845.397C173.703 846.688 173.168 847.936 172.371 849.082C172.256 849.248 172.114 849.397 171.989 849.557C148.641 828.778 128.517 803.551 113.351 776.126ZM180.79 796.611C184.369 801.648 188.516 809.513 187.943 818.38C187.494 825.333 183.851 831.581 178.615 834.736C178.491 834.173 178.35 833.604 178.194 833.03C180.69 822.606 179.166 810.564 173.753 798.65C169.632 789.58 163.823 781.459 157.729 773.712L163.808 779.104C169.85 784.465 176.098 790.008 180.79 796.611ZM153.114 763.274L146.436 757.35C145.652 756.654 144.503 756.554 143.612 757.108C142.72 757.66 142.297 758.731 142.57 759.744L143.565 763.428C141.127 762.955 138.526 763.071 135.99 763.041C134.961 755.867 133.015 748.881 130.201 742.2C135.279 745.354 140.312 748.717 144.666 752.743C148.237 756.047 151.078 759.604 153.114 763.274ZM130.164 745.298C132.347 751.016 133.905 756.942 134.79 763.007C133.711 762.964 132.641 762.872 131.576 762.744L130.164 745.298ZM91.065 761.467C91.166 761.511 91.27 761.537 91.373 761.566C91.189 763.386 91.047 765.211 90.945 767.038C89.008 764.709 86.975 762.457 84.865 760.292C86.989 760.229 89.134 760.621 91.065 761.467ZM83.82 760.919C86.278 763.429 88.638 766.056 90.857 768.786C90.733 771.815 90.727 774.848 90.829 777.877C88.04 772.427 85.691 766.75 83.82 760.919ZM104.01 835.851C94.509 825.742 88.106 813.396 82.266 800.366C88.295 809.964 94.619 819.728 102.562 828.07C112.054 838.037 122.791 844.552 133.648 846.955C135.599 849.334 137.634 851.582 139.748 853.689C127.325 853.231 114.34 846.843 104.01 835.851ZM146.317 853.373C135.131 843.414 125.966 829.391 119.79 812.776C118.671 809.766 117.672 806.709 116.747 803.626C116.721 803.523 116.692 803.423 116.654 803.326C115.351 798.957 114.223 794.529 113.21 790.074C123.623 815.1 139.774 837.321 160.426 855.002C155.763 855.352 150.969 854.377 146.317 853.373ZM707.952 485.981C708.78 486.555 709.619 487.145 710.451 487.739C709.021 503.583 700.294 519.37 683.762 535.985C679.098 540.674 674.105 545.214 669.277 549.607C660.225 557.84 650.864 566.355 643.256 576.207C630.755 592.396 623.242 611.664 615.976 630.298L588.437 700.926C588.015 700.619 587.575 700.34 587.112 700.101C588.675 665.01 598.64 630.612 616.163 600.101C625.275 584.236 636.493 569.347 647.341 554.949C651.532 549.385 655.867 543.632 660.023 537.899C673.164 519.772 687.42 497.968 694.471 473.059C695.155 474.138 695.859 475.217 696.639 476.231C699.765 480.302 703.928 483.189 707.952 485.981ZM659.621 478.527C664.599 477.297 668.239 473.863 671.76 470.544C672.439 469.904 673.115 469.266 673.797 468.649C677.036 465.724 681.807 462.529 686.141 463.912C689.39 464.951 691.448 468.231 693.618 471.714C686.724 496.871 672.322 518.913 659.063 537.204C654.915 542.927 650.583 548.676 646.394 554.236C635.524 568.664 624.284 583.582 615.135 599.512C597.594 630.056 587.585 664.473 585.948 699.595C582.692 698.373 578.835 698.672 575.938 700.628C576.087 696.834 575.797 692.937 574.438 689.413C578.535 657.073 584.455 621.395 594.908 586.844C607.926 543.819 626.64 507.356 650.525 478.358C653.472 479.06 656.494 479.301 659.621 478.527ZM704.705 335.709C709.324 332.063 714.531 329.059 719.567 326.153C723.338 323.977 727.238 321.726 730.888 319.212C736.973 315.02 744.269 308.506 747.543 299.928C747.554 304.813 746.783 309.709 745.234 314.296C745.167 314.494 745.09 314.691 745.02 314.889C741.574 321.299 736.226 327.621 728.844 334.014C725.316 337.07 721.557 339.99 717.921 342.815C712.224 347.241 706.332 351.819 701.161 357.042C694.526 363.743 686.686 374.207 685.785 386.792C684.727 388.177 683.894 389.707 683.379 391.399C682.847 390.725 682.335 390.039 681.851 389.334C680.041 369.285 688.903 348.179 704.705 335.709ZM734.914 335.376C734.904 335.53 734.887 335.681 734.875 335.835C734.151 337.329 733.441 338.821 732.745 340.288C730.335 345.36 727.843 350.605 724.946 355.458C719.717 364.221 713.973 370.258 707.385 373.916C707.068 374.092 706.814 374.333 706.616 374.609C705.464 374.993 704.318 375.397 703.187 375.851C698.69 377.659 691.661 380.486 687.143 385.205C688.559 373.721 695.812 364.129 702.004 357.876C707.12 352.707 712.981 348.154 718.649 343.751C722.296 340.917 726.068 337.986 729.621 334.911C734.734 330.483 738.885 326.081 742.129 321.653C741.146 323.667 740.099 325.653 739.065 327.606C738.384 328.893 737.704 330.179 737.041 331.473C736.465 332.598 735.907 333.738 735.351 334.876C735.203 335.04 735.054 335.204 734.914 335.376ZM769.618 349.218C769.549 348.39 769.397 347.568 769.139 346.76C768.663 345.263 767.806 343.922 766.704 342.816C773.463 340.023 780.727 338.277 787.994 337.698C781.911 341.606 775.772 345.455 769.618 349.218ZM767.384 359.61C767.545 359.207 767.703 358.798 767.859 358.387C775.402 355.216 783.429 353.253 791.574 352.538C781.165 356.994 771.484 362.827 762.719 369.975C764.408 366.582 765.977 363.129 767.384 359.61ZM783.687 362.623C771.453 371.794 760.423 382.401 750.772 394.28C751.424 392.112 751.992 389.803 752.468 387.328C752.472 387.309 752.474 387.29 752.478 387.272C755.72 382.601 758.69 377.741 761.337 372.709C770.636 364.761 781.012 358.326 792.261 353.536C788.951 356.36 786.099 359.528 783.687 362.623ZM747.871 377.72L747.813 377.712C747.804 377.773 747.792 377.833 747.783 377.895C742.415 388.99 733.483 398.391 722.556 404.096C716.911 407.042 711.395 408.688 706.16 408.99C701.477 409.26 696.171 408.51 689.036 401.832C692.551 403.147 696.694 403.457 701.04 402.693C706.221 401.783 711.093 399.535 715.638 397.311C722.427 393.988 729.582 390.215 735.914 385.147C740.737 381.286 744.923 376.792 749.47 371.515C749.439 372.467 749.394 373.419 749.335 374.369C748.878 375.5 748.399 376.621 747.871 377.72ZM695.306 410.618C693.034 408.786 691.164 406.558 689.83 404.131C695.726 409.136 700.433 410.224 704.619 410.223C705.163 410.223 705.699 410.205 706.227 410.174C711.631 409.863 717.31 408.172 723.104 405.147C733.103 399.928 741.464 391.677 747.035 381.867C744.412 393.379 737.873 403.376 729.025 409.126C718.649 415.869 705.084 416.389 695.306 410.618ZM723.214 375.418C725.169 375.024 727.124 374.63 729.068 374.204C734.703 372.967 740.927 371.298 746.666 368.318C737.876 375.316 727.167 380.065 716.094 381.802C714.216 382.096 712.284 382.314 710.415 382.525C706.455 382.972 702.36 383.433 698.476 384.654C694.882 385.783 691.814 387.566 689.5 389.777C693.014 385.062 700.459 382.065 704.957 380.257C710.743 377.931 717.083 376.653 723.214 375.418ZM687.564 394.726C687.58 394.478 687.608 394.233 687.645 393.992C689.73 390.359 693.718 387.391 698.832 385.785C702.607 384.599 706.645 384.144 710.549 383.703C712.431 383.491 714.376 383.272 716.278 382.973C728.452 381.064 740.193 375.579 749.508 367.495C749.515 368.213 749.517 368.931 749.508 369.649C744.632 375.356 740.249 380.156 735.171 384.22C728.93 389.216 721.844 392.952 715.115 396.245C710.646 398.432 705.862 400.641 700.834 401.524C696.151 402.347 691.746 401.855 688.185 400.17C687.671 398.375 687.449 396.537 687.564 394.726ZM723.167 414.963C718.381 416.096 711.89 416.887 705.415 415.386C707.087 415.642 708.788 415.781 710.504 415.781C717.104 415.781 723.873 413.89 729.673 410.121C739.772 403.559 746.951 391.646 748.934 378.21C748.968 378.139 749 378.068 749.033 377.997C748.749 380.823 748.345 383.639 747.808 386.431C745.914 396.272 742.615 403.277 737.744 407.825C737.42 407.999 737.147 408.248 736.936 408.545C733.519 411.445 728.893 413.607 723.167 414.963ZM774.024 377.131C770.491 382.9 766.837 388.865 762.415 393.992C759.16 397.765 753.128 403.607 745.309 406.225C747.014 403.716 748.465 400.826 749.68 397.547C758.888 385.805 769.423 375.268 781.123 366.085C780.314 367.233 779.552 368.353 778.869 369.396C777.199 371.949 775.585 374.583 774.024 377.131ZM778.582 337.327C779.524 337.331 780.469 337.334 781.415 337.333C776.027 338.27 770.72 339.815 765.701 341.938C763.914 340.536 761.692 339.677 759.435 339.596C764.99 337.507 771.442 337.303 777.278 337.321L778.582 337.327ZM677.686 353.979C681.353 345.751 688.589 338.539 699.808 331.93C703.883 329.53 708.208 327.333 712.392 325.209C717.947 322.388 723.69 319.471 729.052 315.987C736.777 310.967 742.708 305.177 746.645 298.932C743.593 307.513 736.286 314.051 730.214 318.234C726.604 320.722 722.725 322.96 718.973 325.125C713.901 328.052 708.657 331.079 703.97 334.777C688.43 347.039 679.476 367.493 680.517 387.269C674.38 377.011 673.104 364.265 677.686 353.979ZM636.295 473.493C638.426 474.061 640.542 474.883 642.782 475.753C644.908 476.579 647.063 477.412 649.258 478.03C625.44 507.081 606.771 543.535 593.771 586.501C583.495 620.464 577.597 655.489 573.503 687.38C572.547 685.624 571.239 684.031 569.679 682.795C577.805 614.794 587.368 538.412 620.118 473.099C625.45 472.292 631.003 472.083 636.295 473.493ZM611.406 474.845C613.735 474.298 616.175 473.759 618.674 473.33C586.244 538.449 576.668 614.336 568.578 682.006C567.207 681.134 565.682 680.533 564.06 680.318C563.688 680.269 563.312 680.253 562.936 680.251C573.886 659.444 575.139 631.824 565.518 605.374C562.796 597.891 559.384 590.716 555.497 583.818C562.953 545.48 579.03 508.727 602.121 477.227C605.204 476.384 608.297 475.576 611.406 474.845ZM561.056 606.997C569.921 631.368 569.151 656.694 559.736 676.085C562.09 650.448 559.155 623.871 551.101 598.65C546.973 585.722 541.532 573.289 534.962 561.601C545.549 575.496 555.067 590.534 561.056 606.997ZM600.284 477.739C577.828 508.742 562.101 544.721 554.599 582.259C543.041 562.243 527.565 544.565 513.459 528.46C511.98 526.771 510.464 525.044 508.913 523.305C536.034 502.598 567.386 486.987 600.284 477.739ZM509.888 531.587C516.201 538.794 522.792 546.323 529.169 554.225C552.14 591.064 562.899 635.982 558.258 678.964C556.89 681.463 555.364 683.846 553.693 686.106C553.64 686.04 553.592 685.969 553.537 685.904C555.189 617.599 526.871 549.404 477.482 502.242C478.031 502.544 478.578 502.85 479.119 503.168C491.24 510.297 500.72 521.12 509.888 531.587ZM473.673 500.292C524.395 547.05 553.703 615.788 552.367 684.756C551.05 683.652 549.458 682.877 547.773 682.488C542.101 647.962 525.343 615.596 510.274 586.498C500.328 567.292 490.043 547.432 477.22 529.508C464.913 512.305 451.401 498.711 436.97 488.963C439.87 489.48 442.774 490.193 445.569 490.936C455.038 493.454 464.773 496.049 473.673 500.292ZM315.273 619.151C326.939 621.231 341.653 628.477 344.725 642.052C345.882 647.165 345.232 652.468 344.544 658.082C344.298 660.091 344.044 662.168 343.88 664.228C343.296 671.606 344.107 681.611 351.284 687.372C356.294 691.393 362.594 691.943 368.688 692.474C370.483 692.63 372.178 692.778 373.844 693.011C379.623 693.82 387.53 697.693 387.017 703.771C386.924 704.868 387.599 705.846 388.59 706.198C390.047 712.758 391.632 719.297 393.529 725.69C385.267 716.466 375.22 706.432 362.415 702.464C357.823 701.042 352.965 700.428 348.267 699.835C342.327 699.085 336.184 698.309 330.682 695.877C321.399 691.773 313.68 682.882 307.741 669.451C305.836 665.142 304.173 660.63 302.565 656.266C300.053 649.45 297.455 642.401 293.864 635.929C289.136 627.408 282.937 620.952 276.089 617.201C281.516 617.661 286.98 617.696 292.292 617.726C299.901 617.769 307.768 617.813 315.273 619.151ZM349.899 832.965C345.573 832.361 341.126 831.936 336.825 831.525C323.806 830.281 310.344 828.995 299.236 822.541C291.464 818.024 285.418 811.412 279.017 804.411C273.911 798.828 268.633 793.054 262.398 788.453C251.807 780.639 239.046 776.599 226.706 772.692C212.823 768.298 199.71 764.147 189.384 755.096C178.046 745.158 170.822 729.362 169.044 710.617C168.747 707.486 168.599 704.346 168.569 701.203C170.742 713.471 178.707 725.584 190.72 734.273C203.898 743.804 219.729 748.594 236.15 753.051L238.726 753.748C253.535 757.753 268.848 761.894 282.015 769.948C290.836 775.344 298.648 782.488 306.202 789.397C314.037 796.562 322.139 803.972 331.411 809.485C346.996 818.754 365.189 822.329 382.782 825.786C389.458 827.098 396.362 828.454 403.015 830.102C408.713 831.513 414.46 833.199 420.018 834.83C431.298 838.14 442.962 841.562 454.849 842.875C458.487 843.276 462.153 843.475 465.826 843.475C481.217 843.475 496.7 839.98 510.534 833.324C491.86 847.144 468.717 854.677 445.292 854.05C426.995 853.56 408.926 848.215 391.452 843.046C377.98 839.063 364.052 834.942 349.899 832.965ZM280.174 844.375C284.637 840.919 291.157 841.284 297.45 841.953C323.9 844.77 350.673 849.015 376.565 853.12C416.02 859.376 456.818 865.845 497.454 867.424C509.802 867.904 524.041 867.984 536.758 862.823C540.654 861.242 544.33 859.202 547.886 857.229C550.727 855.652 553.665 854.022 556.629 852.684C560.687 850.852 566.192 849.059 571.616 849.441C541.822 877.705 496.643 892.943 447.331 891.27C400.335 889.676 354.32 873.825 315.506 858.528L315.019 858.336C308.271 855.675 301.292 852.924 293.963 852.226C285.826 851.452 278.436 853.546 273.492 857.98C274.827 852.437 276.413 847.287 280.174 844.375ZM273.223 859.109L273.605 859.493C278.284 854.845 285.667 852.624 293.851 853.407C301.013 854.089 307.912 856.809 314.584 859.44L315.071 859.632C353.979 874.965 400.115 890.856 447.291 892.455C449.757 892.539 452.212 892.581 454.657 892.581C501.8 892.58 544.636 877.111 573.169 849.608C573.62 849.676 574.069 849.757 574.516 849.86C573.068 857.789 570.288 864.862 566.872 871.686C558.927 885.922 543.849 897.389 524.794 903.483C506.068 909.471 486.11 910.091 466.81 910.69C443.377 911.417 419.145 912.169 396.09 905.904C384.074 902.639 372.477 897.447 361.261 892.426C351.087 887.871 340.566 883.16 329.722 879.877C310.156 873.952 284.219 873.032 266.771 886.715C266.927 885.81 267.129 884.901 267.338 884.018L273.223 859.109ZM532.98 909.453C527.523 913.055 523.834 918.364 520.266 923.499C518.308 926.316 516.284 929.23 514.03 931.739C505.637 941.078 492.677 945.954 480.213 944.46C475.093 943.847 470.205 942.263 465.03 940.586C460.188 939.017 455.182 937.395 449.976 936.647C447.497 936.291 445.011 936.136 442.525 936.136C434 936.136 425.464 937.956 417.148 939.73C403.97 942.539 391.523 945.193 379.75 940.935C368.311 936.797 360.529 927.216 352.29 917.073C345.813 909.098 339.115 900.852 330.371 895.253C316.953 886.659 298.903 885.354 284.387 891.928L284.119 892.05C276.918 895.313 270.713 897.715 267.719 894.024C266.546 892.579 266.34 890.564 266.542 888.415C283.628 874.202 309.748 875.067 329.378 881.012C340.15 884.274 350.636 888.969 360.776 893.509C372.033 898.549 383.673 903.76 395.778 907.05C411.472 911.315 427.665 912.353 443.774 912.353C451.506 912.353 459.219 912.114 466.847 911.877C486.229 911.276 506.272 910.654 525.156 904.614C540.333 899.76 553.023 891.526 561.704 881.204C560.609 883.108 559.492 885.014 558.363 886.937C555.022 892.626 551.235 899.072 545.541 902.84C543.71 904.052 541.692 904.99 539.557 905.983C537.365 907.001 535.1 908.054 532.98 909.453ZM554.839 1338.83C554.719 1337.99 554.602 1337.14 554.483 1336.3C554.993 1338.25 555.805 1340.3 557.362 1342.59C557.353 1342.58 557.345 1342.58 557.336 1342.57C556.509 1341.32 555.677 1340.07 554.839 1338.83ZM668.199 1558.48C665.322 1543.06 661.515 1527.8 656.536 1512.77C630.509 1434.21 574.51 1367.15 549.015 1289.25C536.696 1158.85 544.027 1003.09 569.108 881.463C580.638 882.271 591.89 885.912 601.803 891.807C646.962 1065.17 669.994 1356.36 668.199 1558.48ZM700.709 1009.29C692.284 1007.67 683.702 1005.57 679.447 999.274C677.084 995.779 676.357 991.444 675.589 986.854C675.019 983.453 674.429 979.935 673.124 976.603C670.436 969.736 665.162 964.66 660.061 959.751C657.935 957.704 655.738 955.589 653.81 953.408C647.668 946.462 643.597 938.214 639.287 929.482C636.255 923.34 633.12 916.988 629.208 911.178C625.124 905.112 620.157 899.691 614.555 895.032C611.752 892.02 608.941 889.776 606.324 889.027C602.957 886.884 599.433 884.987 595.787 883.363C612.861 887.858 630.243 897.416 646.513 911.475C661.423 924.359 674.415 939.683 686.981 954.503C692.607 961.138 698.423 967.998 704.342 974.558C718.846 990.632 738.18 1009.74 762.79 1020.6C758.349 1020.26 753.733 1019.47 749.044 1018.57L700.709 1009.29ZM781.454 1017.68C776.854 1020.07 771.713 1020.87 766.245 1020.77C740.417 1010.28 720.224 990.389 705.223 973.763C699.317 967.217 693.506 960.364 687.886 953.736C675.291 938.881 662.269 923.522 647.288 910.578C628.494 894.337 608.205 884.048 588.578 880.561C586.291 879.796 583.97 879.137 581.623 878.584C603.158 877.034 626.347 885.245 652.102 903.494C666.627 913.786 680.214 925.788 693.354 937.395C702.353 945.344 711.659 953.565 721.2 961.179C749.179 983.507 773.851 995.745 798.541 999.506C798.336 999.8 798.13 1000.09 797.924 1000.38C793.248 1007.1 788.413 1014.05 781.454 1017.68ZM910.183 903.097C905.525 901.893 902.636 897.385 899.577 892.613C898.438 890.836 897.261 888.999 895.971 887.317C888.397 877.44 875.291 872.445 863.066 874.65C857.956 853.779 847.434 834.914 832.983 821.323C832.6 820.963 832.209 820.613 831.82 820.26C849.956 830.847 865.99 844.363 879.522 860.483C881.674 863.048 883.795 865.721 885.846 868.306C889.988 873.525 894.271 878.922 899.054 883.737C906.821 891.556 914.88 896.602 923.038 898.774C918.954 902.008 914.548 904.227 910.183 903.097ZM735.389 804.324L735.637 805.456C735.964 805.384 736.289 805.304 736.615 805.231C734.803 805.934 732.999 806.644 731.212 807.352C730.33 807.702 729.442 808.053 728.552 808.404C730.796 807.148 733.073 805.792 735.389 804.324ZM712.409 819.088C719.446 817.123 726.317 814.399 732.962 811.764C741.863 808.234 751.068 804.584 760.514 802.872C784.264 798.568 810.785 806.963 829.732 824.78C840.353 834.768 848.749 847.769 854.289 862.344C836.792 844.113 811.942 832.493 786.762 830.98C775.261 830.29 763.62 831.575 752.366 832.819C745.13 833.619 737.647 834.446 730.278 834.738C715.855 835.31 696.475 833.554 682.347 822.756C692.484 823.01 702.644 821.815 712.409 819.088ZM927.953 894.375C926.742 895.562 925.479 896.74 924.182 897.839C915.945 895.853 907.781 890.838 899.897 882.902C895.16 878.134 890.898 872.763 886.777 867.569C884.721 864.978 882.594 862.299 880.431 859.721C865.952 842.471 848.625 828.182 828.937 817.251L828.747 817.593C816.76 807.673 802.407 801.058 787.703 798.376C805.599 798.483 824.383 803.902 842.401 814.244C858.379 823.413 873.854 836.291 891.104 854.771C892.161 855.903 893.219 857.047 894.282 858.195C905.81 870.652 917.73 883.495 933.72 888.427C931.862 890.541 929.853 892.512 927.953 894.375ZM912.146 757.886C908.87 768.697 905.482 779.876 909.97 790.624C912.799 797.399 918.18 802.308 923.384 807.055C925.615 809.091 927.924 811.196 929.942 813.384C936.302 820.279 939.622 830.908 934.166 836.759C933.098 837.906 931.686 838.952 930.19 840.061C926.628 842.702 922.592 845.695 922.957 850.833C923.331 856.121 927.949 858.458 932.022 860.521C933.789 861.415 935.457 862.259 936.759 863.284C941.335 866.88 941.693 874.008 939.681 879.19C938.517 882.188 936.67 884.919 934.56 887.445C918.626 882.722 906.69 869.858 895.151 857.388C894.088 856.239 893.029 855.095 891.97 853.961C874.637 835.392 859.074 822.444 842.99 813.214C822.803 801.629 801.644 796.137 781.799 797.329L781.81 797.512C775.564 796.826 769.306 796.864 763.184 797.665C800.323 784.798 834.64 763.072 861.834 734.875C863.015 733.651 864.185 732.413 865.355 731.174C870.416 725.82 875.649 720.283 881.717 715.983C889.32 710.596 897.398 707.998 904.742 708.507C911.196 717.107 915.912 725.569 916.4 735.16C916.777 742.606 914.423 750.374 912.146 757.886ZM903.795 707.268C896.459 707.037 888.508 709.717 881.031 715.015C874.866 719.383 869.593 724.962 864.492 730.359C863.324 731.595 862.157 732.83 860.979 734.051C831.566 764.549 793.783 787.448 753.119 799.682C751.456 800.121 749.804 800.597 748.166 801.112C743.958 802.282 739.721 803.34 735.462 804.278C735.613 804.182 735.762 804.093 735.913 803.997C755.945 791.189 773.809 774.862 791.083 759.073C797.432 753.271 803.995 747.271 810.569 741.535C831.397 723.364 859.485 701.595 892.599 693.753C894.42 695.787 896.182 697.864 897.888 699.92C899.952 702.404 901.934 704.843 903.795 707.268ZM891.695 692.75C858.603 700.777 830.589 722.496 809.791 740.64C803.206 746.385 796.637 752.39 790.283 758.196C773.046 773.952 755.22 790.244 735.275 802.996C729.273 806.834 723.529 809.943 718.012 812.35C715.728 813.138 713.433 813.874 711.131 814.517C702.717 816.866 693.995 818.024 685.259 818.05C684.7 817.975 684.138 817.91 683.584 817.815L683.547 818.031C675.23 817.915 666.92 816.78 658.867 814.669C662.334 815.268 665.918 815.583 669.581 815.583C672.916 815.583 676.314 815.33 679.737 814.816C693.182 812.798 706.769 807.174 722.496 797.116C746.329 781.874 767.381 761.486 783.376 738.154C786.42 733.714 789.349 729.077 792.182 724.593C798.742 714.206 805.526 703.465 814.162 694.527C821.041 687.408 828.732 682.129 836.582 678.93C837.069 678.926 837.555 678.938 838.044 678.913C841.921 678.706 845.658 677.783 849.273 676.891C851.563 676.326 853.776 675.783 855.974 675.418C857.828 675.519 859.66 675.749 861.461 676.122L861.698 674.976C873.367 675.281 883.184 683.423 891.695 692.75ZM636.627 805.425C636.857 805.596 637.085 805.769 637.319 805.936C636.9 805.716 636.489 805.478 636.075 805.249C636.258 805.308 636.443 805.366 636.627 805.425ZM833.798 678.846C826.612 682.159 819.62 687.172 813.308 693.704C804.586 702.729 797.77 713.522 791.177 723.96C788.351 728.436 785.428 733.063 782.397 737.484C766.491 760.686 745.556 780.961 721.857 796.117C714.176 801.03 707.016 804.869 700.139 807.743C706.723 804.636 712.81 800.518 718.029 795.387C730.005 783.613 737.231 767.968 744.218 752.838C745.032 751.076 745.845 749.317 746.662 747.567C753.041 733.929 761.051 718.121 772.106 704.282C783.535 689.973 797.102 679.493 811.339 673.976L811.157 673.509C813.187 674.039 815.241 674.646 817.326 675.264C822.673 676.85 828.165 678.451 833.798 678.846ZM769.833 692.07C770.498 691.331 771.164 690.583 771.834 689.831C778.581 682.253 785.558 674.417 794.877 672.371C799.865 671.276 804.882 671.951 810.047 673.225C795.931 678.902 782.509 689.359 771.18 703.542C760.048 717.477 751.996 733.363 745.589 747.064C744.77 748.815 743.956 750.576 743.142 752.34C736.199 767.373 729.019 782.919 717.198 794.541C699.314 812.125 671.169 817.816 647.444 810.17C644.995 809.155 642.654 807.969 640.454 806.603C648.777 809.052 657.469 810.868 666.262 810.927C666.385 810.928 666.507 810.929 666.63 810.929C680.274 810.929 697.861 805.773 706.743 791.264C713.287 780.573 713.452 767.828 713.612 755.504C713.632 754.008 713.651 752.518 713.682 751.039C713.912 740.069 715.418 724.535 725.786 716.318C727.939 714.611 730.387 713.287 732.978 711.886C735.101 710.738 737.273 709.558 739.322 708.132C749.093 709.288 759.068 704.032 769.833 692.07ZM804.798 540.232C793.667 538.764 781.08 540.734 768.284 546.085C730.325 561.96 704.661 598.798 686.543 629.118C683.114 634.857 679.689 640.766 676.376 646.481C660.934 673.119 644.979 700.604 622.458 721.782C622.383 721.148 622.292 720.515 622.171 719.886C621.924 718.598 620.684 717.754 619.394 718.001C618.106 718.247 617.263 719.491 617.509 720.778C618.912 728.106 616.367 736.206 611.026 741.415C610.087 742.33 610.068 743.832 610.983 744.771C611.448 745.248 612.065 745.487 612.682 745.487C613.28 745.487 613.877 745.263 614.339 744.813C620.074 739.221 623.088 731.204 622.596 723.265C645.596 701.887 661.764 674.051 677.402 647.076C680.713 641.365 684.136 635.459 687.562 629.726C706.705 597.689 731.32 562.829 768.741 547.179C782.286 541.514 795.567 539.697 807.061 541.79C813.453 546.269 820.301 551.725 825.938 558.351C828.38 568.79 823.686 581.31 813.873 590.379C805.574 598.048 794.968 602.877 784.711 607.547L782.196 608.693C771.074 613.784 759.54 619.553 751.462 629.101C744.233 637.645 740.441 648.455 736.774 658.909C735.937 661.298 735.071 663.767 734.18 666.16C724.232 692.887 708.112 717.463 687.56 737.232C670.094 754.034 652.631 763.315 635.628 764.88C637.455 761.564 638.618 757.904 638.871 754.137C638.958 752.829 637.97 751.698 636.661 751.61C635.346 751.525 634.222 752.512 634.135 753.819C633.506 763.213 626.108 771.867 616.925 773.95C615.647 774.24 614.845 775.511 615.135 776.789C615.385 777.891 616.364 778.638 617.448 778.638C617.621 778.638 617.798 778.619 617.975 778.579C624.97 776.992 631.111 772.263 634.905 766.142C652.445 764.782 670.434 755.353 688.382 738.087C709.062 718.195 725.282 693.466 735.291 666.573C736.187 664.169 737.054 661.694 737.894 659.3C741.525 648.947 745.279 638.243 752.368 629.866C760.288 620.505 771.69 614.806 782.69 609.77L785.202 608.624C795.545 603.916 806.239 599.046 814.678 591.247C824.136 582.507 828.971 570.614 827.497 560.24C829.821 563.19 831.89 566.361 833.568 569.769C839.165 581.137 840.378 598.249 829.814 608.957C823.278 615.583 814.095 618.105 804.374 620.777C799.968 621.987 795.412 623.239 791.112 624.909C772.855 631.999 758.001 648.053 752.346 666.806C751.292 670.302 750.486 673.984 749.706 677.545C747.543 687.421 745.5 696.75 738.585 702.716C736.292 704.694 733.585 706.157 730.72 707.707C728.063 709.144 725.316 710.629 722.836 712.594C710.9 722.055 709.187 739.007 708.936 750.935C708.905 752.427 708.885 753.93 708.866 755.438C708.715 767.122 708.557 779.203 702.694 788.781C694.837 801.618 678.985 806.178 666.635 806.178C666.522 806.178 666.406 806.178 666.294 806.177C653.98 806.093 642.042 802.437 630.439 798.318C630.494 798.223 630.551 798.129 630.594 798.024C631.087 796.81 630.501 795.425 629.287 794.933C613.258 788.43 593.122 792.943 581.404 805.665C580.516 806.629 580.578 808.13 581.542 809.019C581.804 809.26 582.108 809.423 582.427 809.525C580.501 810.031 578.606 810.656 576.764 811.422C575.554 811.926 574.981 813.315 575.484 814.525C575.988 815.735 577.377 816.307 578.587 815.805C592.58 809.983 609.805 812.592 621.448 822.294C621.891 822.664 622.43 822.844 622.966 822.844C623.646 822.844 624.321 822.553 624.791 821.99C625.63 820.983 625.494 819.487 624.487 818.648C613.672 809.637 598.539 806.146 584.772 808.99C584.812 808.952 584.858 808.923 584.896 808.881C593.572 799.462 607.434 795.106 620.06 797.24C619.951 797.336 619.847 797.441 619.755 797.56C618.95 798.594 619.135 800.085 620.169 800.891C637.264 814.205 658.688 821.73 680.345 822.675C694.848 834.592 715.257 836.522 730.325 835.921C737.736 835.627 745.24 834.797 752.496 833.996C763.702 832.757 775.291 831.478 786.692 832.162C812.498 833.712 837.955 846.002 855.321 865.182C858.302 873.705 860.334 882.715 861.246 891.958C862.025 899.861 862.025 908.012 861.3 916.3C853.772 901.958 838.655 890.725 818.994 885.111C803.795 880.771 787.706 879.952 772.148 879.16C768.455 878.972 764.635 878.778 760.895 878.539C742.802 877.386 722.019 874.807 705.055 864.42C695.354 858.48 687.186 850.165 679.287 842.124C676.474 839.26 673.564 836.299 670.625 833.483C657.293 820.716 645.364 813.831 633.375 812.008C625.746 804.934 615.156 801.297 604.786 802.26C603.481 802.382 602.521 803.538 602.643 804.843C602.765 806.149 603.925 807.112 605.226 806.987C614.63 806.111 624.238 809.567 630.933 816.224C631.397 816.684 632.001 816.914 632.607 816.914C633.216 816.914 633.826 816.681 634.29 816.214C635.044 815.456 635.169 814.321 634.69 813.425C645.932 815.542 657.216 822.283 669.806 834.34C672.732 837.142 675.635 840.097 678.442 842.955C686.391 851.047 694.611 859.415 704.437 865.432C721.622 875.954 742.583 878.561 760.82 879.724C764.569 879.963 768.391 880.157 772.089 880.346C787.581 881.134 803.6 881.949 818.669 886.252C838.772 891.992 854.049 903.66 861.099 918.506C860.161 927.614 858.328 936.878 855.633 946.164C836.641 929.533 815.132 911.043 788.666 905.009C778.673 902.731 768.251 902.346 758.172 901.974C748.132 901.603 737.75 901.22 727.851 898.957C706.771 894.137 688.931 881.267 674.26 869.312C670.167 865.977 666.063 862.497 662.094 859.13C650.497 849.295 638.506 839.125 625.212 831.243C604.698 819.079 583.492 814.605 565.499 818.641L565.759 819.799C583.455 815.827 604.354 820.253 624.607 832.263C637.815 840.094 649.767 850.232 661.327 860.034C665.3 863.404 669.409 866.888 673.511 870.231C688.288 882.272 706.269 895.239 727.588 900.113C737.596 902.401 748.034 902.786 758.129 903.159C768.153 903.529 778.519 903.911 788.403 906.165C814.774 912.176 836.285 930.793 855.276 947.426C853.385 953.758 851.093 960.096 848.405 966.396C846.233 971.486 843.367 976.919 838.566 978.626C836.181 979.475 833.474 979.356 830.613 979.23C828.727 979.148 826.776 979.063 824.805 979.251C819.124 979.792 814.267 982.453 810.194 985.869C769.12 972.798 731.21 949.894 700.537 919.605C695.339 914.473 690.242 909.025 685.313 903.757C673.782 891.432 661.859 878.688 647.726 868.986C629.442 856.434 601.554 847.19 578.114 858.887L578.644 859.949C601.622 848.482 629.049 857.604 647.054 869.965C661.08 879.594 672.959 892.29 684.447 904.568C689.384 909.845 694.489 915.301 699.703 920.45C730.34 950.705 768.167 973.618 809.159 986.781C805.545 990.026 802.582 993.802 800.253 997.065C799.934 997.512 799.619 997.969 799.302 998.42C774.63 994.796 749.971 982.616 721.942 960.247C712.424 952.651 703.129 944.441 694.141 936.501C680.978 924.874 667.368 912.851 652.789 902.522C625.298 883.042 600.659 874.898 577.778 877.769C575.074 877.275 572.341 876.934 569.594 876.735C574.122 868.156 577.969 859.01 579.55 848.525C579.719 847.403 579.071 846.318 578.002 845.936C571.436 843.589 563.37 844.425 554.677 848.353C551.536 849.772 548.511 851.45 545.586 853.073C541.996 855.065 538.604 856.946 534.975 858.419C523.133 863.226 509.495 863.137 497.641 862.675C481.604 862.052 465.521 860.651 449.492 858.807C480.734 858.368 511.079 844.189 531.368 820.332C532.217 819.334 532.096 817.835 531.097 816.986C530.098 816.138 528.601 816.258 527.751 817.257C523.198 822.611 518.112 827.452 512.613 831.737L512.298 831.124C494.842 840.093 474.487 843.846 454.98 841.691C443.197 840.39 431.584 836.983 420.353 833.687C414.783 832.052 409.023 830.362 403.301 828.945C396.62 827.291 389.702 825.931 383.012 824.616C365.517 821.178 347.427 817.623 332.018 808.46C322.85 803.008 314.795 795.641 307.004 788.516C299.408 781.569 291.554 774.386 282.635 768.93C269.323 760.787 253.927 756.624 239.037 752.597L236.461 751.9C220.151 747.473 204.432 742.72 191.416 733.306C176.81 722.742 168.302 707.048 169.211 692.348L168.784 692.322C169.051 687.418 169.542 682.519 170.159 677.642C180.323 696.416 198.88 712.448 223.935 724.042C240.495 731.705 258.299 736.952 275.516 742.026C281.287 743.727 287.255 745.486 293.084 747.309C314.273 753.935 338.548 762.898 357.928 779.129C364.15 784.339 369.897 790.336 375.455 796.134C383.495 804.522 391.808 813.196 401.708 819.648C419.198 831.048 438.955 833.99 454.69 833.99C457.832 833.99 460.817 833.872 463.587 833.681C485.405 832.179 506.465 825.612 525.975 818.741L525.58 817.622C506.15 824.466 485.182 831.005 463.506 832.498C447.039 833.632 423.064 832.151 402.356 818.654C392.57 812.276 384.305 803.653 376.312 795.313C370.732 789.491 364.962 783.472 358.69 778.219C339.15 761.855 314.739 752.838 293.439 746.176C287.6 744.35 281.627 742.59 275.851 740.888C258.675 735.826 240.913 730.592 224.433 722.965C199.204 711.291 180.622 695.109 170.695 676.169L170.323 676.364C171.06 670.733 171.946 665.134 172.826 659.598C173.375 656.142 174.059 651.84 176.515 649.163C178.248 647.274 180.804 646.184 183.509 645.03C184.65 644.544 185.829 644.041 186.974 643.463C190.109 641.883 192.846 639.801 195.368 637.484C199.617 653.89 210.193 681.268 235.077 694.869C246.924 701.345 260.473 703.758 273.576 706.092C283.772 707.909 294.316 709.787 304.014 713.566C326.779 722.437 343.749 741.072 360.161 759.093C370.147 770.059 380.474 781.399 392.107 790.62C415.798 809.399 446.113 819.201 476.344 819.201C495.061 819.201 513.749 815.441 530.802 807.727L530.313 806.646C529.729 806.91 529.136 807.15 528.548 807.405C528.681 807.108 528.759 806.782 528.76 806.436C528.76 805.126 527.698 804.062 526.388 804.062C516.506 804.058 506.585 803.063 496.899 801.104C495.61 800.841 494.362 801.675 494.103 802.96C493.843 804.245 494.674 805.497 495.959 805.756C505.575 807.701 515.417 808.715 525.231 808.793C481.937 826.077 429.422 818.683 392.845 789.69C381.287 780.528 370.994 769.225 361.039 758.294C344.535 740.172 327.47 721.432 304.445 712.461C294.639 708.64 284.037 706.751 273.785 704.925C260.776 702.607 247.325 700.211 235.648 693.829C210.837 680.268 200.45 652.701 196.358 636.566C198.944 634.073 201.31 631.349 203.632 628.664C208.039 623.569 212.201 618.757 217.614 615.623C229.395 608.803 243.331 611.507 258.085 614.37C262.856 615.296 267.78 616.243 272.584 616.83C280.386 620.099 287.537 626.966 292.827 636.501C296.374 642.893 298.955 649.898 301.452 656.672C303.067 661.053 304.737 665.584 306.657 669.926C312.719 683.636 320.641 692.731 330.203 696.958C335.864 699.46 342.094 700.247 348.119 701.008C352.767 701.595 357.572 702.202 362.064 703.594C375.462 707.745 385.876 718.8 394.356 728.401C398.88 742.839 405.16 756.431 415.405 767.704C437.828 792.377 471.452 797.451 495.308 797.45C499.886 797.45 504.109 797.263 507.819 796.992C509.127 796.896 510.109 795.759 510.013 794.452C509.917 793.144 508.776 792.156 507.473 792.258C485.29 793.879 444.291 792.431 418.917 764.511C401.653 745.515 396.071 718.946 390.672 693.253C390.045 690.267 389.42 687.293 388.779 684.342C382.904 657.278 372.647 624.229 345.24 608.767C338.993 605.243 332.025 602.771 325.285 600.38C313.203 596.095 301.791 592.047 294.759 582.509C288.514 574.039 287.403 561.987 291.992 552.517C293.76 548.871 296.357 545.658 299.477 543.057C332.591 545.672 363.665 564.58 381.09 592.912C391.677 610.126 396.905 629.12 402.641 652.163L402.958 653.439C407.925 673.406 413.061 694.052 423.396 712.113C434.5 731.519 450.665 745.044 468.203 749.771C468.208 750.357 468.424 750.943 468.863 751.398C477.33 760.173 489.176 765.441 501.363 765.852C501.39 765.853 501.418 765.853 501.445 765.853C502.719 765.853 503.772 764.843 503.816 763.56C503.86 762.25 502.834 761.152 501.524 761.108C490.557 760.739 479.898 755.999 472.28 748.103C471.37 747.161 469.867 747.132 468.924 748.043C468.745 748.216 468.61 748.414 468.497 748.622C451.269 743.974 435.37 730.651 424.427 711.525C414.174 693.607 409.058 673.041 404.111 653.153L403.794 651.878C399.265 633.679 393.627 611.03 382.103 592.291C364.703 564 333.843 545.005 300.83 541.986C305.58 538.461 311.358 536.303 317.252 536.11C318.94 536.056 320.666 536.134 322.495 536.217C327.646 536.453 332.971 536.696 337.654 533.84C342.896 530.643 345.044 524.984 347.121 519.511C348.985 514.603 350.744 509.967 354.54 507.579C360.022 504.13 366.815 506.864 374.005 509.757C377.78 511.276 381.622 512.815 385.48 513.578C414.634 560.97 435.785 612.467 448.321 666.703C448.792 668.739 449.251 670.78 449.71 672.823C452.327 684.465 455.034 696.502 459.995 707.56C464.449 717.487 470.491 725.645 477.546 731.449C477.114 732.272 477.189 733.308 477.819 734.067C485.333 743.13 495.015 750.391 505.818 755.067C506.125 755.2 506.444 755.263 506.759 755.263C507.676 755.263 508.551 754.727 508.938 753.831C509.459 752.628 508.905 751.231 507.702 750.71C500.535 747.608 493.898 743.286 488.133 738.015C488.274 738.077 488.413 738.148 488.554 738.208L489.016 737.115C487.771 736.589 486.548 735.981 485.343 735.322C483.996 733.947 482.702 732.52 481.473 731.038C480.694 730.098 479.347 729.923 478.35 730.578C471.415 724.889 465.467 716.86 461.077 707.074C456.164 696.124 453.471 684.146 450.867 672.562C450.407 670.517 449.948 668.473 449.476 666.435C436.988 612.409 415.968 561.097 387.026 513.837C390.085 514.264 393.15 514.142 396.196 513.049C402.233 510.882 405.797 505.739 409.244 500.766C411.763 497.131 414.142 493.698 417.371 491.438C422.08 488.14 428.03 487.744 434.156 488.521C449.278 498.268 463.42 512.25 476.255 530.19C489.028 548.044 499.293 567.866 509.22 587.035C524.187 615.936 540.822 648.072 546.531 682.27C544.42 682.022 542.248 682.356 540.376 683.378C535.856 685.844 533.709 691.919 535.677 696.678C534.598 696.13 533.426 695.807 532.23 695.687C532.57 691.923 533.327 688.195 534.55 684.588C534.971 683.347 534.306 682 533.064 681.579C531.824 681.158 530.476 681.824 530.055 683.065C528.599 687.361 527.715 691.813 527.399 696.304C525.456 697.005 523.711 698.235 522.513 699.924C522.206 700.356 521.947 700.816 521.719 701.29C521.527 698.337 521.535 695.37 521.802 692.415C521.92 691.11 520.958 689.956 519.652 689.837C518.352 689.727 517.193 690.682 517.074 691.987C516.394 699.493 517.105 707.085 519.124 714.327C515.832 715.688 513.101 718.467 512.029 721.878C511.625 723.165 511.47 724.514 511.532 725.856C507.393 716.678 504.913 706.77 504.287 696.7C504.205 695.391 503.057 694.402 501.771 694.478C500.463 694.559 499.468 695.686 499.549 696.994C500.447 711.462 504.957 725.619 512.589 737.941C511.565 738.982 510.776 740.263 510.316 741.646C499.731 733.912 493.043 721.231 492.76 708.101C492.732 706.791 491.681 705.737 490.336 705.78C489.026 705.808 487.986 706.893 488.015 708.204C488.344 723.458 496.44 738.184 509.144 746.635C509.504 746.875 509.907 746.986 510.311 747.011C511.02 748.998 512.512 750.658 514.35 751.721C515.742 757.586 519.641 762.888 525.037 765.633C525.382 765.808 525.749 765.891 526.111 765.891C526.976 765.891 527.809 765.417 528.228 764.594C528.39 764.274 528.467 763.936 528.478 763.6C528.66 763.636 528.843 763.671 529.027 763.697L529.891 781.659C529.952 782.929 531.001 783.919 532.26 783.919C532.299 783.919 532.337 783.918 532.376 783.916C533.686 783.853 534.696 782.741 534.633 781.432L533.769 763.476C535.9 763.032 537.812 762.23 539.049 761.544C539.601 763.02 540.454 764.366 541.52 765.521C540.356 765.436 539.279 766.208 539.028 767.38L532.936 795.805C532.661 797.087 533.478 798.348 534.759 798.623C534.927 798.659 535.094 798.676 535.259 798.676C536.354 798.676 537.339 797.914 537.577 796.8L543.669 768.375C543.741 768.039 543.734 767.706 543.668 767.39C545.719 768.82 548.172 769.674 550.675 769.7C555.706 769.752 560.609 766.464 562.468 761.789C564.797 765.463 570.044 766.93 573.941 764.995C577.838 763.06 579.842 757.994 578.322 753.917C581.86 755.386 586.109 754.791 589.238 752.617C587.244 757.789 584.488 762.666 581.061 766.991C580.247 768.018 580.42 769.511 581.448 770.325C581.884 770.67 582.404 770.838 582.92 770.838C583.62 770.838 584.313 770.529 584.782 769.938C592.112 760.687 596.636 749.109 597.521 737.337C597.591 736.411 597.113 735.578 596.367 735.131C599.36 732.995 601.368 729.416 601.283 725.719C601.237 723.732 600.587 721.806 599.518 720.14C599.799 719.662 599.922 719.089 599.811 718.502C599.541 717.081 599.34 715.661 599.196 714.243C602.066 707.228 606.667 699.959 613.075 692.314C616.105 688.699 619.357 685.147 622.502 681.712C629.075 674.533 635.871 667.11 641.054 658.671C647.76 647.753 651.697 635.261 655.504 623.18C659.668 609.966 663.975 596.302 671.908 584.828C683.331 568.307 702.437 555.887 728.697 547.914C740.863 544.219 753.559 541.671 765.839 539.207C774.937 537.382 784.312 535.495 793.476 533.148C796.909 535.063 800.154 537.118 803.157 539.119C803.698 539.487 804.247 539.859 804.798 540.232ZM516.671 735.525C516.635 735.468 516.602 735.408 516.567 735.351C516.66 735.418 516.748 735.491 516.844 735.554C516.797 735.564 516.751 735.581 516.704 735.592C516.691 735.57 516.684 735.547 516.671 735.525ZM520.63 754.976C520.265 754.323 519.945 753.647 519.671 752.951C519.981 752.92 520.291 752.874 520.597 752.805C520.518 753.53 520.537 754.258 520.63 754.976ZM591.926 737.011C592.228 736.962 592.525 736.894 592.819 736.818C592.81 736.876 592.793 736.931 592.788 736.991C592.756 737.418 592.71 737.844 592.667 738.27C592.448 737.836 592.207 737.412 591.926 737.011ZM759.049 524.856C770.64 523.026 782.024 526.997 791.952 532.323C783.21 534.519 774.282 536.313 765.608 538.053C753.301 540.523 740.576 543.076 728.354 546.787C701.833 554.841 682.513 567.415 670.934 584.162C662.899 595.784 658.565 609.534 654.374 622.832C650.588 634.844 646.674 647.265 640.044 658.058C634.92 666.401 628.163 673.781 621.628 680.919C618.475 684.363 615.214 687.925 612.167 691.559C606.316 698.539 601.945 705.222 599.002 711.698C597.908 690.44 609.888 669.886 619.449 655.766C621.72 652.411 624.113 649.006 626.426 645.713C637.466 629.998 648.882 613.748 653.274 594.736C653.834 592.312 654.297 589.798 654.746 587.368C656.339 578.737 657.842 570.585 663.405 564.953C669.598 558.683 678.746 557.56 688.429 556.371C693.31 555.772 698.357 555.153 703.098 553.825C712.988 551.056 721.552 545.119 729.835 539.377C732.85 537.287 735.812 535.235 738.793 533.351C738.903 533.367 739.014 533.382 739.127 533.382C739.224 533.382 739.321 533.376 739.42 533.364C740.349 533.249 741.078 532.608 741.365 531.779C746.97 528.46 752.709 525.858 759.049 524.856ZM727.131 535.479C719.17 540.997 710.939 546.703 701.818 549.257C697.422 550.488 692.556 551.085 687.85 551.663C677.787 552.898 667.38 554.175 660.027 561.62C653.438 568.291 651.729 577.553 650.077 586.509C649.639 588.888 649.184 591.349 648.648 593.67C644.464 611.779 633.32 627.644 622.542 642.986C620.217 646.295 617.813 649.717 615.519 653.106C604.989 668.658 591.672 691.753 594.606 715.821C593.599 715.348 592.527 715.02 591.414 714.89C593.76 710.72 592.876 705.006 589.401 701.722L617.083 630.729C624.318 612.174 631.8 592.986 644.197 576.933C651.741 567.163 661.062 558.684 670.077 550.485C674.916 546.084 679.92 541.532 684.605 536.823C701.099 520.243 709.912 504.436 711.555 488.539C711.66 488.617 711.771 488.693 711.875 488.771C724.861 498.483 733.931 513.482 736.46 529.222C733.283 531.217 730.189 533.358 727.131 535.479ZM1244.07 267.933C1245.12 271.384 1244.63 274.844 1243.41 278.366C1210.52 275.47 1176.49 284.672 1149.59 303.828C1143.18 308.399 1137.07 313.573 1131.17 318.577C1126.48 322.556 1121.62 326.672 1116.65 330.449C1102.94 340.859 1090.98 346.467 1079.01 348.097C1064.71 350.042 1050.69 345.291 1042.7 335.932C1061.52 340.6 1079.33 339.227 1093.01 332.017C1106.6 324.851 1116.25 312.437 1125.59 300.432C1130.31 294.369 1135.18 288.1 1140.51 282.568C1163.69 258.51 1198.16 246.656 1231.2 251.178C1232.84 253.544 1234.84 255.634 1236.79 257.681C1239.93 260.961 1242.89 264.06 1244.07 267.933ZM1008.66 345.291C997.299 339.515 984.223 337.472 971.757 335.893L968.885 335.532C956.848 334.028 944.401 332.472 933.156 327.727C921.817 322.941 913.106 315.001 908.867 305.869C909.131 302.804 908.956 299.681 908.394 296.603C914.551 305.297 925.493 310.048 934.483 311.561C943.78 313.127 953.341 312.442 962.587 311.78C966.387 311.508 970.316 311.227 974.166 311.107C998.059 310.363 1021.87 315.731 1043.14 326.615C1041.76 328.154 1040.57 329.828 1039.41 331.467C1037.64 333.971 1035.98 336.337 1033.76 337.988C1030.35 340.52 1025.93 341.206 1021.25 341.931C1018.68 342.33 1016.02 342.742 1013.45 343.485C1011.79 343.966 1010.2 344.581 1008.66 345.291ZM887.726 266.498C901.305 265.911 912.674 263.592 922.737 259.401C934.573 254.472 944.381 246.661 950.94 237.312C954.426 233.475 957.591 229.337 960.341 224.913C968 212.592 972.46 198.501 976.773 184.874C980.604 172.769 984.566 160.251 990.755 149.035C1001.64 129.305 1019.67 113.652 1040.68 105.53C1050.59 107.337 1059.56 114.863 1067.97 122.608C1070.88 125.293 1073.72 128.046 1076.28 130.874C1059.6 125.819 1039.18 130.801 1022.99 144.197C1007.05 157.384 996.786 175.93 987.635 193.796C986.829 195.369 986.027 196.947 985.223 198.526C976.879 214.918 968.251 231.868 955.574 245.367C939.709 262.259 917.701 272.521 895.929 273.683C893.403 271.088 890.641 268.704 887.726 266.498ZM959.809 192.059C959.586 188.205 959.356 184.22 959.331 180.355C959.272 171.067 960.907 154.56 972.262 146.492C986.015 145.758 995.691 135.288 1005.05 125.157C1014.07 115.39 1022.59 106.163 1034.29 105.197C1035.66 105.084 1037.01 105.099 1038.34 105.215C1017.9 113.633 1000.4 129.095 989.715 148.462C983.469 159.781 979.489 172.356 975.641 184.516C971.35 198.073 966.913 212.092 959.332 224.286C957.968 226.48 956.494 228.599 954.939 230.653C956.321 227.888 957.435 225.029 958.245 222.101C960.973 212.241 960.382 201.981 959.809 192.059ZM1028.16 90.779C1027.49 89.879 1026.78 89.015 1026.1 88.18C1024.37 86.084 1022.74 84.104 1022 81.835C1020.95 78.648 1021.69 75.091 1022.48 71.325C1023.21 67.81 1023.97 64.177 1023.39 60.436C1022.39 54.063 1017.95 49.462 1013.66 45.012C1009.68 40.887 1005.91 36.99 1005.2 32.062C1005.02 30.752 1005.05 29.367 1005.09 27.9C1005.1 27.25 1005.12 26.588 1005.11 25.917C1012.9 24.202 1020.87 22.517 1028.85 22.072C1034.52 28.769 1036.8 38.371 1034.64 46.876C1034.04 49.241 1033.1 51.585 1032.2 53.852C1030.76 57.464 1029.28 61.199 1029.06 65.172C1028.79 70.034 1030.43 74.706 1032.02 79.223C1032.48 80.52 1032.95 81.861 1033.36 83.177C1034.97 88.29 1036.1 95.408 1032.3 100.287L1032.72 100.615C1032.35 100.661 1031.97 100.696 1031.61 100.755C1031.85 97.658 1030.68 94.175 1028.16 90.779ZM1090.69 244.151C1088.21 246.765 1085.16 249.161 1082.22 251.478C1075.88 256.477 1069.31 261.645 1067.04 269.751C1065.09 276.686 1066.95 283.612 1068.74 290.31C1069.01 291.33 1069.29 292.346 1069.54 293.356C1070.39 296.704 1070.84 299.719 1070.88 302.395C1055.71 310.141 1035.97 311.009 1010.63 305.034C1005.04 303.716 999.377 302.172 993.898 300.679C978.768 296.555 963.123 292.291 947.216 292.254C943.938 292.248 940.65 292.418 937.452 292.584C932.849 292.823 928.087 293.069 923.433 292.78C918.199 292.455 911.281 291.233 905.574 287.519C905.573 287.516 905.572 287.514 905.571 287.511C908.063 288.466 910.891 288.961 913.942 288.961C915.58 288.961 917.279 288.82 919.022 288.536C923.18 287.857 927.225 286.497 931.137 285.182C932.721 284.649 934.306 284.116 935.902 283.625C948.112 279.871 961.101 278.609 973.662 277.388C980.672 276.707 987.921 276.002 994.978 274.873C1035.3 268.423 1073.27 246.941 1099.66 215.772C1100.89 225.936 1097.76 236.707 1090.69 244.151ZM1044 325.717C1022.47 314.634 998.335 309.169 974.13 309.921C970.256 310.042 966.315 310.324 962.503 310.597C953.327 311.255 943.84 311.934 934.681 310.391C924.955 308.753 912.883 303.24 907.54 292.925C907.198 291.724 906.807 290.537 906.355 289.373C910.954 291.981 916.716 293.55 923.361 293.963C928.089 294.258 932.882 294.007 937.515 293.767C940.697 293.601 943.989 293.436 947.215 293.439C962.963 293.476 978.531 297.719 993.587 301.822C999.076 303.318 1004.75 304.865 1010.36 306.188C1021.51 308.817 1031.6 310.135 1040.71 310.135C1052.28 310.135 1062.28 308.002 1070.87 303.738C1070.73 307.618 1069.67 310.712 1067.68 312.986C1065.04 316.01 1061 317.412 1056.71 318.895C1052.82 320.243 1048.79 321.636 1045.46 324.372C1044.95 324.799 1044.46 325.251 1044 325.717ZM903.178 282.939C903.03 282.697 902.874 282.461 902.722 282.221C919.355 279.283 936.837 272.703 950.152 264.283C964.927 254.94 978.697 241.182 991.077 223.392C995.29 217.338 999.249 210.977 1003.08 204.825C1006.96 198.59 1010.97 192.143 1015.24 186.028C1025.45 171.404 1035.3 161.514 1046.25 154.905C1059.28 147.031 1073.8 144.381 1086.44 147.488C1087.24 150.442 1087.47 153.477 1086.96 156.599C1086.53 159.227 1085.56 161.788 1084.54 164.499C1084.28 165.185 1084.03 165.877 1083.78 166.572C1065.75 172.513 1047.84 183.606 1029.19 200.396C1018.34 210.157 1008.15 220.934 998.3 231.357C992.656 237.328 986.821 243.502 980.928 249.414C970.274 260.102 958.448 270.942 944.184 277.837C930.32 284.538 915.626 286.316 903.178 282.939ZM994.792 273.701C987.771 274.825 980.54 275.527 973.549 276.206C961.627 277.365 949.323 278.563 937.607 281.887C939.986 281.031 942.355 280.037 944.7 278.904C959.124 271.931 971.04 261.012 981.768 250.25C987.672 244.327 993.514 238.147 999.163 232.17C1009 221.765 1019.17 211.005 1029.98 201.276C1048.21 184.87 1065.7 173.953 1083.28 167.996C1082.33 170.807 1081.59 173.721 1081.64 176.835C1081.77 184.274 1086.19 190.151 1090.46 195.834C1092.16 198.097 1093.92 200.437 1095.31 202.783C1097.41 206.298 1098.75 210.195 1099.42 214.216C1073.19 245.596 1035.17 267.241 994.792 273.701ZM1088.92 140.783C1089.86 140.919 1090.81 140.985 1091.76 140.985C1097.25 140.985 1102.69 138.857 1106.68 136.264C1112.1 132.739 1116.52 127.872 1120.8 123.165C1121.74 122.136 1122.67 121.107 1123.61 120.093C1128.23 115.129 1133.84 109.787 1140.68 107.233C1143.59 113.735 1146.01 120.455 1147.92 127.362C1142.24 127.209 1136.11 129.503 1129.24 134.353C1127.49 135.588 1125.76 136.916 1124.08 138.199C1120.05 141.292 1115.88 144.491 1111.21 146.562C1105.53 149.077 1096.87 150.207 1091.15 145.116L1090.78 145.531C1090.29 143.919 1089.66 142.337 1088.92 140.783ZM1122.75 119.285C1121.8 120.303 1120.86 121.334 1119.92 122.368C1115.7 127.019 1111.33 131.828 1106.03 135.269C1101.34 138.316 1094.59 140.689 1088.25 139.459C1086.82 136.74 1085.05 134.114 1083.06 131.581C1085.07 132.288 1087.21 132.662 1089.34 132.662C1091.98 132.662 1094.59 132.095 1096.93 130.895C1101.42 128.589 1104.6 124.537 1107.68 120.618C1108.18 119.983 1108.67 119.35 1109.17 118.727C1116.45 109.677 1125.18 102.09 1135.14 96.141C1136.96 99.414 1138.64 102.752 1140.19 106.151C1133.16 108.801 1127.45 114.236 1122.75 119.285ZM956.437 246.18C969.23 232.557 977.897 215.531 986.279 199.065C987.082 197.486 987.884 195.91 988.69 194.337C997.784 176.581 1007.98 158.154 1023.75 145.111C1040.26 131.453 1061.2 126.696 1077.83 132.633C1081.52 136.957 1084.49 141.458 1086.04 146.165C1073.27 143.243 1058.71 145.991 1045.63 153.888C1034.54 160.586 1024.58 170.582 1014.27 185.347C1009.98 191.489 1005.96 197.949 1002.07 204.197C998.251 210.336 994.299 216.685 990.103 222.714C977.815 240.373 964.16 254.021 949.518 263.279C936.199 271.703 918.663 278.275 902.033 281.144C900.522 278.896 898.825 276.791 896.991 274.804C918.736 273.367 940.61 263.032 956.437 246.18ZM916.092 285.802C921.393 285.802 926.874 285.02 932.359 283.523C931.826 283.701 931.293 283.878 930.76 284.057C926.894 285.357 922.896 286.702 918.832 287.365C913.499 288.235 908.629 287.687 904.788 285.867C904.536 285.365 904.275 284.869 904.004 284.379C907.867 285.322 911.922 285.802 916.092 285.802ZM1043.29 334.204C1044.93 331.877 1046.48 329.68 1048.48 328.04C1051.15 325.844 1054.61 324.648 1058.27 323.381C1062.95 321.76 1067.79 320.083 1071.26 316.108C1075.86 310.834 1076.83 302.786 1074.15 292.189C1073.97 291.483 1073.77 290.771 1073.59 290.06C1076.89 290.814 1080.19 291.153 1083.44 291.153C1100.07 291.152 1115.44 282.417 1124.11 276.351C1131.02 271.513 1137.55 265.945 1143.86 260.561C1151.63 253.939 1159.65 247.093 1168.42 241.598C1185.84 230.672 1206.65 224.973 1227.21 225.429C1227.51 227.875 1227.43 230.441 1227.34 233.118C1227.2 237.571 1227.05 242.176 1228.73 246.591C1229.18 247.756 1229.74 248.846 1230.37 249.883C1197.26 245.684 1162.87 257.662 1139.66 281.748C1134.29 287.326 1129.39 293.62 1124.66 299.707C1115.4 311.613 1105.82 323.923 1092.46 330.97C1079.02 338.053 1061.48 339.367 1042.91 334.746C1043.04 334.564 1043.16 334.383 1043.29 334.204ZM1178.15 170.797C1182.27 172.048 1186.34 173.516 1186.81 176.454C1187.28 179.392 1183.81 182.129 1180.76 184.544L1180.64 184.638C1168.28 194.4 1160.4 209.615 1159.55 225.337C1159.48 226.646 1160.48 227.764 1161.79 227.835C1161.84 227.837 1161.88 227.839 1161.92 227.839C1163.17 227.839 1164.22 226.859 1164.29 225.593C1164.98 212.876 1170.7 200.529 1179.83 191.665C1185.82 197.136 1193.5 200.001 1200.95 202.778C1202.75 203.451 1204.62 204.148 1206.41 204.863C1218.03 209.514 1224.88 215.612 1226.76 222.986C1226.87 223.399 1226.96 223.817 1227.03 224.238C1206.29 223.819 1185.34 229.58 1167.78 240.592C1158.95 246.133 1150.89 253.009 1143.09 259.657C1136.8 265.023 1130.29 270.573 1123.43 275.378C1113.13 282.588 1093.21 293.633 1073.24 288.759C1071.64 282.78 1070.04 276.615 1071.61 271.033C1073.47 264.416 1079.15 259.943 1085.16 255.207C1088.23 252.786 1091.41 250.282 1094.13 247.419C1105.79 235.14 1108.05 214.907 1099.39 200.356C1097.87 197.789 1096.03 195.345 1094.25 192.982C1090.26 187.671 1086.49 182.653 1086.39 176.753C1086.32 173.236 1087.62 169.803 1088.98 166.169C1089.43 164.985 1089.87 163.778 1090.29 162.553C1090.29 162.549 1090.3 162.548 1090.31 162.544C1098.33 157.677 1107.95 157.788 1118.13 157.898C1123.9 157.962 1129.87 158.028 1135.62 157.13C1138.12 156.741 1141.58 155.936 1144.87 154.294C1155.3 160.647 1166.1 167.145 1178.15 170.797ZM1148.96 144.139C1146.3 149.865 1139.01 151.798 1134.89 152.44C1129.53 153.277 1123.76 153.214 1118.18 153.152C1109.22 153.05 1100.01 152.959 1091.76 156.49C1092.2 153.075 1091.92 149.768 1091.08 146.575C1094.11 148.948 1097.78 149.875 1101.42 149.875C1105.12 149.875 1108.78 148.937 1111.69 147.648C1116.49 145.519 1120.72 142.277 1124.81 139.142C1126.47 137.866 1128.19 136.545 1129.92 135.324C1136.72 130.525 1142.73 128.307 1148.24 128.563C1148.42 129.213 1148.59 129.862 1148.76 130.516C1149.95 135.238 1150.8 140.157 1148.96 144.139ZM1105.66 73.264C1106.07 75.448 1106.5 77.707 1107.54 79.875C1109.15 83.198 1112.65 86.293 1116.88 85.734C1118.85 85.47 1120.47 84.454 1121.91 83.558C1123.48 82.578 1124.5 81.996 1125.38 82.163C1126.34 82.346 1127.28 83.544 1128.15 84.811C1130.44 88.161 1132.57 91.596 1134.56 95.106C1124.47 101.129 1115.62 108.816 1108.25 117.984C1107.75 118.61 1107.25 119.247 1106.75 119.885C1103.75 123.703 1100.65 127.652 1096.39 129.839C1091.81 132.19 1086.09 131.921 1081.46 129.627C1078.32 125.91 1074.76 122.405 1071.18 119.116C1068.43 116.584 1065.55 114.016 1062.53 111.625C1074.78 94.941 1088.19 78.917 1102.46 63.931C1103.67 66.105 1104.6 68.438 1105.17 70.873C1105.36 71.663 1105.51 72.464 1105.66 73.264ZM1101.83 62.867C1087.45 77.951 1073.93 94.089 1061.6 110.894C1059.78 109.487 1057.91 108.153 1056 106.935C1066.4 88.013 1078.89 70.226 1093.17 54.029C1096.67 56.272 1099.65 59.326 1101.83 62.867ZM1088.94 51.826C1090.04 52.277 1091.11 52.811 1092.14 53.406C1077.87 69.61 1065.4 87.392 1054.99 106.306C1053.55 105.435 1052.09 104.632 1050.61 103.918C1056.92 83.939 1067.42 65.093 1081.1 49.232C1082.03 49.542 1082.97 49.829 1083.89 50.113C1085.67 50.658 1087.34 51.172 1088.94 51.826ZM1065.03 35.197C1065.79 36.17 1066.49 37.197 1067.23 38.284C1068.86 40.662 1070.54 43.12 1072.93 45.076C1075.05 46.814 1077.45 47.926 1079.9 48.813C1066.3 64.683 1055.84 83.486 1049.52 103.416C1046.81 102.204 1044.01 101.299 1041.12 100.803C1042.03 94.63 1042.36 88.327 1042.68 82.216C1043 75.969 1043.33 69.51 1044.29 63.242C1045.88 52.865 1050.09 39.042 1061.01 31.043C1062.5 32.314 1063.85 33.699 1065.03 35.197ZM1036.8 22.081C1045.94 22.665 1054.08 25.577 1060.06 30.268C1048.99 38.531 1044.72 52.539 1043.12 63.065C1042.15 69.39 1041.82 75.88 1041.49 82.156C1041.18 88.238 1040.85 94.509 1039.95 100.626C1037.97 100.366 1035.96 100.297 1033.9 100.467C1033.79 100.476 1033.69 100.496 1033.59 100.506C1037.26 95.255 1036.14 88.036 1034.49 82.822C1034.07 81.487 1033.6 80.137 1033.14 78.831C1031.59 74.423 1029.99 69.866 1030.24 65.239C1030.45 61.459 1031.84 57.978 1033.3 54.293C1034.22 51.99 1035.17 49.61 1035.79 47.17C1037.97 38.595 1035.82 28.947 1030.34 22.005C1032.49 21.926 1034.64 21.942 1036.8 22.081ZM953.163 27.65C957.452 21.634 965.226 17.758 974.494 17.016C982.312 16.389 990.221 17.876 997.927 19.504C998.202 19.655 998.448 19.854 998.672 20.085L999.5 25.649C999.589 26.249 999.906 26.767 1000.35 27.132C1000.35 27.35 1000.35 27.559 1000.34 27.782C1000.3 29.381 1000.26 31.034 1000.51 32.741C1001.43 39.185 1005.91 43.824 1010.24 48.309C1014.2 52.408 1017.94 56.28 1018.7 61.168C1019.15 64.054 1018.51 67.115 1017.83 70.355C1016.95 74.567 1016.04 78.922 1017.49 83.317C1018.51 86.432 1020.5 88.855 1022.43 91.197C1023.11 92.023 1023.75 92.803 1024.35 93.605C1025.22 94.79 1027.97 98.895 1026.46 102C1026.44 102.035 1026.44 102.072 1026.42 102.107C1016.66 105.609 1009.01 113.879 1001.56 121.936C992.694 131.538 984.292 140.599 972.946 141.662C972.624 141.517 972.27 141.438 971.9 141.452C958.837 141.86 946.425 131.242 944.774 118.289C943.122 105.335 952.485 91.951 965.219 89.06C966.211 88.835 967.229 88.661 968.306 88.477C971.503 87.93 974.809 87.365 977.717 85.391C982.364 82.237 984.649 75.905 983.272 69.993C982.086 64.908 978.446 60.331 973.283 57.436C970.538 55.897 967.569 54.912 964.698 53.959C960.735 52.644 956.993 51.402 954.205 48.868C948.336 43.531 948.928 33.589 953.163 27.65ZM951.012 52.379C954.544 55.59 958.947 57.05 963.203 58.463C965.985 59.386 968.612 60.258 970.961 61.575C974.905 63.787 977.779 67.336 978.649 71.069C979.576 75.048 978.063 79.419 975.051 81.463C972.994 82.859 970.328 83.315 967.506 83.798C966.414 83.985 965.284 84.178 964.168 84.431C949.155 87.838 938.117 103.618 940.064 118.889C941.749 132.094 952.925 143.231 965.869 145.699C956.047 155.528 954.526 171.19 954.585 180.385C954.61 184.371 954.844 188.418 955.069 192.332C955.644 202.309 956.188 211.732 953.671 220.836C949.65 235.373 937.404 248.152 920.912 255.02C909.844 259.63 897.03 261.866 881.101 261.907C879.997 261.202 878.883 260.517 877.763 259.849C877.183 242.032 882.333 222.892 893.822 200.062C897.863 192.031 902.378 184.064 906.745 176.359C913.266 164.85 920.01 152.95 925.322 140.583C938.294 110.381 942.873 77.639 946.431 45.476C947.415 48.113 948.94 50.495 951.012 52.379ZM898.906 95.322C902.026 91.564 905.851 88.156 909.551 84.86C915.706 79.375 922.071 73.704 925.808 66.012C927.847 61.815 928.94 57.321 929.996 52.974C930.773 49.779 931.507 46.761 932.587 43.839C934.051 39.88 936.799 35.447 940.545 32.945C937.637 40.383 936.347 48.762 935.147 56.575C934.942 57.911 934.739 59.236 934.529 60.545C929.322 93.097 915.416 123.983 901.966 153.853C901.423 155.059 900.881 156.263 900.34 157.465C885.479 140.753 884.548 112.612 898.906 95.322ZM902.921 163.304C903.255 162.928 903.446 162.477 903.501 162.01C904.427 159.946 905.359 157.877 906.294 155.8C919.87 125.648 933.908 94.468 939.216 61.293C939.427 59.975 939.632 58.639 939.838 57.293C941.153 48.723 942.497 39.974 945.753 32.713C944.973 35.966 944.923 39.326 945.568 42.469C941.97 75.465 937.524 109.165 924.233 140.112C918.946 152.42 912.218 164.291 905.712 175.772C901.339 183.49 896.816 191.47 892.762 199.527C881.341 222.224 876.141 241.329 876.562 259.138C875.75 258.663 874.931 258.201 874.111 257.738C875.796 225.758 888.627 195.201 902.921 163.304ZM907.937 319.716C907.373 318.422 906.801 317.104 906.23 315.793C907.41 313.319 908.185 310.701 908.606 308.011C913.216 316.712 921.768 324.209 932.694 328.82C944.089 333.63 956.619 335.196 968.736 336.71L971.607 337.07C983.673 338.598 996.313 340.554 1007.32 345.939C1002 348.639 997.333 352.479 992.777 356.231C991.206 357.525 989.582 358.862 987.977 360.111C980.301 366.087 973.325 369.029 967.163 368.914C951.694 347.902 931.635 330.411 907.937 319.716ZM1004.06 418.405C1011.58 419.34 1019.07 421.422 1026.61 424.132C1026.85 424.241 1027.09 424.343 1027.34 424.455C1035.55 428.228 1043.26 433.302 1050.72 438.208C1052.53 439.398 1054.34 440.588 1056.15 441.761C1070.76 451.196 1088.3 461.016 1107.61 462.3C1111.9 462.586 1116.24 462.442 1120.45 462.303C1123.66 462.198 1126.98 462.088 1130.24 462.172C1139.3 462.405 1146.24 464.276 1151.44 467.889C1157.48 472.085 1161.33 478.726 1165.06 485.148C1165.83 486.469 1166.59 487.786 1167.37 489.079C1173.14 498.635 1179.26 504.147 1186.03 505.885C1186.13 508.857 1186.39 511.817 1186.65 514.676C1178.52 514.053 1169.98 509.945 1160.63 502.153C1158.13 500.07 1155.66 497.839 1153.28 495.682C1147.92 490.839 1142.38 485.831 1136.04 482.093C1127.7 477.174 1118.21 474.576 1109.02 472.063C1104.07 470.708 1098.95 469.307 1094.08 467.56C1078.93 462.128 1065.19 453.018 1051.9 444.208C1049.49 442.611 1047.08 441.016 1044.67 439.442C1031.38 430.777 1017.08 422.416 1001.62 418.383C1002.42 418.369 1003.24 418.374 1004.06 418.405ZM1185.99 504.644C1179.67 502.889 1173.89 497.582 1168.39 488.466C1167.61 487.178 1166.85 485.867 1166.09 484.552C1162.29 478.018 1158.37 471.26 1152.11 466.914C1146.72 463.164 1139.57 461.225 1130.27 460.985C1126.98 460.9 1123.64 461.01 1120.41 461.116C1116.23 461.253 1111.91 461.395 1107.69 461.115C1088.65 459.848 1071.28 450.116 1056.8 440.762C1054.98 439.591 1053.18 438.403 1051.37 437.215C1046.75 434.174 1042.03 431.07 1037.14 428.243C1041.32 429.981 1045.53 431.825 1049.78 433.697C1068.09 441.746 1087.01 450.07 1107.46 451.09C1111.36 451.285 1115.28 451.206 1119.08 451.13C1123.8 451.036 1128.69 450.938 1133.41 451.382C1140.13 452.017 1149.33 454.181 1155.05 460.888C1158.18 464.571 1159.95 469.193 1161.82 474.086C1162.26 475.232 1162.7 476.375 1163.16 477.505C1165.29 482.804 1168.92 490.253 1175.79 493.753C1179.09 495.434 1183.15 495.789 1186.79 494.788C1186.12 497.982 1185.93 501.31 1185.99 504.644ZM991.107 413.272C990.429 411.395 989.715 409.533 988.965 407.693C993.261 410.209 997.891 412.026 1002.68 413.439C998.856 413.067 995.003 412.994 991.107 413.272ZM1009.81 425.658C1022.01 430.886 1033.46 437.897 1044.56 445.195C1033.1 438.463 1021.5 431.942 1009.81 425.658ZM1179.74 543.389C1155.3 520.081 1127.16 498.078 1091.93 474.736C1097.79 477.849 1103.71 480.835 1109.51 483.761C1117.83 487.953 1126.43 492.287 1134.69 496.909C1157.55 509.708 1173.28 522.542 1184.2 537.299L1184.75 536.898C1183.61 539.463 1182.01 541.74 1179.74 543.389ZM1184.98 536.367C1173.97 521.566 1158.16 508.692 1135.27 495.874C1126.99 491.239 1118.37 486.898 1110.05 482.701C1099.45 477.362 1088.5 471.842 1078.15 465.671C1076.65 464.777 1075.16 463.849 1073.66 462.922C1072.59 462.246 1071.52 461.574 1070.45 460.902C1065.14 457.522 1059.89 454.014 1054.77 450.574C1037.96 439.293 1020.58 427.641 1001.14 421.054C999.666 420.279 998.193 419.499 996.716 418.733C996.987 418.697 997.262 418.672 997.535 418.641C1014.29 422.165 1029.74 431.123 1044.02 440.435C1046.43 442.007 1048.83 443.601 1051.24 445.196C1064.59 454.045 1078.39 463.196 1093.68 468.676C1098.6 470.439 1103.74 471.846 1108.71 473.207C1117.82 475.7 1127.23 478.277 1135.44 483.115C1141.67 486.791 1147.17 491.758 1152.48 496.562C1154.88 498.727 1157.35 500.966 1159.87 503.064C1169.5 511.083 1178.32 515.287 1186.77 515.877C1186.83 516.535 1186.89 517.193 1186.94 517.843C1187.38 522.844 1187.44 530.341 1184.98 536.367ZM1221.51 436.429C1222.31 436.99 1223.13 437.495 1223.92 437.985C1225.31 438.845 1226.63 439.657 1227.69 440.662C1228.86 441.764 1230.06 443.637 1229.59 445.288C1229.08 447.06 1226.67 447.996 1224.7 447.853C1222.28 447.674 1219.96 446.423 1217.49 445.1L1217.1 444.889C1185 427.693 1147.55 421.629 1111.67 427.81C1110.38 428.033 1109.51 429.26 1109.73 430.552C1109.95 431.844 1111.18 432.71 1112.47 432.488C1131.73 429.17 1151.45 429.492 1170.5 433.255C1170.76 434.007 1171.39 434.611 1172.23 434.792C1175.62 435.526 1177.47 439.916 1178.01 443.453C1178.2 444.65 1178.32 445.87 1178.44 447.16C1178.79 450.726 1179.15 454.414 1180.99 457.789C1181.69 459.065 1182.54 460.182 1183.37 461.262C1184.51 462.757 1185.59 464.169 1185.98 465.69C1186.41 467.354 1186.04 469.268 1185.65 471.294C1185.33 472.959 1185 474.681 1185.03 476.504C1185.12 480.851 1187.27 484.624 1189.32 487.773C1189.21 487.993 1189.07 488.208 1188.96 488.43C1188.27 489.044 1187.5 489.471 1186.82 489.761C1184.05 490.954 1180.56 490.861 1177.94 489.525C1172.56 486.779 1169.56 480.711 1167.56 475.732C1167.11 474.628 1166.68 473.509 1166.26 472.39C1164.32 467.337 1162.32 462.113 1158.66 457.81C1151.91 449.891 1141.44 447.374 1133.85 446.656C1128.87 446.185 1123.84 446.285 1118.98 446.384C1115.26 446.458 1111.42 446.535 1107.7 446.35C1088.12 445.373 1069.6 437.228 1051.69 429.352C1041.98 425.083 1032.51 420.918 1023.04 417.873C1026.83 418.588 1030.68 419.345 1034.39 420.271C1039.45 421.531 1044.52 423.175 1049.42 424.764C1057.57 427.407 1066 430.14 1074.66 431.203C1077.62 431.567 1080.59 431.731 1083.56 431.731C1096.8 431.731 1109.92 428.47 1121.38 425.092C1124.57 424.152 1127.75 423.17 1130.93 422.187C1142.61 418.584 1154.68 414.858 1166.95 413.365C1184.42 411.241 1200.18 414.391 1211.4 422.222C1213.06 427.893 1216.69 433.05 1221.51 436.429ZM1204.79 404.37C1205.62 404.753 1206.41 405.116 1207.02 405.56C1209.54 407.406 1209.88 411.178 1210.25 415.172C1210.36 416.424 1210.48 417.719 1210.67 418.969C1210.75 419.481 1210.85 419.99 1210.96 420.498C1199.58 413.055 1184 410.101 1166.82 412.188C1154.44 413.693 1142.31 417.435 1130.59 421.054C1127.41 422.035 1124.23 423.016 1121.05 423.954C1107.14 428.056 1090.76 431.987 1074.81 430.026C1066.26 428.977 1057.89 426.262 1049.79 423.636C1044.87 422.04 1039.78 420.39 1034.69 419.12C1030.14 417.988 1025.4 417.104 1020.83 416.25C1009.52 414.141 997.849 411.959 988.199 405.843C987.613 404.456 987.01 403.081 986.39 401.72C986.159 401.212 985.917 400.707 985.681 400.201C989.38 402.471 994.108 403.84 1000 404.362C1002.65 404.596 1005.34 404.662 1007.94 404.726C1011.53 404.814 1015.23 404.904 1018.82 405.438C1027.06 406.665 1034.83 410.239 1042.34 413.695C1046.16 415.449 1050.1 417.263 1054.08 418.762C1064.17 422.561 1074.86 424.469 1085.55 424.469C1094.7 424.469 1103.85 423.075 1112.63 420.277C1121.71 417.381 1130.35 413.003 1138.7 408.769C1144.46 405.855 1150.4 402.841 1156.44 400.341C1167.89 395.595 1184.09 391.31 1198.66 396.25C1198.64 397.9 1198.99 399.558 1200.11 401.07C1201.38 402.809 1203.19 403.639 1204.79 404.37ZM1196.91 376.904C1198.46 379.188 1200.94 383.759 1200.07 388.717C1199.94 389.48 1199.73 390.29 1199.52 391.148C1199.21 392.35 1198.88 393.67 1198.73 395.02C1183.91 390.125 1167.55 394.451 1155.98 399.245C1149.91 401.762 1143.94 404.787 1138.17 407.711C1129.85 411.924 1121.26 416.28 1112.27 419.147C1093.47 425.138 1072.96 424.607 1054.5 417.653C1050.56 416.169 1046.63 414.364 1042.84 412.618C1035.25 409.127 1027.4 405.517 1018.99 404.265C1015.33 403.721 1011.59 403.629 1007.97 403.54C1005.39 403.477 1002.71 403.412 1000.1 403.181C993.486 402.594 988.415 400.92 984.68 398.082C984.661 398.042 984.64 398.002 984.621 397.962C989.259 400.17 994.666 401.38 1000.4 401.38C1001.82 401.38 1003.26 401.306 1004.72 401.154C1015.24 400.06 1024.92 395.601 1034.28 391.288L1037.06 390.008C1046.39 385.745 1057.27 381.244 1068.14 381.826C1074.92 382.187 1081.34 384.415 1088.15 386.774C1090.33 387.53 1092.58 388.312 1094.83 389.017C1106.95 392.827 1116.56 392.958 1124.2 389.416C1128.98 387.198 1132.85 383.61 1136.58 380.14C1140.94 376.091 1145.06 372.266 1150.28 370.839C1154.5 369.686 1158.98 370.237 1163.73 370.823C1167.74 371.317 1171.88 371.828 1176.06 371.294C1179.97 370.793 1183.82 369.345 1187.39 367.099C1190.83 370.091 1194.38 373.187 1196.91 376.904ZM1233.07 306.86C1233.13 308.995 1233.52 311.069 1233.9 313.075C1234.48 316.143 1235.03 319.041 1234.3 321.661C1232.81 327.036 1226.22 329.701 1220.41 329.606C1216.5 329.524 1212.67 328.566 1208.63 327.548C1208.37 327.319 1208.07 327.135 1207.72 327.032C1207.3 326.908 1206.87 326.915 1206.48 327.014C1204.61 326.557 1202.7 326.124 1200.77 325.81C1191.7 324.335 1184.05 326.449 1179.77 331.608C1178.94 332.617 1179.08 334.113 1180.09 334.95C1180.53 335.317 1181.07 335.496 1181.6 335.496C1182.28 335.496 1182.96 335.203 1183.43 334.637C1187.94 329.197 1196.53 329.926 1200.01 330.494C1201.33 330.707 1202.66 330.989 1203.98 331.296C1201.75 338.75 1199.27 346.292 1195.06 352.777C1189.96 360.609 1182.82 365.642 1175.45 366.585C1171.87 367.042 1168.2 366.59 1164.31 366.111C1159.31 365.494 1154.14 364.858 1149.03 366.259C1142.68 367.993 1137.94 372.4 1133.35 376.661C1129.73 380.027 1126.3 383.207 1122.2 385.108C1115.68 388.129 1107.19 387.926 1096.25 384.487C1094.07 383.803 1091.85 383.033 1089.7 382.288C1082.89 379.925 1075.84 377.481 1068.39 377.084C1056.43 376.451 1044.94 381.192 1035.09 385.688C1034.16 386.114 1033.22 386.543 1032.29 386.974C1023.28 391.125 1013.96 395.417 1004.23 396.43C996.648 397.218 986.499 395.605 980.067 389.12C977.119 383.757 973.904 378.533 970.431 373.49C976.78 372.726 983.627 369.508 990.893 363.853C992.548 362.564 994.199 361.206 995.794 359.892C1001.92 354.849 1007.7 350.086 1014.77 348.042C1017.05 347.384 1019.44 347.013 1021.98 346.619C1027.02 345.837 1032.24 345.028 1036.59 341.794C1038.62 340.286 1040.2 338.422 1041.64 336.493C1048.65 344.844 1060.24 349.711 1072.68 349.711C1074.82 349.711 1076.99 349.566 1079.16 349.27C1091.35 347.61 1103.49 341.929 1117.36 331.391C1122.36 327.593 1127.23 323.468 1131.93 319.478C1137.82 314.49 1143.9 309.332 1150.28 304.791C1176.86 285.86 1210.47 276.734 1242.99 279.517C1241.98 282.123 1240.63 284.766 1239.24 287.47C1236.1 293.583 1232.86 299.901 1233.07 306.86Z" fill="white"/>
<path d="M514.838 782.984C503.324 785.963 491.211 785.755 479.805 782.383C478.548 782.011 477.227 782.73 476.856 783.986C476.484 785.243 477.202 786.563 478.459 786.935C484.964 788.858 491.682 789.822 498.406 789.822C504.324 789.822 510.247 789.075 516.027 787.579C517.295 787.251 518.058 785.956 517.73 784.687C517.402 783.419 516.108 782.653 514.838 782.984Z" fill="white"/>
<path d="M520.629 770.315C520.514 769.009 519.349 768.038 518.058 768.158C509.053 768.947 499.75 767.882 491.157 765.076C489.907 764.667 488.571 765.349 488.164 766.595C487.757 767.841 488.437 769.181 489.683 769.588C493.875 770.957 498.225 771.926 502.63 772.509C490.739 773.684 478.451 770.663 468.559 763.913C467.477 763.175 466 763.452 465.261 764.536C464.522 765.619 464.801 767.095 465.884 767.834C475.17 774.17 486.391 777.505 497.608 777.505C502.326 777.505 507.043 776.915 511.616 775.71C512.775 775.404 513.497 774.291 513.357 773.133C515.067 773.107 516.775 773.035 518.471 772.887C519.777 772.771 520.743 771.621 520.629 770.315Z" fill="white"/>
<path d="M545.035 810.55C545.213 810.591 545.392 810.611 545.567 810.611C546.649 810.611 547.626 809.867 547.879 808.768C550.613 796.844 554.898 785.314 560.616 774.499C561.229 773.34 560.786 771.904 559.627 771.292C558.467 770.679 557.032 771.121 556.42 772.281C550.509 783.462 546.079 795.381 543.252 807.708C542.959 808.984 543.757 810.257 545.035 810.55Z" fill="white"/>
<path d="M524.06 774.471C523.835 773.179 522.6 772.316 521.315 772.539C520.023 772.764 519.159 773.993 519.383 775.284C521.266 786.117 525.633 796.578 532.01 805.534C532.473 806.184 533.203 806.531 533.945 806.531C534.421 806.531 534.902 806.388 535.319 806.091C536.387 805.331 536.636 803.849 535.876 802.781C529.908 794.398 525.822 784.609 524.06 774.471Z" fill="white"/>
<path d="M580.869 794.19C579.59 793.915 578.327 794.736 578.055 796.018C576.505 803.313 571.671 809.8 565.123 813.37C558.575 816.94 550.504 817.489 543.533 814.841C542.308 814.376 540.937 814.991 540.472 816.216C540.006 817.441 540.622 818.812 541.847 819.277C545.304 820.591 548.987 821.239 552.672 821.239C557.782 821.239 562.893 819.991 567.395 817.536C575.143 813.312 580.863 805.637 582.697 797.004C582.97 795.723 582.151 794.463 580.869 794.19Z" fill="white"/>
<path d="M573.693 786.563C570.21 796.789 562.083 805.138 551.954 808.895C550.726 809.351 550.099 810.717 550.555 811.946C550.91 812.902 551.816 813.494 552.781 813.494C553.055 813.494 553.334 813.446 553.606 813.345C565.059 809.096 574.248 799.656 578.187 788.092C578.609 786.851 577.946 785.503 576.706 785.08C575.464 784.658 574.115 785.322 573.693 786.563Z" fill="white"/>
<path d="M558.172 791.432C557.14 792.24 556.959 793.732 557.767 794.764C558.235 795.362 558.933 795.674 559.637 795.674C560.149 795.674 560.665 795.509 561.099 795.169C569.187 788.833 574.506 778.936 575.326 768.695C575.43 767.388 574.456 766.244 573.15 766.14C571.839 766.042 570.7 767.01 570.595 768.316C569.878 777.258 565.234 785.9 558.172 791.432Z" fill="white"/>
<path d="M593.773 793.407C594.177 794.266 595.031 794.771 595.922 794.771C596.26 794.771 596.604 794.698 596.931 794.544C608.556 789.076 622.35 787.807 634.777 791.062C635.798 791.328 636.825 790.884 637.365 790.045C637.494 790.11 637.63 790.167 637.774 790.209C639.533 790.715 641.355 790.96 643.178 790.96C648.249 790.96 653.328 789.062 657.051 785.595C658.011 784.701 658.064 783.199 657.17 782.24C656.278 781.281 654.774 781.227 653.816 782.121C649.948 785.724 644.166 787.108 639.086 785.647C638.051 785.35 636.996 785.791 636.444 786.647C636.298 786.574 636.143 786.513 635.979 786.47C622.493 782.94 607.525 784.316 594.91 790.249C593.724 790.807 593.215 792.221 593.773 793.407Z" fill="white"/>
<path d="M592.478 783.625C591.262 784.113 590.671 785.495 591.159 786.711C591.531 787.638 592.421 788.201 593.363 788.201C593.657 788.201 593.956 788.146 594.246 788.03C605.729 783.423 615.03 773.702 619.125 762.026C619.559 760.789 618.906 759.435 617.669 759.001C616.434 758.569 615.078 759.219 614.644 760.456C610.996 770.859 602.71 779.521 592.478 783.625Z" fill="white"/>
<path d="M606.414 751.227C606.654 749.938 605.805 748.699 604.517 748.458C603.225 748.219 601.989 749.067 601.748 750.356C599.788 760.858 593.257 770.582 584.276 776.368C583.174 777.078 582.856 778.547 583.566 779.648C584.02 780.353 584.783 780.736 585.563 780.736C586.003 780.736 586.448 780.613 586.846 780.358C596.904 773.878 604.219 762.988 606.414 751.227Z" fill="white"/>
<path d="M601.78 742.654C601.988 742.71 602.198 742.738 602.404 742.738C603.448 742.738 604.406 742.043 604.693 740.986C607.245 731.587 607.862 721.525 606.478 711.885C606.292 710.588 605.086 709.684 603.791 709.873C602.494 710.06 601.593 711.262 601.779 712.56C603.072 721.563 602.495 730.963 600.111 739.742C599.768 741.006 600.515 742.31 601.78 742.654Z" fill="white"/>
<path d="M615.37 757.747C615.945 757.747 616.522 757.54 616.978 757.119C621.735 752.732 625.73 747.329 628.531 741.495C629.098 740.313 628.6 738.895 627.419 738.328C626.235 737.761 624.818 738.26 624.252 739.44C621.708 744.738 618.081 749.645 613.76 753.629C612.797 754.518 612.736 756.019 613.624 756.983C614.093 757.49 614.731 757.747 615.37 757.747Z" fill="white"/>
<path d="M626.853 779.209C629.694 780.941 632.979 781.77 636.275 781.77C641.793 781.77 647.341 779.445 650.878 775.141C651.711 774.128 651.565 772.633 650.552 771.801C649.54 770.969 648.043 771.115 647.212 772.128C643.075 777.16 634.886 778.547 629.324 775.157C628.205 774.475 626.745 774.829 626.062 775.948C625.38 777.066 625.734 778.526 626.853 779.209Z" fill="white"/>
</svg>
