<svg width="2045" height="2045" viewBox="0 0 2045 2045" fill="none" xmlns="http://www.w3.org/2000/svg">
<path d="M1835.33 83.4228L1835.33 41.6742L1877.08 41.6742L1877.08 0.000685723L1918.75 0.000685226L1918.75 125.096L1877.08 125.096L1877.08 166.845L1835.33 166.845L1835.33 208.594L1793.58 208.594L1793.58 83.4228L1835.33 83.4228Z" fill="#982025"/>
<path d="M1877.08 166.845L1918.75 166.845L1918.75 125.097L2043.93 125.097L2043.93 166.845L2002.18 166.845L2002.18 208.594L1960.5 208.594L1960.5 250.268L1835.33 250.268L1835.33 208.594L1877.08 208.594L1877.08 166.845Z" fill="#982025"/>
<path d="M1626.74 83.4228L1626.74 41.6742L1585.06 41.6742L1585.06 0.00068622L1543.32 0.000686718L1543.32 125.096L1585.06 125.096L1585.06 166.845L1626.74 166.845L1626.74 208.594L1668.49 208.594L1668.49 83.4228L1626.74 83.4228Z" fill="#982025"/>
<path d="M1585.06 166.845L1543.32 166.845L1543.32 125.097L1418.14 125.097L1418.14 166.845L1459.89 166.845L1459.89 208.594L1501.64 208.594L1501.64 250.268L1626.74 250.268L1626.74 208.594L1585.06 208.594L1585.06 166.845Z" fill="#982025"/>
<path d="M1751.91 250.271L1751.91 292.02L1710.16 292.02L1710.16 250.271L1751.91 250.271Z" fill="#231F20"/>
<path d="M1793.58 291.945L1793.58 333.693L1751.84 333.693L1751.84 291.945L1793.58 291.945Z" fill="#231F20"/>
<path d="M1751.91 333.693L1751.91 375.441L1710.16 375.441L1710.16 333.693L1751.91 333.693Z" fill="#231F20"/>
<path d="M1710.16 291.945L1710.16 333.693L1668.41 333.693L1668.41 291.945L1710.16 291.945Z" fill="#231F20"/>
<path d="M1626.74 542.285L1626.74 584.034L1585.06 584.034L1585.06 625.707L1543.32 625.707L1543.32 500.536L1585.06 500.536L1585.06 458.863L1626.74 458.863L1626.74 417.114L1668.49 417.114L1668.49 542.285L1626.74 542.285Z" fill="#982025"/>
<path d="M1585.06 458.862L1543.32 458.862L1543.32 500.535L1418.14 500.535L1418.14 458.862L1459.89 458.862L1459.89 417.113L1501.64 417.113L1501.64 375.44L1626.74 375.44L1626.74 417.113L1585.06 417.113L1585.06 458.862Z" fill="#982025"/>
<path d="M1835.33 542.285L1835.33 584.034L1877.08 584.034L1877.08 625.707L1918.75 625.707L1918.75 500.536L1877.08 500.536L1877.08 458.863L1835.33 458.863L1835.33 417.114L1793.58 417.114L1793.58 542.285L1835.33 542.285Z" fill="#982025"/>
<path d="M1877.08 458.862L1918.75 458.862L1918.75 500.535L2043.93 500.535L2043.93 458.862L2002.18 458.862L2002.18 417.113L1960.5 417.113L1960.5 375.44L1835.33 375.44L1835.33 417.113L1877.08 417.113L1877.08 458.862Z" fill="#982025"/>
<path d="M1167.88 83.4228L1167.88 41.6742L1209.63 41.6742L1209.63 0.000685723L1251.3 0.000685226L1251.3 125.096L1209.63 125.096L1209.63 166.845L1167.88 166.845L1167.88 208.594L1126.2 208.594L1126.2 83.4228L1167.88 83.4228Z" fill="#982025"/>
<path d="M1209.63 166.845L1251.3 166.845L1251.3 125.097L1376.47 125.097L1376.47 166.845L1334.72 166.845L1334.72 208.594L1293.05 208.594L1293.05 250.268L1167.88 250.268L1167.88 208.594L1209.63 208.594L1209.63 166.845Z" fill="#982025"/>
<path d="M959.29 83.4228L959.29 41.6742L917.617 41.6742L917.617 0.00068622L875.868 0.000686718L875.868 125.096L917.617 125.096L917.617 166.845L959.29 166.845L959.29 208.594L1001.04 208.594L1001.04 83.4228L959.29 83.4228Z" fill="#982025"/>
<path d="M917.618 166.845L875.869 166.845L875.869 125.097L750.773 125.097L750.773 166.845L792.446 166.845L792.446 208.594L834.195 208.594L834.195 250.268L959.291 250.268L959.291 208.594L917.618 208.594L917.618 166.845Z" fill="#982025"/>
<path d="M1084.46 250.271L1084.46 292.02L1042.71 292.02L1042.71 250.271L1084.46 250.271Z" fill="#231F20"/>
<path d="M1126.2 291.945L1126.2 333.693L1084.45 333.693L1084.45 291.945L1126.2 291.945Z" fill="#231F20"/>
<path d="M1084.46 333.693L1084.46 375.441L1042.71 375.441L1042.71 333.693L1084.46 333.693Z" fill="#231F20"/>
<path d="M1042.71 291.945L1042.71 333.693L1000.96 333.693L1000.96 291.945L1042.71 291.945Z" fill="#231F20"/>
<path d="M959.29 542.285L959.29 584.034L917.617 584.034L917.617 625.707L875.868 625.707L875.868 500.536L917.617 500.536L917.617 458.863L959.29 458.863L959.29 417.114L1001.04 417.114L1001.04 542.285L959.29 542.285Z" fill="#982025"/>
<path d="M917.618 458.862L875.869 458.862L875.869 500.535L750.773 500.535L750.773 458.862L792.446 458.862L792.446 417.113L834.195 417.113L834.195 375.44L959.291 375.44L959.291 417.113L917.618 417.113L917.618 458.862Z" fill="#982025"/>
<path d="M1167.88 542.285L1167.88 584.034L1209.63 584.034L1209.63 625.707L1251.3 625.707L1251.3 500.536L1209.63 500.536L1209.63 458.863L1167.88 458.863L1167.88 417.114L1126.2 417.114L1126.2 542.285L1167.88 542.285Z" fill="#982025"/>
<path d="M1209.63 458.862L1251.3 458.862L1251.3 500.535L1376.47 500.535L1376.47 458.862L1334.72 458.862L1334.72 417.113L1293.05 417.113L1293.05 375.44L1167.88 375.44L1167.88 417.113L1209.63 417.113L1209.63 458.862Z" fill="#982025"/>
<path d="M1418.14 250.273L1418.14 292.021L1376.4 292.021L1376.4 250.273L1418.14 250.273Z" fill="#231F20"/>
<path d="M1459.89 291.947L1459.89 333.695L1418.14 333.695L1418.14 291.947L1459.89 291.947Z" fill="#231F20"/>
<path d="M1418.14 333.694L1418.14 375.443L1376.4 375.443L1376.4 333.695L1418.14 333.694Z" fill="#231F20"/>
<path d="M1376.47 291.947L1376.47 333.695L1334.72 333.695L1334.72 291.947L1376.47 291.947Z" fill="#231F20"/>
<path d="M500.609 83.4247L500.609 41.6761L542.358 41.6761L542.358 0.00263885L584.031 0.00263835L584.031 125.098L542.358 125.098L542.358 166.847L500.609 166.847L500.609 208.596L458.861 208.596L458.861 83.4247L500.609 83.4247Z" fill="#982025"/>
<path d="M542.358 166.847L584.032 166.847L584.032 125.099L709.203 125.099L709.203 166.847L667.454 166.847L667.454 208.596L625.781 208.596L625.781 250.27L500.61 250.27L500.61 208.596L542.358 208.596L542.358 166.847Z" fill="#982025"/>
<path d="M292.017 83.4247L292.017 41.6761L250.343 41.6761L250.343 0.00263935L208.594 0.00263984L208.594 125.098L250.343 125.098L250.343 166.847L292.017 166.847L292.017 208.596L333.766 208.596L333.766 83.4247L292.017 83.4247Z" fill="#982025"/>
<path d="M250.344 166.847L208.595 166.847L208.595 125.099L83.4243 125.099L83.4243 166.847L125.173 166.847L125.173 208.596L166.922 208.596L166.922 250.27L292.018 250.27L292.018 208.596L250.344 208.596L250.344 166.847Z" fill="#982025"/>
<path d="M417.187 250.273L417.188 292.021L375.439 292.021L375.439 250.273L417.187 250.273Z" fill="#231F20"/>
<path d="M458.861 291.947L458.861 333.695L417.113 333.695L417.113 291.947L458.861 291.947Z" fill="#231F20"/>
<path d="M417.187 333.694L417.188 375.443L375.439 375.443L375.439 333.695L417.187 333.694Z" fill="#231F20"/>
<path d="M375.439 291.947L375.439 333.695L333.691 333.695L333.691 291.947L375.439 291.947Z" fill="#231F20"/>
<path d="M292.017 542.287L292.017 584.036L250.343 584.036L250.343 625.709L208.594 625.709L208.594 500.538L250.343 500.538L250.343 458.865L292.017 458.865L292.017 417.116L333.766 417.116L333.766 542.287L292.017 542.287Z" fill="#982025"/>
<path d="M250.344 458.864L208.595 458.864L208.595 500.537L83.4243 500.537L83.4243 458.864L125.173 458.864L125.173 417.115L166.922 417.115L166.922 375.442L292.018 375.442L292.018 417.115L250.344 417.115L250.344 458.864Z" fill="#982025"/>
<path d="M500.609 542.287L500.609 584.036L542.358 584.036L542.358 625.709L584.031 625.709L584.031 500.538L542.358 500.538L542.358 458.865L500.609 458.865L500.609 417.116L458.861 417.116L458.861 542.287L500.609 542.287Z" fill="#982025"/>
<path d="M542.358 458.864L584.032 458.864L584.032 500.537L709.203 500.537L709.203 458.864L667.454 458.864L667.454 417.115L625.781 417.115L625.781 375.442L500.61 375.442L500.61 417.115L542.358 417.115L542.358 458.864Z" fill="#982025"/>
<path d="M83.4238 250.273L83.4238 292.021L41.6752 292.021L41.6752 250.273L83.4238 250.273Z" fill="#231F20"/>
<path d="M125.172 291.947L125.172 333.695L83.4232 333.695L83.4232 291.947L125.172 291.947Z" fill="#231F20"/>
<path d="M83.4238 333.694L83.4238 375.443L41.6752 375.443L41.6752 333.695L83.4238 333.694Z" fill="#231F20"/>
<path d="M41.75 291.947L41.75 333.695L0.00136948 333.695L0.00136898 291.947L41.75 291.947Z" fill="#231F20"/>
<path d="M751.455 250.273L751.455 292.021L709.706 292.021L709.706 250.273L751.455 250.273Z" fill="#231F20"/>
<path d="M793.203 291.947L793.203 333.695L751.454 333.695L751.454 291.947L793.203 291.947Z" fill="#231F20"/>
<path d="M751.455 333.694L751.455 375.443L709.706 375.443L709.706 333.695L751.455 333.694Z" fill="#231F20"/>
<path d="M709.781 291.947L709.781 333.695L668.033 333.695L668.033 291.947L709.781 291.947Z" fill="#231F20"/>
<path d="M1960.78 1752.27L2002.53 1752.27L2002.53 1794.02L2044.2 1794.02L2044.2 1835.69L1919.1 1835.69L1919.1 1794.02L1877.35 1794.02L1877.35 1752.27L1835.61 1752.27L1835.61 1710.52L1960.78 1710.52L1960.78 1752.27Z" fill="#982025"/>
<path d="M1877.35 1794.02L1877.35 1835.69L1919.1 1835.69L1919.1 1960.86L1877.35 1960.86L1877.35 1919.11L1835.61 1919.11L1835.61 1877.44L1793.93 1877.44L1793.93 1752.27L1835.61 1752.27L1835.61 1794.02L1877.35 1794.02Z" fill="#982025"/>
<path d="M1960.78 1543.68L2002.53 1543.68L2002.53 1502L2044.2 1502L2044.2 1460.25L1919.1 1460.25L1919.1 1502L1877.35 1502L1877.35 1543.68L1835.61 1543.68L1835.61 1585.42L1960.78 1585.42L1960.78 1543.68Z" fill="#982025"/>
<path d="M1877.35 1502L1877.35 1460.25L1919.1 1460.25L1919.1 1335.08L1877.35 1335.08L1877.35 1376.83L1835.61 1376.83L1835.61 1418.58L1793.93 1418.58L1793.93 1543.67L1835.61 1543.67L1835.61 1502L1877.35 1502Z" fill="#982025"/>
<path d="M1793.93 1668.85L1752.18 1668.85L1752.18 1627.1L1793.93 1627.1L1793.93 1668.85Z" fill="#231F20"/>
<path d="M1752.25 1710.52L1710.51 1710.52L1710.51 1668.77L1752.25 1668.77L1752.25 1710.52Z" fill="#231F20"/>
<path d="M1710.51 1668.85L1668.76 1668.85L1668.76 1627.1L1710.51 1627.1L1710.51 1668.85Z" fill="#231F20"/>
<path d="M1752.25 1627.1L1710.51 1627.1L1710.51 1585.35L1752.25 1585.35L1752.25 1627.1Z" fill="#231F20"/>
<path d="M1793.93 667.775L1752.18 667.775L1752.18 626.027L1793.93 626.027L1793.93 667.775Z" fill="#231F20"/>
<path d="M1752.25 709.449L1710.51 709.449L1710.51 667.701L1752.25 667.701L1752.25 709.449Z" fill="#231F20"/>
<path d="M1710.51 667.775L1668.76 667.775L1668.76 626.027L1710.51 626.027L1710.51 667.775Z" fill="#231F20"/>
<path d="M1752.25 626.027L1710.51 626.027L1710.51 584.279L1752.25 584.279L1752.25 626.027Z" fill="#231F20"/>
<path d="M1501.91 1543.68L1460.17 1543.68L1460.17 1502L1418.49 1502L1418.49 1460.25L1543.66 1460.25L1543.66 1502L1585.34 1502L1585.34 1543.68L1627.09 1543.68L1627.09 1585.42L1501.91 1585.42L1501.91 1543.68Z" fill="#982025"/>
<path d="M1585.34 1502L1585.34 1460.26L1543.66 1460.26L1543.66 1335.08L1585.34 1335.08L1585.34 1376.83L1627.09 1376.83L1627.09 1418.58L1668.76 1418.58L1668.76 1543.68L1627.09 1543.68L1627.09 1502L1585.34 1502Z" fill="#982025"/>
<path d="M1501.91 1752.27L1460.17 1752.27L1460.17 1794.02L1418.49 1794.02L1418.49 1835.69L1543.66 1835.69L1543.66 1794.02L1585.34 1794.02L1585.34 1752.27L1627.09 1752.27L1627.09 1710.52L1501.91 1710.52L1501.91 1752.27Z" fill="#982025"/>
<path d="M1585.34 1794.02L1585.34 1835.69L1543.66 1835.69L1543.66 1960.86L1585.34 1960.86L1585.34 1919.11L1627.09 1919.11L1627.09 1877.44L1668.76 1877.44L1668.76 1752.27L1627.09 1752.27L1627.09 1794.02L1585.34 1794.02Z" fill="#982025"/>
<path d="M1960.78 1084.81L2002.53 1084.81L2002.53 1126.56L2044.2 1126.56L2044.2 1168.24L1919.1 1168.24L1919.1 1126.56L1877.35 1126.56L1877.35 1084.81L1835.61 1084.81L1835.61 1043.14L1960.78 1043.14L1960.78 1084.81Z" fill="#982025"/>
<path d="M1877.35 1126.56L1877.35 1168.24L1919.1 1168.24L1919.1 1293.41L1877.35 1293.41L1877.35 1251.66L1835.61 1251.66L1835.61 1209.99L1793.93 1209.99L1793.93 1084.81L1835.61 1084.81L1835.61 1126.56L1877.35 1126.56Z" fill="#982025"/>
<path d="M1960.78 876.228L2002.53 876.228L2002.53 834.554L2044.2 834.554L2044.2 792.806L1919.1 792.806L1919.1 834.554L1877.35 834.554L1877.35 876.228L1835.61 876.228L1835.61 917.977L1960.78 917.977L1960.78 876.228Z" fill="#982025"/>
<path d="M1877.35 834.555L1877.35 792.806L1919.1 792.806L1919.1 667.71L1877.35 667.71L1877.35 709.384L1835.61 709.384L1835.61 751.132L1793.93 751.132L1793.93 876.229L1835.61 876.229L1835.61 834.555L1877.35 834.555Z" fill="#982025"/>
<path d="M1793.93 1001.39L1752.18 1001.39L1752.18 959.646L1793.93 959.646L1793.93 1001.39Z" fill="#231F20"/>
<path d="M1752.25 1043.14L1710.51 1043.14L1710.51 1001.39L1752.25 1001.39L1752.25 1043.14Z" fill="#231F20"/>
<path d="M1710.51 1001.39L1668.76 1001.39L1668.76 959.646L1710.51 959.646L1710.51 1001.39Z" fill="#231F20"/>
<path d="M1752.25 959.645L1710.51 959.645L1710.51 917.896L1752.25 917.896L1752.25 959.645Z" fill="#231F20"/>
<path d="M1501.91 876.228L1460.17 876.228L1460.17 834.554L1418.49 834.554L1418.49 792.806L1543.66 792.806L1543.66 834.554L1585.34 834.554L1585.34 876.228L1627.09 876.228L1627.09 917.977L1501.91 917.977L1501.91 876.228Z" fill="#982025"/>
<path d="M1585.34 834.555L1585.34 792.806L1543.66 792.806L1543.66 667.71L1585.34 667.71L1585.34 709.384L1627.09 709.384L1627.09 751.132L1668.76 751.132L1668.76 876.229L1627.09 876.229L1627.09 834.555L1585.34 834.555Z" fill="#982025"/>
<path d="M1501.91 1084.81L1460.17 1084.81L1460.17 1126.56L1418.49 1126.56L1418.49 1168.24L1543.66 1168.24L1543.66 1126.56L1585.34 1126.56L1585.34 1084.81L1627.09 1084.81L1627.09 1043.14L1501.91 1043.14L1501.91 1084.81Z" fill="#982025"/>
<path d="M1585.34 1126.56L1585.34 1168.24L1543.66 1168.24L1543.66 1293.41L1585.34 1293.41L1585.34 1251.66L1627.09 1251.66L1627.09 1209.99L1668.76 1209.99L1668.76 1084.81L1627.09 1084.81L1627.09 1126.56L1585.34 1126.56Z" fill="#982025"/>
<path d="M1793.93 1335.08L1752.18 1335.08L1752.18 1293.34L1793.93 1293.34L1793.93 1335.08Z" fill="#231F20"/>
<path d="M1752.25 1376.83L1710.51 1376.83L1710.51 1335.08L1752.25 1335.08L1752.25 1376.83Z" fill="#231F20"/>
<path d="M1710.51 1335.08L1668.76 1335.08L1668.76 1293.33L1710.51 1293.33L1710.51 1335.08Z" fill="#231F20"/>
<path d="M1752.25 1293.41L1710.51 1293.41L1710.51 1251.66L1752.25 1251.66L1752.25 1293.41Z" fill="#231F20"/>
<path d="M1793.93 2003.12L1752.18 2003.12L1752.18 1961.37L1793.93 1961.37L1793.93 2003.12Z" fill="#231F20"/>
<path d="M1752.25 2044.86L1710.51 2044.86L1710.51 2003.11L1752.25 2003.11L1752.25 2044.86Z" fill="#231F20"/>
<path d="M1710.51 2003.11L1668.76 2003.11L1668.76 1961.36L1710.51 1961.36L1710.51 2003.11Z" fill="#231F20"/>
<path d="M1752.25 1961.44L1710.51 1961.44L1710.51 1919.69L1752.25 1919.69L1752.25 1961.44Z" fill="#231F20"/>
<path d="M509.941 1243.02H551.69V1284.77H593.438V1326.44H635.112V1159.59H593.438V1117.85H551.69V1076.17H509.941V1034.42H468.268V1201.34H509.941V1243.02Z" fill="#231F20"/>
<path d="M343.095 1284.76H384.844V1326.44H426.518V1368.19H593.437V1326.44H551.689V1284.76H509.94V1243.02H468.266V1201.34H301.422V1243.02H343.095V1284.76Z" fill="#231F20"/>
<path d="M760.282 1284.77V1243.02H801.955V1201.34H843.704V1034.42H801.955V1076.17H760.282V1117.85H718.533V1159.59H676.859V1326.44H718.533V1284.77H760.282Z" fill="#231F20"/>
<path d="M843.704 1243.02H801.955V1284.76H760.282V1326.44H718.533V1368.19H885.378V1326.44H927.126V1284.76H968.875V1243.02H1010.55V1201.34H843.704V1243.02Z" fill="#231F20"/>
<path d="M635.112 1451.61H593.438V1493.28H551.69V1535.03H509.941V1576.78H468.268V1743.63H509.941V1701.88H551.69V1660.2H593.438V1618.46H635.112V1451.61Z" fill="#231F20"/>
<path d="M509.94 1535.03V1493.28H551.689V1451.61H593.437V1409.86H426.518V1451.61H384.844V1493.28H343.095V1535.03H301.422V1576.78H468.266V1535.03H509.94Z" fill="#231F20"/>
<path d="M801.955 1535.03H760.282V1493.28H718.533V1451.61H676.859V1618.46H718.533V1660.2H760.282V1701.88H801.955V1743.63H843.704V1576.78H801.955V1535.03Z" fill="#231F20"/>
<path d="M968.875 1493.28H927.126V1451.61H885.378V1409.86H718.533V1451.61H760.282V1493.28H801.955V1535.03H843.704V1576.78H1010.55V1535.03H968.875V1493.28Z" fill="#231F20"/>
<path d="M676.86 1368.19H635.111V1409.94H676.86V1368.19Z" fill="#231F20"/>
<path d="M259.749 1368.19H218V1409.94H259.749V1368.19Z" fill="#231F20"/>
<path d="M1094.05 1368.19H1052.3V1409.94H1094.05V1368.19Z" fill="#231F20"/>
<path d="M676.86 951.002H635.111V992.751H676.86V951.002Z" fill="#231F20"/>
<path d="M676.86 1785.3H635.111V1827.05H676.86V1785.3Z" fill="#231F20"/>
</svg>
