<svg width="710" height="793" viewBox="0 0 710 793" fill="none" xmlns="http://www.w3.org/2000/svg">
<path d="M667.828 542.507V500.759H626.08V459.01H584.331V417.261H459.16V459.01H417.411V500.759H375.663V417.336H417.411V375.588H459.16V333.839H500.909V125.246H459.16V83.4973H417.411V41.7486H375.663V0H333.914V41.7486H292.166V83.4973H250.417V125.246H208.668V333.839H250.417V375.588H292.166V417.336H333.914V500.759H292.166V459.01H250.417V417.261H125.246V459.01H83.4973V500.759H41.7486V542.507H0V667.678H41.7486V625.929H83.4973V584.181H125.246V542.432H208.668V584.181H250.417V625.929H292.166V667.678H333.914V792.849H375.663V667.678H417.411V625.929H459.16V584.181H500.909V542.432H584.331V584.181H626.08V625.929H667.828V667.678H709.577V542.507H667.828ZM334.139 292.24V250.492H292.391V208.743H334.139V166.995H375.888V208.743H417.637V250.492H375.888V292.24H334.139Z" fill="#231F20"/>
</svg>
